<svg width="11" height="19" viewBox="0 0 11 19" fill="none" xmlns="http://www.w3.org/2000/svg">
<path d="M10.3724 0.367234C10.2563 0.250826 10.1184 0.158469 9.96653 0.095453C9.81467 0.0324369 9.65186 0 9.48744 0C9.32303 0 9.16022 0.0324369 9.00836 0.095453C8.8565 0.158469 8.71856 0.250826 8.60244 0.367234L0.292444 8.67723C0.199741 8.76975 0.126193 8.87964 0.0760117 9.00061C0.0258302 9.12158 0 9.25127 0 9.38223C0 9.5132 0.0258302 9.64289 0.0760117 9.76386C0.126193 9.88483 0.199741 9.99472 0.292444 10.0872L8.60244 18.3972C9.09244 18.8872 9.88245 18.8872 10.3724 18.3972C10.8624 17.9072 10.8624 17.1172 10.3724 16.6272L3.13244 9.37723L10.3824 2.12723C10.8624 1.64723 10.8624 0.847234 10.3724 0.367234Z" fill="black"/>
</svg>
