<svg width="212" height="120" viewBox="0 0 212 120" fill="none" xmlns="http://www.w3.org/2000/svg">
<g id="&#208;&#161;&#208;&#187;&#208;&#190;&#208;&#185;_1" clip-path="url(#clip0_292_3177)">
<path id="Vector" d="M16.1962 119.633C16.1962 119.633 -8.88184 89.4244 3.37123 58.3253C11.36 38.0537 41.3242 26.9459 58.239 38.0537C65.4419 42.7847 88.5514 38.2132 100.889 18.6268C124.871 -19.4343 208.553 3.6805 193.318 62.1176C185.946 90.3975 215.756 91.4212 200.566 119.693L16.1962 119.633Z" fill="#EBF3FA"/>
<path id="Vector_2" d="M34.7586 69.9137C34.7586 69.9137 32.2294 66.9632 34.6028 65.0887C34.6028 65.0887 36.3364 64.0395 37.7494 64.1245C37.7494 64.1245 35.7466 67.4799 36.3946 67.8169C37.0425 68.154 38.3571 63.912 38.3571 63.912C38.3571 63.912 42.3015 63.5295 43.5706 64.1357C43.5706 64.1357 40.1981 66.8946 40.9087 67.0594C41.6193 67.2242 45.2617 64.5153 45.2617 64.5153C45.2617 64.5153 48.9332 65.1401 48.7371 67.38C48.541 69.6199 47.2764 70.3111 46.7239 70.2514C46.1714 70.1918 42.9152 68.9503 42.8466 69.4059C42.778 69.8615 44.7338 71.3505 46.105 71.4191C46.105 71.4191 43.5162 74.2742 41.796 73.4502C40.0758 72.6263 39.9319 71.3207 38.8567 70.8308C37.7815 70.3409 36.8688 70.3417 37.311 70.8412C37.7531 71.3408 39.697 71.8262 40.3084 72.9111C40.9198 73.996 41.4716 74.7275 39.6918 74.4598C37.9119 74.1921 35.0189 72.8895 34.8914 71.3982L34.7586 69.9137Z" fill="#C8DBF4"/>
<path id="Vector_3" d="M46.9364 67.4471C46.9364 67.4471 36.9642 67.0623 34.7616 69.9144C34.7616 69.9144 34.2747 71.3728 32.776 72.7016L32.5426 73.3383C32.5426 73.3383 34.2702 71.516 34.8884 71.4056C34.8854 71.4056 33.919 67.8728 46.9364 67.4471Z" fill="#C8DBF4"/>
<path id="Vector_4" d="M32.773 72.7038C32.773 72.7038 30.6323 74.2868 30.4839 77.115L30.8724 77.15C30.8724 77.15 31.5561 74.2249 32.7916 73.0818C34.0272 71.9387 32.773 72.7038 32.773 72.7038Z" fill="#C8DBF4"/>
<path id="Vector_5" d="M25.9162 66.2036C25.9162 66.2036 29.9389 63.951 28.0614 60.8932C28.0614 60.8932 26.5597 59.0157 24.9506 58.5332C24.9506 58.5332 25.8088 63.0928 24.9506 63.2002C24.0923 63.3076 24.36 58.0501 24.36 58.0501C24.36 58.0501 20.1226 56.0093 18.4598 56.1725C18.4598 56.1725 21.0882 60.6248 20.2299 60.5174C19.3717 60.41 16.4212 55.9041 16.4212 55.9041C16.4212 55.9041 12.0756 55.0996 11.3785 57.675C10.6813 60.2504 11.808 61.5367 12.4514 61.6977C13.0949 61.8588 17.2235 61.8051 17.1184 62.342C17.0133 62.8788 14.2216 63.7363 12.6662 63.2539C12.6662 63.2539 14.3812 67.4913 16.6352 67.2766C18.8893 67.0618 19.5857 65.6675 20.9808 65.5616C22.3759 65.4557 23.3944 65.8301 22.6958 66.2051C21.9971 66.5802 19.6386 66.3289 18.5112 67.2863C17.3838 68.2437 16.4734 68.8342 18.5649 69.263C20.6564 69.6917 24.4122 69.424 25.1631 67.8149L25.9162 66.2036Z" fill="#C8DBF4"/>
<path id="Vector_6" d="M13.3633 58.4804C13.3633 58.4804 24.6284 62.1281 25.9161 66.2045C25.9161 66.2045 25.8624 68.029 26.9884 70.1206V70.9229C26.9884 70.9229 25.8088 68.1864 25.1645 67.8113C25.1638 67.8143 27.6863 64.274 13.3633 58.4804Z" fill="#C8DBF4"/>
<path id="Vector_7" d="M26.9883 70.1216C26.9883 70.1216 28.7257 72.7597 27.734 75.9711L27.2866 75.8511C27.2866 75.8511 27.7205 72.3145 26.8116 70.5355C25.9027 68.7564 26.9883 70.1216 26.9883 70.1216Z" fill="#C8DBF4"/>
<path id="Vector_8" d="M32.3167 63.0983C32.3167 63.0983 27.013 60.1284 29.4885 56.0983C29.4885 56.0983 31.4689 53.6227 33.5895 52.9867C33.5895 52.9867 32.4576 58.9973 33.5895 59.139C34.7214 59.2806 34.3672 52.3499 34.3672 52.3499C34.3672 52.3499 39.9535 49.6656 42.1457 49.8752C42.1457 49.8752 38.6807 55.7441 39.8119 55.6032C40.943 55.4622 44.833 49.524 44.833 49.524C44.833 49.524 50.5602 48.4637 51.4796 51.8578C52.399 55.252 50.9137 56.949 50.0629 57.1608C49.2121 57.3726 43.7697 57.3025 43.9114 58.0093C44.053 58.7162 47.7298 59.8481 49.7803 59.2113C49.7803 59.2113 47.5173 64.7976 44.5474 64.515C41.5775 64.2324 40.6582 62.3937 38.8202 62.252C36.9822 62.1103 35.6378 62.6054 36.5571 63.1005C37.4765 63.5956 40.5836 63.2631 42.0749 64.5255C43.5661 65.7878 44.7592 66.5655 42.004 67.1315C39.2489 67.6974 34.2964 67.3447 33.3069 65.2197L32.3167 63.0983Z" fill="#D4E4F8"/>
<path id="Vector_9" d="M48.8632 52.9141C48.8632 52.9141 34.0138 57.7242 32.3167 63.0965C32.3167 63.0965 32.3913 65.5012 30.9 68.2585V69.3196C30.9 69.3196 32.4554 65.7129 33.3047 65.2186C33.3069 65.2178 29.9829 60.5509 48.8632 52.9141Z" fill="#D4E4F8"/>
<path id="Vector_10" d="M30.9052 68.2594C30.9052 68.2594 28.6153 71.7371 29.9209 75.9701L30.51 75.812C30.51 75.812 29.9381 71.1495 31.1363 68.803C32.3346 66.4565 30.9052 68.2594 30.9052 68.2594Z" fill="#D4E4F8"/>
<path id="Vector_11" d="M32.1377 85.1507C34.8931 85.1507 37.5355 84.0561 39.4839 82.1078C41.4322 80.1595 42.5267 77.517 42.5267 74.7617H21.7495C21.7495 77.5169 22.844 80.1593 24.7921 82.1076C26.7403 84.0559 29.3825 85.1505 32.1377 85.1507Z" fill="#D4E4F8"/>
<path id="Vector_12" d="M22.8873 84.3984H41.3881C41.7281 84.3984 42.0541 84.5335 42.2944 84.7739C42.5348 85.0142 42.6699 85.3402 42.6699 85.6802H21.6056C21.6056 85.3402 21.7406 85.0142 21.981 84.7739C22.2214 84.5335 22.5474 84.3984 22.8873 84.3984Z" fill="#D4E4F8"/>
<path id="Vector_13" d="M42.7623 74.7617H21.4072V75.0801H42.7623V74.7617Z" fill="#9FC1F4"/>
<path id="Vector_14" d="M85.7432 119.416H85.7946C86.2144 119.409 86.5402 119.066 86.4992 118.671L83.6964 90.7031L81.2529 90.9216L85.2742 119.038C85.2926 119.148 85.3505 119.246 85.4369 119.316C85.5234 119.386 85.6323 119.421 85.7432 119.416Z" fill="#8CB4F4"/>
<path id="Vector_15" d="M58.7793 119.415H58.7279C58.3081 119.408 57.9823 119.065 58.0233 118.67L60.8239 90.7031L63.2673 90.9216L59.2461 119.037C59.2275 119.146 59.1699 119.245 59.084 119.314C58.9981 119.384 58.8898 119.42 58.7793 119.415Z" fill="#8CB4F4"/>
<path id="Vector_16" d="M105.499 119.416H105.55C105.97 119.409 106.296 119.066 106.255 118.671L103.456 90.7031L101.012 90.9216L105.033 119.038C105.052 119.147 105.109 119.245 105.195 119.315C105.28 119.384 105.388 119.42 105.499 119.416Z" fill="#8CB4F4"/>
<path id="Vector_17" d="M59.6123 86.6379L54.6419 62.0907C54.0036 58.7674 56.7573 55.7282 60.3334 55.8102L69.92 56.0287C71.5314 56.0657 73.089 56.6158 74.3662 57.599C75.6434 58.5823 76.5736 59.9474 77.0215 61.4957L84.2929 86.6379H59.6123Z" fill="#8CB4F4"/>
<path id="Vector_18" d="M62.6201 86.6379L57.6497 62.0907C57.0114 58.7704 59.7651 55.7282 63.3404 55.8102L72.9271 56.0287C74.5385 56.0657 76.0961 56.6158 77.3733 57.599C78.6505 58.5823 79.5807 59.9473 80.0286 61.4957L87.3008 86.6379H62.6201Z" fill="#8CB4F4"/>
<path id="Vector_19" d="M98.926 91.1132H60.9984C60.631 91.1132 60.2786 90.9673 60.0188 90.7074C59.759 90.4476 59.613 90.0953 59.613 89.7278V86.6364H98.926C99.108 86.6363 99.2882 86.6721 99.4564 86.7417C99.6246 86.8112 99.7774 86.9133 99.9061 87.0419C100.035 87.1706 100.137 87.3233 100.207 87.4915C100.276 87.6596 100.312 87.8398 100.312 88.0218V89.7278C100.312 89.9098 100.276 90.09 100.207 90.2582C100.137 90.4263 100.035 90.5791 99.9061 90.7077C99.7774 90.8364 99.6246 90.9384 99.4564 91.008C99.2882 91.0776 99.108 91.1133 98.926 91.1132Z" fill="#8CB4F4"/>
<path id="Vector_20" d="M78.7975 91.1132H102.975C103.591 91.1132 104.091 90.6135 104.091 89.997V87.7526C104.091 87.1362 103.591 86.6364 102.975 86.6364H78.7975C78.1811 86.6364 77.6813 87.1362 77.6813 87.7526V89.997C77.6813 90.6135 78.1811 91.1132 78.7975 91.1132Z" fill="#8CB4F4"/>
<path id="Vector_21" d="M48.2965 86.3175V87.1549C48.2965 87.4479 48.201 87.6873 48.0854 87.6873H17.5255C17.4091 87.6873 17.3145 87.4479 17.3145 87.1549V86.3175C17.3145 86.0245 17.4091 85.7852 17.5255 85.7852H48.0854C48.204 85.7852 48.2965 86.0245 48.2965 86.3175Z" fill="#9ABFE2"/>
<path id="Vector_22" d="M48.2965 86.3175V87.1549C48.2965 87.4479 48.2093 87.6873 48.1026 87.6873H23.8411C23.7352 87.6873 23.6479 87.4479 23.6479 87.1549V86.3175C23.6479 86.0245 23.7352 85.7852 23.8411 85.7852H48.1026C48.2093 85.7852 48.2965 86.0245 48.2965 86.3175Z" fill="#BAD4F4"/>
<path id="Vector_23" d="M40.5612 87.6875H18.8654V119.311H40.5612V87.6875Z" fill="#C8DBF4"/>
<path id="Vector_24" d="M46.6411 87.6875H24.9453V119.311H46.6411V87.6875Z" fill="#DFEBFD"/>
<path id="Vector_25" d="M45.4757 117.566H26.1115V88.582H45.4757V117.566ZM26.321 117.356H45.2669V88.7908H26.321V117.356Z" fill="#B7D3F3"/>
<path id="Vector_26" d="M45.3714 98.168H26.2159V98.3768H45.3714V98.168Z" fill="#B7D3F3"/>
<path id="Vector_27" d="M45.3714 107.941H26.2159V108.15H45.3714V107.941Z" fill="#B7D3F3"/>
<path id="Vector_28" d="M37.7569 90.4481H34.2025C34.1193 90.4479 34.0395 90.4148 33.9807 90.356C33.9219 90.2972 33.8887 90.2174 33.8885 90.1342C33.8887 90.051 33.9219 89.9713 33.9807 89.9125C34.0395 89.8537 34.1193 89.8205 34.2025 89.8203H37.7569C37.84 89.8207 37.9195 89.8539 37.9782 89.9127C38.0369 89.9715 38.0699 90.0512 38.0701 90.1342C38.0699 90.2173 38.0369 90.2969 37.9782 90.3557C37.9195 90.4145 37.84 90.4477 37.7569 90.4481Z" fill="#B7D3F3"/>
<path id="Vector_29" d="M37.7569 100.01H34.2025C34.1193 100.01 34.0396 99.9769 33.9808 99.9182C33.9219 99.8595 33.8887 99.7798 33.8885 99.6967C33.8887 99.6135 33.9219 99.5338 33.9807 99.475C34.0395 99.4161 34.1193 99.383 34.2025 99.3828H37.7569C37.84 99.383 37.9197 99.4162 37.9784 99.475C38.0371 99.5339 38.0701 99.6136 38.0701 99.6967C38.0699 99.7797 38.0368 99.8593 37.9781 99.9179C37.9195 99.9766 37.8399 100.01 37.7569 100.01Z" fill="#B7D3F3"/>
<path id="Vector_30" d="M37.7569 109.971H34.2025C34.1193 109.971 34.0395 109.937 33.9807 109.879C33.9219 109.82 33.8887 109.74 33.8885 109.657C33.8887 109.574 33.9219 109.494 33.9808 109.435C34.0396 109.377 34.1193 109.344 34.2025 109.344H37.7569C37.8399 109.344 37.9195 109.377 37.9781 109.436C38.0368 109.494 38.0699 109.574 38.0701 109.657C38.0701 109.74 38.0371 109.82 37.9784 109.879C37.9197 109.937 37.84 109.971 37.7569 109.971Z" fill="#B7D3F3"/>
<path id="Vector_31" d="M133.468 15.2578H119.716C119.082 15.2578 118.568 15.7716 118.568 16.4053V29.6792C118.568 30.313 119.082 30.8267 119.716 30.8267H133.468C134.102 30.8267 134.616 30.313 134.616 29.6792V16.4053C134.616 15.7716 134.102 15.2578 133.468 15.2578Z" fill="#C0D8FB"/>
<path id="Vector_32" d="M132.873 15.9336H120.312C119.733 15.9336 119.263 16.403 119.263 16.982V29.1053C119.263 29.6843 119.733 30.1537 120.312 30.1537H132.873C133.452 30.1537 133.921 29.6843 133.921 29.1053V16.982C133.921 16.403 133.452 15.9336 132.873 15.9336Z" fill="#DFEBFD"/>
<path id="Vector_33" d="M126.592 17.6885C126.776 17.6885 126.925 17.5397 126.925 17.356C126.925 17.1723 126.776 17.0234 126.592 17.0234C126.408 17.0234 126.26 17.1723 126.26 17.356C126.26 17.5397 126.408 17.6885 126.592 17.6885Z" fill="#B7D3F3"/>
<path id="Vector_34" d="M128.942 17.823C128.974 17.7656 129.023 17.7189 129.081 17.6889C129.14 17.6589 129.206 17.647 129.271 17.6546C129.337 17.6621 129.398 17.6889 129.448 17.7315C129.498 17.774 129.535 17.8305 129.553 17.8937C129.571 17.957 129.57 18.0241 129.55 18.0867C129.529 18.1493 129.491 18.2046 129.44 18.2454C129.388 18.2863 129.326 18.311 129.26 18.3163C129.195 18.3217 129.129 18.3075 129.071 18.2756C129.033 18.2544 129 18.2258 128.972 18.1916C128.945 18.1573 128.925 18.1181 128.913 18.0761C128.901 18.034 128.898 17.99 128.903 17.9466C128.908 17.9032 128.921 17.8612 128.942 17.823Z" fill="#B7D3F3"/>
<path id="Vector_35" d="M131.241 19.6509C131.296 19.6152 131.36 19.5967 131.426 19.5977C131.492 19.5987 131.556 19.6192 131.61 19.6567C131.664 19.6941 131.706 19.7467 131.73 19.8079C131.754 19.8691 131.76 19.9361 131.746 20.0004C131.732 20.0647 131.699 20.1235 131.652 20.1692C131.605 20.215 131.545 20.2457 131.48 20.2574C131.416 20.2692 131.349 20.2615 131.289 20.2353C131.228 20.209 131.177 20.1655 131.141 20.1102C131.118 20.0735 131.101 20.0326 131.094 19.9896C131.086 19.9467 131.086 19.9026 131.096 19.86C131.105 19.8173 131.122 19.7769 131.147 19.741C131.172 19.7051 131.204 19.6745 131.241 19.6509Z" fill="#B7D3F3"/>
<path id="Vector_36" d="M132.379 22.4765C132.445 22.4765 132.509 22.496 132.564 22.5326C132.619 22.5692 132.661 22.6212 132.686 22.682C132.712 22.7428 132.718 22.8097 132.705 22.8742C132.692 22.9387 132.661 22.998 132.614 23.0445C132.567 23.091 132.508 23.1226 132.443 23.1353C132.379 23.1481 132.312 23.1414 132.251 23.1161C132.191 23.0908 132.139 23.0481 132.102 22.9933C132.066 22.9385 132.046 22.8741 132.047 22.8083C132.047 22.7647 132.055 22.7215 132.072 22.6812C132.089 22.6409 132.113 22.6042 132.144 22.5734C132.175 22.5426 132.212 22.5182 132.252 22.5015C132.292 22.4849 132.335 22.4764 132.379 22.4765Z" fill="#B7D3F3"/>
<path id="Vector_37" d="M131.797 25.7576C131.844 25.804 131.875 25.8632 131.888 25.9275C131.901 25.9918 131.894 26.0585 131.869 26.1191C131.844 26.1797 131.801 26.2315 131.747 26.2679C131.692 26.3043 131.628 26.3238 131.563 26.3238C131.497 26.3238 131.433 26.3043 131.378 26.2679C131.324 26.2315 131.281 26.1797 131.256 26.1191C131.231 26.0585 131.224 25.9918 131.237 25.9275C131.25 25.8632 131.281 25.804 131.328 25.7576C131.358 25.7267 131.395 25.7022 131.435 25.6855C131.476 25.6688 131.519 25.6602 131.563 25.6602C131.606 25.6602 131.649 25.6688 131.69 25.6855C131.73 25.7022 131.767 25.7267 131.797 25.7576Z" fill="#B7D3F3"/>
<path id="Vector_38" d="M129.71 27.8478C129.757 27.8943 129.789 27.9536 129.801 28.0181C129.814 28.0826 129.808 28.1494 129.782 28.2102C129.757 28.2709 129.715 28.3229 129.66 28.3594C129.605 28.3959 129.541 28.4154 129.475 28.4154C129.409 28.4154 129.345 28.3959 129.29 28.3594C129.236 28.3229 129.193 28.2709 129.168 28.2102C129.143 28.1494 129.136 28.0826 129.149 28.0181C129.162 27.9536 129.193 27.8943 129.24 27.8478C129.271 27.8168 129.307 27.7922 129.348 27.7754C129.388 27.7586 129.431 27.75 129.475 27.75C129.519 27.75 129.562 27.7586 129.603 27.7754C129.643 27.7922 129.68 27.8168 129.71 27.8478Z" fill="#B7D3F3"/>
<path id="Vector_39" d="M126.26 28.9263C126.26 28.8605 126.28 28.7962 126.316 28.7415C126.353 28.6868 126.405 28.6441 126.466 28.619C126.527 28.5938 126.593 28.5873 126.658 28.6002C126.722 28.6131 126.782 28.6448 126.828 28.6914C126.875 28.738 126.906 28.7973 126.919 28.8619C126.932 28.9264 126.925 28.9933 126.9 29.0541C126.875 29.1148 126.832 29.1667 126.777 29.2032C126.722 29.2396 126.658 29.259 126.592 29.2589C126.548 29.2589 126.505 29.2503 126.465 29.2335C126.425 29.2168 126.388 29.1923 126.357 29.1614C126.326 29.1305 126.302 29.0939 126.285 29.0535C126.269 29.0132 126.26 28.9699 126.26 28.9263Z" fill="#B7D3F3"/>
<path id="Vector_40" d="M124.232 17.823C124.2 17.7656 124.152 17.7189 124.093 17.6889C124.035 17.6589 123.969 17.647 123.903 17.6546C123.838 17.6621 123.776 17.6889 123.726 17.7315C123.676 17.774 123.64 17.8305 123.622 17.8937C123.604 17.957 123.605 18.0241 123.625 18.0867C123.645 18.1493 123.683 18.2046 123.735 18.2454C123.787 18.2863 123.849 18.311 123.915 18.3163C123.98 18.3217 124.046 18.3075 124.103 18.2756C124.18 18.2326 124.237 18.1608 124.261 18.076C124.285 17.9911 124.275 17.9002 124.232 17.823Z" fill="#B7D3F3"/>
<path id="Vector_41" d="M121.934 19.6509C121.879 19.6152 121.814 19.5967 121.748 19.5977C121.683 19.5987 121.619 19.6192 121.565 19.6567C121.51 19.6941 121.469 19.7467 121.444 19.8079C121.42 19.8691 121.415 19.9361 121.429 20.0004C121.443 20.0647 121.475 20.1235 121.522 20.1692C121.57 20.215 121.63 20.2457 121.694 20.2574C121.759 20.2692 121.826 20.2615 121.886 20.2353C121.946 20.209 121.998 20.1655 122.033 20.1102C122.081 20.0361 122.097 19.9461 122.079 19.86C122.06 19.7739 122.008 19.6987 121.934 19.6509Z" fill="#B7D3F3"/>
<path id="Vector_42" d="M120.796 22.4765C120.73 22.4765 120.665 22.496 120.611 22.5326C120.556 22.5692 120.513 22.6212 120.488 22.682C120.463 22.7428 120.457 22.8097 120.469 22.8742C120.482 22.9387 120.514 22.998 120.561 23.0445C120.607 23.091 120.667 23.1226 120.731 23.1353C120.796 23.1481 120.863 23.1414 120.923 23.1161C120.984 23.0908 121.036 23.0481 121.072 22.9933C121.109 22.9385 121.128 22.8741 121.128 22.8083C121.128 22.7202 121.093 22.6358 121.03 22.5736C120.968 22.5114 120.884 22.4765 120.796 22.4765Z" fill="#B7D3F3"/>
<path id="Vector_43" d="M121.377 25.754C121.331 25.8004 121.299 25.8596 121.287 25.9239C121.274 25.9882 121.28 26.0549 121.306 26.1155C121.331 26.1761 121.373 26.2279 121.428 26.2643C121.482 26.3007 121.546 26.3202 121.612 26.3202C121.678 26.3202 121.742 26.3007 121.796 26.2643C121.851 26.2279 121.893 26.1761 121.919 26.1155C121.944 26.0549 121.95 25.9882 121.938 25.9239C121.925 25.8596 121.893 25.8004 121.847 25.754C121.816 25.723 121.78 25.6984 121.739 25.6817C121.699 25.6649 121.656 25.6562 121.612 25.6562C121.568 25.6562 121.525 25.6649 121.485 25.6817C121.445 25.6984 121.408 25.723 121.377 25.754Z" fill="#B7D3F3"/>
<path id="Vector_44" d="M123.699 28.4151C123.883 28.4151 124.032 28.2662 124.032 28.0826C124.032 27.8989 123.883 27.75 123.699 27.75C123.515 27.75 123.366 27.8989 123.366 28.0826C123.366 28.2662 123.515 28.4151 123.699 28.4151Z" fill="#B7D3F3"/>
<path id="Vector_45" d="M126.503 22.8091C126.503 22.7433 126.522 22.679 126.559 22.6244C126.595 22.5697 126.647 22.527 126.708 22.5019C126.769 22.4767 126.836 22.4701 126.9 22.483C126.965 22.4958 127.024 22.5275 127.07 22.574C127.117 22.6205 127.149 22.6797 127.161 22.7442C127.174 22.8087 127.168 22.8756 127.142 22.9364C127.117 22.9971 127.075 23.0491 127.02 23.0856C126.965 23.1222 126.901 23.1417 126.835 23.1417C126.747 23.1417 126.662 23.1066 126.6 23.0443C126.538 22.9819 126.503 22.8973 126.503 22.8091Z" fill="#B7D3F3"/>
<path id="Vector_46" d="M126.881 18.6562H126.79V22.8095H126.881V18.6562Z" fill="#B7D3F3"/>
<path id="Vector_47" d="M128.912 20.9709L126.71 22.6992L126.878 22.9133L129.08 21.185L128.912 20.9709Z" fill="#B7D3F3"/>
<path id="Vector_48" d="M92.6537 81.499C90.6017 85.0706 88.0211 86.4485 88.0211 86.4485H77.2839C77.2839 86.4485 94.2188 78.7752 92.6537 81.499Z" fill="#233862"/>
<path id="Vector_49" d="M105.895 116.977C105.78 118.103 107.347 118.393 109.164 118.504C110.981 118.615 110.431 118.981 112.914 119.459C115.397 119.937 116.407 119.266 116.591 118.931C116.754 118.633 115.601 118.155 114.372 117.613C114.218 117.545 114.062 117.476 113.908 117.406C112.525 116.78 111.758 115.526 110.688 114.359C109.674 113.254 108.737 109.736 108.737 109.736L105.359 108.977C105.359 108.977 106.276 112.14 106.591 113.49C106.777 114.284 106.481 115.166 106.218 115.837C106.079 116.206 105.937 116.58 105.895 116.977Z" fill="#A56F4A"/>
<path id="Vector_50" d="M109.164 118.507C110.981 118.617 110.431 118.984 112.914 119.462C115.397 119.94 116.407 119.268 116.591 118.934C116.754 118.635 115.601 118.157 114.372 117.616L114.352 117.637C113.118 117.979 111.814 117.981 110.578 117.641C108.938 117.176 107.352 116.174 106.22 115.844C106.079 116.209 105.936 116.583 105.895 116.979C105.78 118.106 107.346 118.397 109.164 118.507Z" fill="#0F2549"/>
<path id="Vector_51" d="M100.778 77.8426C98.9603 76.5668 86.9361 74.2911 80.7995 73.6327L74.0142 67.7422C74.0142 67.7422 68.2407 76.2932 68.1982 82.8346C68.1774 85.8843 69.5821 86.19 69.5821 86.19C69.5821 86.19 91.3242 86.3518 92.2771 86.4495C93.837 86.6106 95.8942 90.4968 96.4087 94.0364C96.9232 97.5759 105.991 111.973 105.991 111.973C105.991 111.973 107.882 112.579 108.756 112.527C109.696 112.472 110.131 112.155 110.131 112.155C110.131 112.155 104.877 80.7215 100.778 77.8426Z" fill="#233862"/>
<path id="Vector_52" d="M100.272 116.977C100.156 118.103 101.723 118.393 103.54 118.504C105.357 118.615 104.804 118.981 107.291 119.459C109.777 119.937 110.783 119.266 110.967 118.931C111.131 118.633 109.977 118.155 108.748 117.613C108.594 117.545 108.439 117.476 108.285 117.406C106.901 116.78 106.135 115.526 105.064 114.359C104.05 113.254 103.114 109.736 103.114 109.736L99.7351 108.977C99.7351 108.977 100.652 112.14 100.968 113.49C101.153 114.284 100.857 115.166 100.595 115.837C100.455 116.206 100.313 116.58 100.272 116.977Z" fill="#A56F4A"/>
<path id="Vector_53" d="M103.54 118.507C105.357 118.617 104.804 118.984 107.291 119.462C109.777 119.94 110.783 119.268 110.967 118.934C111.131 118.635 109.977 118.157 108.748 117.616L108.729 117.637C107.494 117.979 106.19 117.981 104.954 117.641C103.314 117.176 101.728 116.174 100.596 115.844C100.455 116.209 100.313 116.583 100.272 116.979C100.156 118.106 101.723 118.397 103.54 118.507Z" fill="#233862"/>
<path id="Vector_54" d="M95.1047 77.8417C93.5255 76.7329 88.7758 75.8732 83.5332 75.2319C82.825 75.1453 82.1597 74.8459 81.6252 74.3733C81.0907 73.9008 80.7121 73.2772 80.5394 72.5849L68.3445 67.7383C68.3445 67.7383 62.5718 76.2893 62.5286 82.8307C62.5077 85.8804 63.9125 86.1861 63.9125 86.1861C63.9125 86.1861 85.6545 86.3479 86.6074 86.4456C88.1673 86.6067 90.2253 90.4929 90.739 94.0325C91.2528 97.572 100.32 111.968 100.32 111.968C100.32 111.968 102.211 112.574 103.085 112.523C104.026 112.468 104.46 112.15 104.46 112.15C104.46 112.15 99.2057 80.7206 95.1047 77.8417Z" fill="#2B478B"/>
<path id="Vector_55" d="M78.7863 32.2195C77.1101 31.3389 74.5608 31.2203 74.1462 31.1644C69.1892 30.4985 66.2059 37.7014 66.03 39.8839C65.7071 43.9103 63.5791 44.5203 60.5868 47.042C54.5807 52.0937 56.3419 57.9641 59.6264 60.1458C61.5964 61.4544 65.0696 60.1458 65.0696 60.1458C65.1188 60.1801 74.569 54.863 79.227 52.298C86.2077 51.3026 83.0566 34.4623 78.7863 32.2195Z" fill="#233862"/>
<path id="Vector_56" d="M77.7522 49.8147C77.7746 49.8258 75.5496 50.8377 73.9443 50.3068C72.4336 49.8094 71.1034 47.5352 71.1243 47.5315C71.7804 47.4368 72.4463 46.7896 72.6327 42.957L72.9227 43.0316L77.8059 44.2641C77.8059 44.2641 77.6128 45.8106 77.533 47.2728C77.4644 48.5009 77.4786 49.6708 77.7522 49.8147Z" fill="#A56F4A"/>
<path id="Vector_57" d="M77.8058 44.2656C77.8058 44.2656 77.8058 44.5839 77.6231 46.0223C74.8643 45.3259 73.6452 44.411 72.7869 43.3633L77.8058 44.2656Z" fill="#68432A"/>
<path id="Vector_58" d="M78.8498 44.4596C78.8498 44.4596 72.3941 45.5109 71.802 41.477C71.21 37.4431 69.9767 34.8684 74.0732 34.0266C78.1698 33.1848 79.1988 34.6052 79.7237 35.9026C80.2486 37.2 80.5096 44.0793 78.8498 44.4596Z" fill="#A56F4A"/>
<path id="Vector_59" d="M78.8496 33.8633C78.8496 33.8633 75.9185 38.4908 73.3013 39.5869C70.6842 40.6829 69.3987 40.126 69.3987 40.126C70.1837 38.8343 70.6946 37.395 70.8997 35.8974C70.9431 35.5465 71.0797 35.2136 71.2951 34.9332C71.5104 34.6528 71.7969 34.435 72.1247 34.3025C74.003 33.5479 77.638 32.3616 78.8496 33.8633Z" fill="#233862"/>
<path id="Vector_60" d="M76.2773 34.3116C76.2773 34.3116 77.9923 35.1922 78.7029 36.0176C79.3859 36.8147 80.1748 38.9763 80.1196 39.9471C80.1196 39.9471 80.9674 35.2951 79.2017 33.6957C77.3279 32.0001 76.2773 34.3116 76.2773 34.3116Z" fill="#233862"/>
<path id="Vector_61" d="M82.9163 59.6628C82.721 72.786 82.8626 70.0421 81.425 71.2873C81.0791 71.5855 80.1075 71.766 78.8272 71.8502C74.8008 72.1172 67.7314 71.455 67.4622 70.7109C66.5339 68.1384 67.1893 67.3391 66.4183 63.3999C66.3371 62.9809 66.2371 62.5275 66.1201 62.0339C65.4744 59.3287 64.8465 58.4079 67.1364 54.0623C69.2137 50.1253 71.6564 46.9265 71.8503 47.0421C77.33 50.2953 77.5172 47.5685 77.5172 47.5685C77.5172 47.5685 83.0125 53.2607 82.9163 59.6628Z" fill="white"/>
<path id="Vector_62" d="M77.5173 47.5664C77.5173 47.5664 83.126 48.5171 83.7881 50.9449C84.4503 53.3727 88.3462 67.6472 88.3462 67.6472C88.3462 67.6472 85.48 68.1624 84.1558 66.8382C82.8315 65.5139 79.5477 54.5523 79.5477 54.5523L77.5173 47.5664Z" fill="white"/>
<path id="Vector_63" d="M78.8296 71.8479C74.8031 72.1149 67.7337 71.4528 67.4645 70.7086C66.5362 68.1362 67.1916 67.3368 66.4207 63.3976L68.3593 57.9336C68.3593 57.9336 68.0387 64.0187 69.8334 65.6189C71.6282 67.219 77.1809 68.7088 78.0533 70.0457C78.4724 70.6877 78.749 71.3312 78.8296 71.8479Z" fill="#EBF3FF"/>
<path id="Vector_64" d="M74.22 69.2902C74.22 69.2902 78.189 68.4067 78.8295 68.7586C79.47 69.1105 81.0358 70.3938 81.2312 70.8404C81.4266 71.2871 79.8055 70.5012 79.2784 70.3595C78.9361 70.2678 78.0369 70.5832 77.5917 70.7323C75.7187 71.3564 74.5704 71.035 74.5704 71.035L74.22 69.2902Z" fill="#A56F4A"/>
<path id="Vector_65" d="M71.8496 47.0391C71.8496 47.0391 66.232 47.3671 64.3865 49.9403C61.7894 53.5634 56.6371 69.0018 59.5898 71.0605C62.9154 73.3795 74.7263 71.6667 74.7263 71.6667C74.7263 71.6667 75.1192 69.8302 74.5719 68.9414C74.0246 68.0526 65.1403 66.618 64.7295 66.2079C64.3186 65.7978 69.855 58.211 69.855 56.9807C69.855 55.7503 71.8496 47.0391 71.8496 47.0391Z" fill="white"/>
<path id="Vector_66" d="M79.022 69.8633C79.022 69.8633 79.8534 70.9355 80.1263 71.0638C80.3992 71.192 80.5736 71.1599 80.5736 71.1599L80.0129 70.1511L79.022 69.8633Z" fill="#A56F4A"/>
<path id="Vector_67" d="M78.8296 68.7617L81.2477 69.9361C81.2477 69.9361 81.1448 70.1046 80.8473 70.0904C80.5498 70.0763 79.7989 69.8026 79.7989 69.8026L78.8296 68.7617Z" fill="#A56F4A"/>
<path id="Vector_68" d="M87.7376 71.5432H76.5068C76.5068 71.3059 76.6011 71.0783 76.7689 70.9105C76.9367 70.7427 77.1643 70.6484 77.4016 70.6484H87.7376V71.5432Z" fill="#ED7D2B"/>
<path id="Vector_69" d="M87.705 59.3125H105.069L100.903 71.5439H83.428L87.705 59.3125Z" fill="#ED7D2B"/>
<path id="Vector_70" d="M105.324 59.3125L101.159 71.5439H83.6836L87.9606 59.3125H105.324Z" fill="#F99746"/>
<path id="Vector_71" d="M95.9629 65.315C95.8555 65.7826 95.3887 66.1613 94.919 66.1613C94.4492 66.1613 94.1607 65.7826 94.2688 65.315C94.3769 64.8475 94.8429 64.4688 95.3127 64.4688C95.7824 64.4688 96.074 64.8475 95.9629 65.315Z" fill="white"/>
<path id="Vector_72" d="M148.717 71.543H72.6253C72.3053 71.543 72.0459 71.8024 72.0459 72.1223V73.715C72.0459 74.035 72.3053 74.2944 72.6253 74.2944H148.717C149.037 74.2944 149.296 74.035 149.296 73.715V72.1223C149.296 71.8024 149.037 71.543 148.717 71.543Z" fill="#182D4F"/>
<path id="Vector_73" d="M150.58 119.622H150.613C150.705 119.611 150.793 119.583 150.874 119.538C150.955 119.494 151.026 119.433 151.083 119.361C151.14 119.289 151.183 119.206 151.208 119.117C151.233 119.028 151.241 118.935 151.23 118.844L144.449 72.9453L141.967 73.0199L149.945 119.167C149.973 119.31 150.055 119.436 150.173 119.52C150.291 119.604 150.436 119.641 150.58 119.622Z" fill="#182D4F"/>
<path id="Vector_74" d="M70.0772 119.622H70.0444C69.9527 119.611 69.864 119.583 69.7833 119.538C69.7026 119.494 69.6315 119.433 69.5742 119.361C69.5169 119.289 69.4745 119.206 69.4493 119.117C69.4242 119.028 69.4169 118.935 69.4278 118.844L76.2086 72.9453L78.6908 73.0199L70.7125 119.167C70.6844 119.31 70.603 119.436 70.4849 119.52C70.3668 119.605 70.221 119.641 70.0772 119.622Z" fill="#182D4F"/>
<path id="Vector_75" d="M85.7745 119.622H85.7417C85.6501 119.611 85.5614 119.583 85.4807 119.538C85.4001 119.493 85.3291 119.433 85.2718 119.361C85.2145 119.289 85.1722 119.206 85.1471 119.117C85.1221 119.028 85.1148 118.935 85.1258 118.844L91.9059 72.9453L94.3889 73.0199L86.4106 119.167C86.3821 119.31 86.3005 119.436 86.1824 119.52C86.0642 119.605 85.9184 119.641 85.7745 119.622Z" fill="#182D4F"/>
<path id="Vector_76" d="M211.026 119.188H0.287816C0.12886 119.188 0 119.316 0 119.475V119.712C0 119.871 0.12886 120 0.287816 120H211.026C211.185 120 211.314 119.871 211.314 119.712V119.475C211.314 119.316 211.185 119.188 211.026 119.188Z" fill="#2E3552"/>
<path id="Vector_77" d="M125.778 119.584H139.234C139.881 118.794 139.642 115.88 139.545 114.929C139.524 114.737 139.51 114.625 139.51 114.625C139.51 114.625 134.916 110.95 134.284 113.764C134.265 113.852 134.242 113.938 134.216 114.023C133.421 116.655 129.854 117.852 127.795 118.185C126.456 118.402 125.961 119.098 125.778 119.584Z" fill="#233862"/>
<path id="Vector_78" d="M162.493 75.8635C162.007 75.8635 139.445 80.0994 135.713 84.7194C133.849 87.0309 133.571 113.681 133.571 113.681C133.571 113.681 135.878 116.54 140.859 114.88C140.859 114.88 144.513 96.6444 144.242 91.1133C144.168 89.584 159.658 90.8896 162.493 90.1581C165.329 89.4266 172.256 83.2565 170.729 80.2523C169.202 77.2481 162.493 75.8635 162.493 75.8635Z" fill="#233862"/>
<path id="Vector_79" d="M135.809 69.3359C135.809 69.3359 131.261 69.3971 130.182 69.8579C129.103 70.3187 126.922 71.3775 127.506 71.54C128.091 71.7026 130.879 71.4737 131.481 71.5654C132.084 71.6571 132.823 71.54 133.196 71.54H135.284L135.809 69.3359Z" fill="#A56F4A"/>
<path id="Vector_80" d="M130.488 58.4163C130.488 58.4163 128.936 57.3075 127.431 57.092C126.572 56.969 125.736 56.8162 125.231 56.638C123.841 56.1481 121.056 53.6472 121.27 53.3571C121.941 52.4169 125.192 54.407 125.758 54.193C126.325 53.979 124.669 52.8016 125.245 52.3878C125.544 52.1716 126.25 53.2557 126.825 53.3646C127.604 53.5137 128.213 54.6113 128.447 54.6687C128.904 54.7806 130.901 56.2666 130.901 56.2666L130.488 58.4163Z" fill="#A56F4A"/>
<path id="Vector_81" d="M160.246 45.4648C160.246 45.4648 156.782 46.5386 153.368 55.9381C149.955 65.3376 148.658 65.8454 147.417 66.2145C146.176 66.5835 135.286 68.7496 135.286 68.7496V71.5391H152.067C152.067 71.5391 158.359 65.5531 160.246 61.5266C162.132 57.5002 160.246 45.4648 160.246 45.4648Z" fill="#E2AE19"/>
<path id="Vector_82" d="M119.832 119.584H133.287C133.934 118.794 133.695 115.88 133.598 114.929C133.577 114.737 133.564 114.625 133.564 114.625C133.564 114.625 128.969 110.95 128.338 113.764C128.318 113.852 128.295 113.938 128.27 114.023C127.474 116.655 123.908 117.852 121.848 118.185C120.509 118.402 120.014 119.098 119.832 119.584Z" fill="#1B3051"/>
<path id="Vector_83" d="M155.844 75.8635C155.358 75.8635 132.796 80.0994 129.064 84.7194C127.2 87.0309 126.922 113.681 126.922 113.681C126.922 113.681 129.229 116.54 134.21 114.88C134.21 114.88 137.864 96.6444 137.593 91.1133C137.519 89.584 153.009 90.8896 155.844 90.1581C158.68 89.4266 165.607 83.2565 164.08 80.2523C162.553 77.2481 155.844 75.8635 155.844 75.8635Z" fill="#2B478B"/>
<path id="Vector_84" d="M157.256 48.4463C158.879 48.3121 160.581 47.8796 162.052 47.4024C163.89 46.8059 165.373 45.9335 164.418 44.2536C163.537 42.7049 162.113 39.2444 162.209 36.3789L158.788 39.1378L156.464 41.0108C156.464 41.0108 156.474 42.1144 156.727 44.0493C156.774 44.402 156.828 44.783 156.892 45.1894C156.917 45.3503 156.895 45.5152 156.827 45.6634C156.759 45.8115 156.649 45.9364 156.51 46.0222C156.492 46.0327 156.475 46.0439 156.458 46.055C155.303 46.7783 155.896 48.5552 157.256 48.4463Z" fill="#A56F4A"/>
<path id="Vector_85" d="M156.464 40.5526C156.464 40.5526 156.345 40.9537 156.549 42.4338C158.621 42.096 160.558 40.4437 160.558 40.4437C159.503 40.1537 159.119 39.0143 158.334 39.1202L156.464 40.5526Z" fill="#68432A"/>
<path id="Vector_86" d="M154.548 40.8905C154.548 40.8905 162.517 42.2147 163.265 37.2368C164.013 32.259 165.546 29.0803 160.489 28.0245C155.432 26.9687 154.156 28.7187 153.502 30.3188C152.848 31.9189 152.493 40.4177 154.548 40.8905Z" fill="#A56F4A"/>
<path id="Vector_87" d="M152.33 28.1168C151.988 29.315 152.903 30.7742 154.441 31.2552C156.723 31.968 156.219 34.7679 157.246 34.7291C158.273 34.6903 158.687 33.12 159.605 34.3757C160.387 35.4464 158.954 36.7155 159.052 37.303C159.221 38.3111 160.801 40.3736 162.223 40.2699C163.646 40.1663 166.309 33.4041 165.776 31.3118C165.243 29.2196 163.113 27.0132 161.098 26.709C159.083 26.4048 156.282 27.2757 155.635 27.2757C154.989 27.2757 152.519 27.4696 152.33 28.1168Z" fill="#2B478B"/>
<path id="Vector_88" d="M170.835 52.3721C169.683 47.7358 166.499 42.8705 164.348 42.8749C160.681 42.8817 155.407 43.8495 153.278 49.1018C151.712 52.9701 149.618 75.2222 151.982 76.8045C157.386 80.4223 169.912 87.8078 172.137 80.2761C174.174 73.376 172.834 60.4183 170.835 52.3721Z" fill="#FFC727"/>
<path id="Vector_89" d="M161.926 47.7562C161.683 47.1229 161.295 46.5553 160.793 46.0989C160.291 45.6425 159.689 45.31 159.036 45.128C158.382 44.946 157.695 44.9196 157.03 45.0508C156.364 45.1821 155.739 45.4674 155.203 45.8839C153.958 46.8532 152.434 48.2319 150.592 50.1929C143.746 57.4823 142.355 57.4375 141.069 57.2869C139.784 57.1363 128.921 54.8308 128.921 54.8308C128.553 55.1214 128.252 55.4876 128.037 55.9045C127.6 56.7903 127.82 57.3958 127.82 57.3958C127.394 57.1214 131.671 60.0689 133.8 61.244C136.61 62.7957 140.845 64.2512 142.532 64.8037C143.01 64.9601 143.526 64.9522 143.999 64.7813C146.503 63.8791 154.912 60.5908 161.756 54.8845C163.559 53.3783 162.896 50.2802 161.926 47.7562Z" fill="#FFC727"/>
<path id="Vector_90" d="M164.716 42.9184L163.886 41.0469C163.886 41.0469 156.452 41.6531 155.202 45.8846C155.203 45.8846 160.965 43.0086 164.716 42.9184Z" fill="white"/>
<path id="Vector_91" d="M182.765 119.415H182.816C183.236 119.408 183.562 119.065 183.52 118.67L180.72 90.7031L178.277 90.9216L182.297 119.038C182.316 119.147 182.374 119.245 182.46 119.315C182.546 119.384 182.654 119.42 182.765 119.415Z" fill="#8CB4F4"/>
<path id="Vector_92" d="M168.351 119.415H168.402C168.822 119.408 169.148 119.065 169.107 118.67L166.306 90.7031L163.863 90.9216L167.884 119.038C167.903 119.147 167.96 119.245 168.046 119.315C168.132 119.384 168.24 119.42 168.351 119.415Z" fill="#8CB4F4"/>
<path id="Vector_93" d="M141.292 119.415H141.24C140.821 119.408 140.495 119.065 140.536 118.67L143.336 90.7031L145.78 90.9216L141.759 119.037C141.741 119.146 141.683 119.245 141.597 119.315C141.511 119.384 141.402 119.42 141.292 119.415Z" fill="#73A2E5"/>
<path id="Vector_94" d="M181.971 86.7421L184.629 63.3842C184.977 60.0176 183.851 56.7219 178.993 56.4669L170.448 55.945C165.383 55.7362 163.096 59.9513 162.455 63.1963L157.385 88.8731L181.971 86.7421Z" fill="#8CB4F4"/>
<path id="Vector_95" d="M142.617 86.6367H181.93V89.7281C181.93 90.0956 181.784 90.4479 181.525 90.7078C181.265 90.9676 180.912 91.1135 180.545 91.1135H142.617C142.25 91.1135 141.898 90.9676 141.638 90.7078C141.378 90.4479 141.232 90.0956 141.232 89.7281V88.0221C141.232 87.6547 141.378 87.3023 141.638 87.0425C141.898 86.7827 142.25 86.6367 142.617 86.6367Z" fill="#73A2E5"/>
<path id="Vector_96" d="M158.46 86.6367H181.93V90.0376C181.931 90.1792 181.903 90.3195 181.85 90.4505C181.796 90.5814 181.717 90.7005 181.617 90.8008C181.517 90.9011 181.398 90.9807 181.267 91.035C181.136 91.0893 180.996 91.1173 180.854 91.1173H158.46C158.175 91.1173 157.901 91.0039 157.699 90.8021C157.497 90.6003 157.384 90.3267 157.384 90.0413V87.7164C157.384 87.5748 157.411 87.4345 157.465 87.3035C157.519 87.1725 157.598 87.0535 157.698 86.9532C157.798 86.8529 157.917 86.7733 158.047 86.719C158.178 86.6647 158.318 86.6367 158.46 86.6367Z" fill="#8CB4F4"/>
</g>
<defs>
<clipPath id="clip0_292_3177">
<rect width="211.314" height="120" fill="white"/>
</clipPath>
</defs>
</svg>
