<svg width="26" height="22" viewBox="0 0 26 22" fill="none" xmlns="http://www.w3.org/2000/svg">
<path d="M3.20932 1.85233L4.36621 0.657715L23.4043 20.3165L22.2474 21.5111L3.20932 1.85233ZM13.4825 7.61335L16.668 10.9026C16.6237 10.0451 16.2739 9.23474 15.6858 8.6275C15.0978 8.02026 14.313 7.65904 13.4825 7.61335ZM13.1312 14.5547L9.94579 11.2654C9.99004 12.123 10.3399 12.9333 10.9279 13.5405C11.516 14.1478 12.3008 14.509 13.1312 14.5547Z" fill="black"/>
<path d="M13.3069 16.2974C12.5302 16.2974 11.7639 16.1124 11.0678 15.7567C10.3716 15.4011 9.76431 14.8844 9.29311 14.2468C8.82191 13.6092 8.49952 12.868 8.35103 12.0807C8.20253 11.2935 8.23194 10.4815 8.43696 9.70792L4.8045 5.95648C3.32091 7.35974 1.90727 9.19093 0.685059 11.084C2.07451 13.4735 3.97515 15.9303 5.95467 17.339C8.22554 18.954 10.6947 19.7729 13.2943 19.7729C14.7149 19.7739 16.1249 19.5204 17.4616 19.0235L14.6422 16.1127C14.2071 16.2357 13.758 16.2978 13.3069 16.2974ZM13.3069 5.87068C14.0836 5.87064 14.8498 6.05565 15.546 6.41131C16.2421 6.76696 16.8494 7.28368 17.3206 7.92126C17.7918 8.55884 18.1142 9.30008 18.2627 10.0873C18.4112 10.8745 18.3818 11.6865 18.1768 12.4601L21.8929 16.2974C23.4259 14.8718 24.8416 12.9543 25.9287 11.084C24.5413 8.72553 22.6207 6.27471 20.6075 4.84865C18.3083 3.22056 15.8475 2.39512 13.2943 2.39512C11.8893 2.3972 10.4961 2.66005 9.18112 3.17114L11.9742 6.05532C12.4085 5.93259 12.8567 5.87049 13.3069 5.87068Z" fill="black"/>
</svg>
