<svg width="137" height="137" viewBox="0 0 137 137" fill="none" xmlns="http://www.w3.org/2000/svg">
<g id="Group 1000002352">
<circle id="Ellipse 39" cx="3.94503" cy="3.94503" r="3.94503" fill="#0266F4"/>
<circle id="Ellipse 45" cx="3.94503" cy="29.7653" r="3.94503" fill="#0266F4"/>
<circle id="Ellipse 51" cx="3.94503" cy="55.5896" r="3.94503" fill="#0266F4"/>
<circle id="Ellipse 57" cx="3.94503" cy="81.4099" r="3.94503" fill="#0266F4"/>
<circle id="Ellipse 63" cx="3.94503" cy="107.234" r="3.94503" fill="#0266F4"/>
<circle id="Ellipse 69" cx="3.94503" cy="133.054" r="3.94503" fill="#0266F4"/>
<circle id="Ellipse 40" cx="29.767" cy="3.94503" r="3.94503" fill="#0266F4"/>
<circle id="Ellipse 46" cx="29.767" cy="29.7653" r="3.94503" fill="#0266F4"/>
<circle id="Ellipse 52" cx="29.767" cy="55.5896" r="3.94503" fill="#0266F4"/>
<circle id="Ellipse 58" cx="29.767" cy="81.4099" r="3.94503" fill="#0266F4"/>
<circle id="Ellipse 64" cx="29.767" cy="107.234" r="3.94503" fill="#0266F4"/>
<circle id="Ellipse 70" cx="29.767" cy="133.054" r="3.94503" fill="#0266F4"/>
<circle id="Ellipse 41" cx="55.589" cy="3.94503" r="3.94503" fill="#0266F4"/>
<circle id="Ellipse 47" cx="55.5891" cy="29.7653" r="3.94503" fill="#0266F4"/>
<circle id="Ellipse 53" cx="55.5891" cy="55.5896" r="3.94503" fill="#0266F4"/>
<circle id="Ellipse 59" cx="55.5891" cy="81.4099" r="3.94503" fill="#0266F4"/>
<circle id="Ellipse 65" cx="55.5891" cy="107.234" r="3.94503" fill="#0266F4"/>
<circle id="Ellipse 71" cx="55.5891" cy="133.054" r="3.94503" fill="#0266F4"/>
<circle id="Ellipse 42" cx="81.411" cy="3.94503" r="3.94503" fill="#0266F4"/>
<circle id="Ellipse 48" cx="81.4111" cy="29.7653" r="3.94503" fill="#0266F4"/>
<circle id="Ellipse 54" cx="81.4111" cy="55.5896" r="3.94503" fill="#0266F4"/>
<circle id="Ellipse 60" cx="81.4111" cy="81.4099" r="3.94503" fill="#0266F4"/>
<circle id="Ellipse 66" cx="81.4111" cy="107.234" r="3.94503" fill="#0266F4"/>
<circle id="Ellipse 72" cx="81.4111" cy="133.054" r="3.94503" fill="#0266F4"/>
<circle id="Ellipse 43" cx="107.233" cy="3.94503" r="3.94503" fill="#0266F4"/>
<circle id="Ellipse 49" cx="107.233" cy="29.7653" r="3.94503" fill="#0266F4"/>
<circle id="Ellipse 55" cx="107.233" cy="55.5896" r="3.94503" fill="#0266F4"/>
<circle id="Ellipse 61" cx="107.233" cy="81.4099" r="3.94503" fill="#0266F4"/>
<circle id="Ellipse 67" cx="107.233" cy="107.234" r="3.94503" fill="#0266F4"/>
<circle id="Ellipse 73" cx="107.233" cy="133.054" r="3.94503" fill="#0266F4"/>
<circle id="Ellipse 44" cx="133.055" cy="3.94503" r="3.94503" fill="#0266F4"/>
<circle id="Ellipse 50" cx="133.055" cy="29.7653" r="3.94503" fill="#0266F4"/>
<circle id="Ellipse 56" cx="133.055" cy="55.5896" r="3.94503" fill="#0266F4"/>
<circle id="Ellipse 62" cx="133.055" cy="81.4099" r="3.94503" fill="#0266F4"/>
<circle id="Ellipse 68" cx="133.055" cy="107.234" r="3.94503" fill="#0266F4"/>
<circle id="Ellipse 74" cx="133.055" cy="133.054" r="3.94503" fill="#0266F4"/>
</g>
</svg>
