<svg width="21" height="18" viewBox="0 0 21 18" fill="none" xmlns="http://www.w3.org/2000/svg">
<path d="M2.61307 1.54201L3.53138 0.59375L18.6433 16.1984L17.725 17.1467L2.61307 1.54201ZM10.7677 6.11495L13.2962 8.72591C13.2611 8.04521 12.9834 7.40197 12.5166 6.91996C12.0498 6.43795 11.4269 6.15123 10.7677 6.11495ZM10.4888 11.6248L7.96031 9.01386C7.99543 9.69456 8.27311 10.3378 8.7399 10.8198C9.20669 11.3018 9.82961 11.5885 10.4888 11.6248Z" fill="black"/>
<path d="M10.6282 13.0081C10.0117 13.0081 9.4035 12.8613 8.85091 12.579C8.29831 12.2967 7.81625 11.8865 7.44222 11.3804C7.0682 10.8743 6.81229 10.2859 6.69442 9.66105C6.57655 9.03616 6.5999 8.39162 6.76263 7.77757L3.87929 4.79978C2.70165 5.91365 1.57954 7.3672 0.609375 8.86989C1.71229 10.7666 3.22096 12.7167 4.79225 13.8349C6.59482 15.1169 8.55476 15.7669 10.6182 15.7669C11.7459 15.7677 12.8651 15.5665 13.9261 15.1721L11.6882 12.8615C11.3428 12.9592 10.9863 13.0084 10.6282 13.0081ZM10.6282 4.73167C11.2448 4.73164 11.853 4.87849 12.4056 5.1608C12.9582 5.44312 13.4402 5.85327 13.8143 6.35937C14.1883 6.86546 14.4442 7.45384 14.5621 8.07872C14.6799 8.70361 14.6566 9.34815 14.4939 9.9622L17.4436 13.0081C18.6605 11.8766 19.7842 10.3545 20.6471 8.86989C19.5459 6.99777 18.0213 5.05238 16.4233 3.9204C14.5982 2.62807 12.645 1.97285 10.6182 1.97285C9.50298 1.97451 8.39709 2.18316 7.35333 2.58885L9.57042 4.87823C9.91511 4.78081 10.2709 4.73152 10.6282 4.73167Z" fill="black"/>
</svg>
