<svg width="41" height="41" viewBox="0 0 41 41" fill="none" xmlns="http://www.w3.org/2000/svg">
<path d="M23.1737 21.845H22.7221V22.2967V35.2817H15.0225V22.2967V21.845H14.5708H8.5703V16.4252H14.5708H15.0225V15.9735V11.5473C15.0225 9.29082 15.9863 7.56954 17.6358 6.3967C19.3022 5.21178 21.6968 4.5693 24.5566 4.5693C26.943 4.5693 29.2174 4.68159 30.2496 4.75542V9.19873H27.4752C25.3058 9.19873 24.0543 9.57774 23.3784 10.3155C22.7208 11.0333 22.7215 11.9837 22.722 12.7459C22.7221 12.7681 22.7221 12.7901 22.7221 12.812V15.9735V16.4252H23.1737H30.0706L28.2271 21.845H23.1737Z" fill="black" stroke="black" stroke-width="0.903305"/>
<rect x="1.34374" y="0.956261" width="38.8421" height="38.8421" rx="10.8397" stroke="black" stroke-width="0.903305"/>
</svg>
