<svg width="164" height="120" viewBox="0 0 164 120" fill="none" xmlns="http://www.w3.org/2000/svg">
<g id="Frame" clip-path="url(#clip0_292_3070)">
<g id="Group">
<g id="Background">
<path id="Vector" d="M143.898 61.9191C127.273 69.4687 133.564 78.0647 136.877 87.1306C139.397 94.0266 140.195 101.198 127.874 108.39L11.4874 107.603C5.91894 101.898 0.688596 96.0348 0.130759 89.0036C-0.636887 79.3487 2.19406 69.7283 5.53014 63.6712C19.7356 37.8769 60.3722 0.0981825 113.171 0.000159145C168.268 -0.101397 173.596 48.4308 143.898 61.9191Z" fill="url(#paint0_linear_292_3070)"/>
<path id="Vector_2" d="M78.1479 10.492H1.65368C1.04574 10.492 0.552917 10.9297 0.552917 11.4696V57.507C0.552917 58.0469 1.04574 58.4846 1.65368 58.4846H78.1479C78.7558 58.4846 79.2486 58.0469 79.2486 57.507V11.4696C79.2486 10.9297 78.7558 10.492 78.1479 10.492Z" fill="url(#paint1_linear_292_3070)"/>
<path id="Vector_3" d="M76.3531 12.5508H3.44853C3.08553 12.5508 2.79126 12.8121 2.79126 13.1345V55.8409C2.79126 56.1633 3.08553 56.4246 3.44853 56.4246H76.3531C76.7161 56.4246 77.0104 56.1633 77.0104 55.8409V13.1345C77.0104 12.8121 76.7161 12.5508 76.3531 12.5508Z" fill="white"/>
<path id="Vector_4" d="M141.939 52.8359L157.328 56.3418C158.45 56.5975 159.5 57.0588 160.409 57.6961C161.319 58.3334 162.069 59.1326 162.61 60.0423C163.151 60.9521 163.472 61.9523 163.553 62.9788C163.633 64.0053 163.471 65.0354 163.076 66.0028L152.37 92.266L115.798 79.991L130.552 51.2305L141.939 52.8359Z" fill="url(#paint2_linear_292_3070)"/>
<path id="Vector_5" d="M122.762 63.5314C121.178 65.5048 119.879 67.6465 118.895 69.9065C117.342 73.5369 112.855 79.0094 112.855 79.0094L117.808 80.6714C117.808 80.6714 122.307 73.8998 122.762 72.199C123.216 70.4982 122.762 63.5314 122.762 63.5314Z" fill="url(#paint3_linear_292_3070)"/>
<path id="Vector_6" d="M117.808 80.6701L135.648 86.6557L146.457 90.2826C146.457 90.2826 150.074 89.8764 150.335 87.9265C150.595 85.9766 149.56 69.2358 147.301 65.4518C145.042 61.6677 139.424 60.7714 139.424 60.7714C139.424 60.7714 135.099 63.7916 132.517 63.5328C129.934 63.2741 130.816 60.7714 130.816 60.7714L127.997 60.2539L124.731 60.8041L122.765 63.5328L117.808 80.6701Z" fill="url(#paint4_linear_292_3070)"/>
<path id="Vector_7" d="M72.1926 66.3102C72.1926 66.3102 74.0053 71.0887 76.0905 70.7831C76.0905 69.7128 77.0143 66.7262 77.0143 66.7262L75.7713 64.0469L72.1926 66.3102Z" fill="url(#paint5_linear_292_3070)"/>
<path id="Vector_8" d="M76.901 64.5547L75.4641 72.1987L103.086 74.6732L101.906 64.9954L76.901 64.5547Z" fill="url(#paint6_linear_292_3070)"/>
<path id="Vector_9" d="M96.3685 67.0577C95.408 67.1822 86.052 67.0913 83.3354 66.7265C83.7571 64.0773 85.8084 51.0278 85.9665 46.2556C86.0441 43.8977 86.1207 40.8837 86.0948 38.2468C86.0948 38.0905 86.0948 37.9368 86.0878 37.7832C86.0878 37.6507 86.0878 37.5182 86.0799 37.3867C86.0799 37.3451 86.0799 37.3045 86.0799 37.263C86.0799 37.1747 86.0799 37.0864 86.0749 37.0034C86.067 36.7976 86.062 36.5954 86.054 36.3958C86.0461 36.1962 86.0411 36.0267 86.0341 35.8474C86.0152 35.4942 85.9954 35.1507 85.9715 34.8292C85.9635 34.7144 85.9536 34.6005 85.9437 34.4928C85.9377 34.4327 85.9327 34.3735 85.9277 34.3161C85.9228 34.2587 85.9148 34.2013 85.9098 34.1439C85.9049 34.0865 85.8969 34.0062 85.887 33.9399C85.881 33.8896 85.8741 33.8384 85.8681 33.788C85.8502 33.6388 85.8293 33.4993 85.8064 33.3686C85.8015 33.3315 85.7935 33.2979 85.7885 33.2608C85.7577 33.0842 85.7239 32.9306 85.6891 32.7928C85.6732 32.738 85.6583 32.6851 85.6424 32.6347C85.6265 32.5844 85.6165 32.5588 85.6036 32.5243C85.593 32.4899 85.5794 32.4562 85.5628 32.4237C85.5501 32.3935 85.5355 32.364 85.5191 32.3354C85.5143 32.3221 85.5073 32.3096 85.4982 32.2983C85.4925 32.2857 85.4844 32.274 85.4743 32.2638L84.8956 27.5031C85.1013 27.4938 85.3074 27.4938 85.5131 27.5031C85.5131 27.5031 91.1074 27.6117 93.4183 27.526C93.8677 28.7809 94.356 30.4756 93.9552 31.0443C93.3586 31.8912 92.2797 32.0378 92.9718 33.7898C92.9587 33.8139 92.9475 33.8386 92.938 33.864C92.9266 33.89 92.917 33.9165 92.9092 33.9435C92.8992 33.9717 92.8913 34.0009 92.8833 34.0318C92.8753 34.0627 92.8684 34.0918 92.8604 34.1201C92.5094 35.6461 96.3218 66.6912 96.3685 67.0577Z" fill="url(#paint7_linear_292_3070)"/>
<path id="Vector_10" d="M85.9645 46.2573C85.8064 51.026 83.3713 66.5234 82.9506 69.1754C78.7047 68.6084 75.5834 67.6132 75.5834 67.6132L75.4621 43.5312L72.7614 49.5133L76.0885 63.8476L71.3743 66.829C68.961 67.637 64.8582 52.7966 65.083 49.4515C65.3007 46.1584 72.2195 33.9187 74.5433 31.5291C75.9503 30.0817 79.6722 28.9116 82.3888 28.2148L79.6832 34.4345C79.6832 34.4345 81.9702 35.0403 82.5062 33.9735C83.0421 32.9067 84.3527 31.6828 85.3311 32.1411C85.349 32.1489 85.3654 32.159 85.3799 32.1711C85.3981 32.1853 85.4145 32.2013 85.4286 32.2188C85.4427 32.2342 85.4556 32.2504 85.4674 32.2674C85.4774 32.2776 85.4855 32.2892 85.4912 32.3018C85.5003 32.3131 85.5074 32.3256 85.5121 32.3389C85.5286 32.3676 85.5432 32.397 85.5559 32.4272C85.5708 32.459 85.5837 32.4917 85.5966 32.5279C85.6096 32.5641 85.6225 32.5994 85.6354 32.6383C85.6483 32.6771 85.6662 32.7416 85.6821 32.7963C85.7179 32.9341 85.7518 33.0904 85.7816 33.2644C85.7816 33.3015 85.7945 33.335 85.7995 33.3721C85.8204 33.5055 85.8432 33.645 85.8611 33.7916C85.8671 33.8419 85.8741 33.8931 85.88 33.9435C85.887 34.0097 85.8949 34.0786 85.9029 34.1475C85.9109 34.2163 85.9158 34.2596 85.9208 34.3197C85.9258 34.3797 85.9307 34.4362 85.9367 34.4963C85.9466 34.6058 85.9546 34.7179 85.9645 34.8327C85.9884 35.1542 86.0083 35.4933 86.0272 35.8509C86.0342 36.0276 86.0421 36.2113 86.0471 36.3994C86.052 36.5874 86.06 36.8012 86.068 37.0069C86.068 37.0952 86.068 37.1791 86.0729 37.2665C86.0729 37.3081 86.0729 37.3487 86.0729 37.3902C86.0729 37.5209 86.0729 37.6551 86.0809 37.7867C86.0809 37.9404 86.0809 38.094 86.0878 38.2503C86.1207 40.8855 86.0441 43.8995 85.9645 46.2573Z" fill="url(#paint8_linear_292_3070)"/>
<path id="Vector_11" d="M125.327 59.9654L122.548 63.8263C122.478 63.9236 122.386 64.0066 122.277 64.0698C122.168 64.133 122.045 64.1751 121.917 64.1932C121.788 64.2113 121.657 64.205 121.532 64.1748C121.406 64.1446 121.289 64.0912 121.189 64.018L108.409 54.7287L101.804 46.3667L103.417 67.2881C103.417 67.2881 103.545 68.1173 96.6082 69.0118C96.5615 68.6445 92.5094 35.6451 92.8535 34.1244C92.8614 34.0926 92.8684 34.0626 92.8764 34.0361C92.8843 34.0096 92.8923 33.9769 92.9022 33.9478C92.91 33.9208 92.9197 33.8942 92.9311 33.8683C92.9405 33.8429 92.9518 33.8181 92.9649 33.7941C92.9787 33.7567 92.9967 33.7206 93.0185 33.6864C93.028 33.667 93.0393 33.6484 93.0524 33.6307C93.0673 33.6086 93.0832 33.5857 93.0991 33.5645C93.1131 33.5426 93.1294 33.5219 93.1478 33.5027C93.1629 33.4842 93.1802 33.4674 93.1995 33.4523C93.1997 33.4503 93.2005 33.4484 93.2019 33.4468C93.2033 33.4452 93.2053 33.4441 93.2075 33.4435C93.2244 33.4256 93.2434 33.4093 93.2642 33.3949C93.2827 33.3791 93.3026 33.3646 93.3238 33.3517C93.3968 33.3015 93.4789 33.2627 93.5664 33.2369C93.6344 33.214 93.7057 33.2 93.7782 33.1954C93.8208 33.1908 93.8636 33.1884 93.9065 33.1883C94.2002 33.1981 94.4874 33.2679 94.7458 33.3923L93.9503 31.838L100.106 32.8598L97.1084 28.3242C100.148 29.4987 104.14 31.7824 105.078 34.1288C106.454 37.5729 113.662 49.4531 113.662 49.4531L125.228 59.2219C125.338 59.3167 125.409 59.4425 125.427 59.5779C125.445 59.7134 125.41 59.8503 125.327 59.9654Z" fill="url(#paint9_linear_292_3070)"/>
<path id="Vector_12" d="M22.7411 51.93C17.9115 53.4047 14.4203 59.1148 16.3593 64.4769L22.6118 81.7529L57.2673 75.4088L41.8805 49.875L22.7411 51.93Z" fill="url(#paint10_linear_292_3070)"/>
<path id="Vector_13" d="M85.7259 33.412C85.7141 33.3951 85.7012 33.3789 85.6871 33.3634C85.6723 33.3458 85.6557 33.3296 85.6374 33.3149C85.6231 33.3028 85.6066 33.2929 85.5886 33.2857C84.6102 32.8265 83.3016 34.0487 82.7637 35.1181C82.2257 36.1876 79.6812 34.4346 79.6812 34.4346L82.6424 29.3568L82.9516 28.6504L85.1273 26.9062L85.1352 28.8429L85.4673 32.271L85.7259 33.412Z" fill="url(#paint11_linear_292_3070)"/>
<path id="Vector_14" d="M94.886 32.6736L95.2141 33.7898C94.4992 33.5734 93.6431 33.3394 93.2075 33.7818C93.2053 33.7827 93.2034 33.784 93.202 33.7857C93.2006 33.7874 93.1998 33.7894 93.1996 33.7916C93.0967 33.8906 93.0169 34.0067 92.9649 34.1333C92.2689 32.3804 93.3497 32.2338 93.9483 31.3878C94.3461 30.8191 93.8608 29.1244 93.4114 27.8695C93.1131 27.0421 92.8326 26.4062 92.8326 26.4062L95.6497 26.7392L97.1064 28.6634L100.681 33.0286C100.724 33.0813 100.749 33.1444 100.752 33.2096C100.754 33.2749 100.735 33.3393 100.696 33.3946C100.656 33.4499 100.6 33.4936 100.532 33.5199C100.465 33.5463 100.391 33.5542 100.318 33.5425L94.886 32.6736Z" fill="url(#paint12_linear_292_3070)"/>
<path id="Vector_15" d="M94.4883 32.2693L94.7458 33.3908C94.4874 33.2664 94.2002 33.1966 93.9066 33.1868C93.8637 33.1869 93.8209 33.1893 93.7783 33.1938C93.7058 33.1985 93.6344 33.2125 93.5665 33.2354C93.4789 33.2612 93.3969 33.3 93.3239 33.3502C93.3027 33.3631 93.2827 33.3776 93.2642 33.3934C93.2434 33.4078 93.2244 33.4241 93.2075 33.442C93.2053 33.4426 93.2034 33.4437 93.202 33.4453C93.2005 33.4469 93.1997 33.4488 93.1996 33.4508C93.1803 33.4659 93.1629 33.4827 93.1479 33.5012C93.1295 33.5204 93.1132 33.5411 93.0991 33.563C93.0832 33.5842 93.0673 33.6071 93.0524 33.6292C93.0394 33.6469 93.0281 33.6655 93.0186 33.6849C92.9968 33.7191 92.9788 33.7552 92.9649 33.7926C92.2689 32.0405 93.3497 31.8939 93.9483 31.047C94.3461 30.4783 93.8608 28.7837 93.4114 27.5288C93.1131 26.7014 92.8326 26.0664 92.8326 26.0664L95.6497 26.3985L97.1064 28.3227L100.487 32.7894C100.525 32.8386 100.545 32.8967 100.545 32.9561C100.545 33.0155 100.526 33.0737 100.489 33.1232C100.452 33.1728 100.399 33.2115 100.338 33.2344C100.276 33.2574 100.208 33.2635 100.142 33.2521L94.4883 32.2693Z" fill="url(#paint13_linear_292_3070)"/>
<path id="Vector_16" d="M85.1174 28.4767C85.1532 27.9362 85.2715 26.5453 85.3282 24.9266C85.367 23.8051 85.4048 22.6456 85.4346 21.7475C85.4346 21.6698 85.4346 21.5956 85.4405 21.5223C85.4555 20.9977 85.4405 20.1191 85.3998 20.0678C85.3759 20.0387 85.3521 20.0104 85.3322 19.9795C83.3882 17.5263 83.4687 15.7919 84.5367 15.1137C84.6779 15.0247 84.833 14.9545 84.9971 14.9053C84.9971 14.9053 84.1608 11.6378 85.3729 8.82695C86.9768 5.10912 92.7073 4.54659 96.3109 5.13208C99.9145 5.71758 103.412 9.18019 102.611 12.7364C102.293 14.1494 101.716 15.4625 101.687 16.7306C101.659 17.9988 102.473 20.0246 101.624 22.1572C100.412 25.2154 96.9503 26.3193 94.7796 26.5074C94.5024 26.5311 94.2238 26.5399 93.9453 26.5338L93.9085 27.0637L93.8797 27.4982L93.8499 27.968C93.7803 29.0224 93.6629 29.2697 93.6629 29.2697C93.6629 29.2697 92.7909 31.6726 89.6855 31.5118C86.5801 31.3511 85.0339 29.788 85.1174 28.4767Z" fill="url(#paint14_linear_292_3070)"/>
<path id="Vector_17" d="M85.4346 21.7518C87.7942 25.5668 91.2486 26.9294 93.8817 27.5069L93.9105 27.0725L93.9473 26.5426C91.4345 25.603 88.528 23.6955 85.3322 19.9883C85.352 20.0174 85.3759 20.0457 85.3998 20.0766C85.4375 20.1278 85.4555 21.0065 85.4405 21.531C85.4376 21.5999 85.4376 21.6741 85.4346 21.7518Z" fill="url(#paint15_linear_292_3070)"/>
<path id="Vector_18" d="M86.2629 16.4889C86.2629 16.4889 85.533 15.5228 84.9603 16.2239C84.3875 16.9251 85.186 18.172 85.186 18.172L86.2629 16.4889Z" fill="url(#paint16_linear_292_3070)"/>
<path id="Vector_19" d="M84.8469 39.6455C85.3318 39.6455 85.7249 39.2964 85.7249 38.8657C85.7249 38.4351 85.3318 38.0859 84.8469 38.0859C84.362 38.0859 83.9689 38.4351 83.9689 38.8657C83.9689 39.2964 84.362 39.6455 84.8469 39.6455Z" fill="url(#paint17_linear_292_3070)"/>
<path id="Vector_20" d="M84.667 46.1884C85.1519 46.1884 85.545 45.8393 85.545 45.4087C85.545 44.978 85.1519 44.6289 84.667 44.6289C84.182 44.6289 83.7889 44.978 83.7889 45.4087C83.7889 45.8393 84.182 46.1884 84.667 46.1884Z" fill="url(#paint18_linear_292_3070)"/>
<path id="Vector_21" d="M83.9709 52.8369C84.4558 52.8369 84.8489 52.4878 84.8489 52.0571C84.8489 51.6265 84.4558 51.2773 83.9709 51.2773C83.486 51.2773 83.0929 51.6265 83.0929 52.0571C83.0929 52.4878 83.486 52.8369 83.9709 52.8369Z" fill="url(#paint19_linear_292_3070)"/>
<path id="Vector_22" d="M83.0929 60.2509C83.5778 60.2509 83.9709 59.9018 83.9709 59.4712C83.9709 59.0405 83.5778 58.6914 83.0929 58.6914C82.6079 58.6914 82.2148 59.0405 82.2148 59.4712C82.2148 59.9018 82.6079 60.2509 83.0929 60.2509Z" fill="url(#paint20_linear_292_3070)"/>
<path id="Vector_23" d="M81.7723 68.2861C82.2572 68.2861 82.6503 67.937 82.6503 67.5063C82.6503 67.0757 82.2572 66.7266 81.7723 66.7266C81.2874 66.7266 80.8943 67.0757 80.8943 67.5063C80.8943 67.937 81.2874 68.2861 81.7723 68.2861Z" fill="url(#paint21_linear_292_3070)"/>
<path id="Vector_24" d="M93.7992 38.0863L95.779 37.7578" stroke="url(#paint22_linear_292_3070)" stroke-width="2" stroke-miterlimit="10"/>
<path id="Vector_25" d="M94.4823 44.6488L96.4621 44.3203" stroke="url(#paint23_linear_292_3070)" stroke-width="2" stroke-miterlimit="10"/>
<path id="Vector_26" d="M95.4717 51.4416L97.5648 51.2773" stroke="url(#paint24_linear_292_3070)" stroke-width="2" stroke-miterlimit="10"/>
<path id="Vector_27" d="M96.121 58.7736L98.2141 58.6094" stroke="url(#paint25_linear_292_3070)" stroke-width="2" stroke-miterlimit="10"/>
<path id="Vector_28" d="M97.1671 67.2899L99.2602 66.8281" stroke="url(#paint26_linear_292_3070)" stroke-width="2" stroke-miterlimit="10"/>
<path id="Vector_29" d="M102.234 65.242L100.083 65.8151L96.12 36.1158H101.374L100.751 33.9725" stroke="url(#paint27_linear_292_3070)" stroke-miterlimit="10"/>
<path id="Vector_30" d="M69.8778 63.8111L75.0554 60.8086" stroke="#1F1844" stroke-miterlimit="10"/>
<path id="Vector_31" d="M118.895 61.3341L121.99 57.1094" stroke="#1F1844" stroke-miterlimit="10"/>
<path id="Vector_32" d="M76.7409 40.8477L82.9526 41.0843L82.719 42.6041L79.4425 43.5314L76.5828 42.3754L76.7409 40.8477Z" fill="url(#paint28_linear_292_3070)"/>
<path id="Vector_33" d="M76.7409 40.5039L82.9527 40.7397L82.719 42.2604L79.4426 43.1867L76.5828 42.0308L76.7409 40.5039Z" fill="url(#paint29_linear_292_3070)"/>
<path id="Vector_34" d="M76.2417 30.3555L76.9964 37.2074L83.592 37.1518C82.7369 52.0204 82.4803 53.5358 80.9301 66.1093L77.0521 65.3357" stroke="url(#paint30_linear_292_3070)" stroke-miterlimit="10"/>
<path id="Vector_35" d="M88.4504 17.3867L88.3102 18.2575C90.5386 19.3869 95.0182 22.627 95.9777 22.7612C97.1958 22.9299 97.6035 21.6733 98.2648 21.9664C98.926 22.2596 98.8256 23.0147 99.282 23.0147C99.5197 23.0147 101.312 22.1192 101.823 21.5779C101.823 21.5779 101.202 23.3732 101.033 23.7476C100.635 24.6157 97.9376 26.7952 97.9376 26.7952C97.8183 26.8931 97.6765 26.9668 97.522 27.0113C97.3675 27.0558 97.204 27.0701 97.0427 27.0531L94.167 26.7669L92.7212 26.026C90.7056 25.0687 86.6397 21.2979 86.6228 20.7822C86.587 19.7225 86.759 18.7688 86.9489 17.9281L88.4504 17.3867Z" fill="#1F1844"/>
<path id="Vector_36" d="M160.827 95.059C154.861 124.289 75.0296 120.942 42.0645 118.38C24.1571 116.989 1.99175 110.935 0.144223 89.2121C0.138257 89.1423 0.132291 89.0717 0.127319 89.001V85.8342L85.7249 69.9023L160.827 95.059Z" fill="url(#paint31_linear_292_3070)"/>
<g id="Vector_37" style="mix-blend-mode:multiply" opacity="0.5">
<path d="M45.4454 110.549C49.8398 110.549 53.4022 108.963 53.4022 107.007C53.4022 105.051 49.8398 103.465 45.4454 103.465C41.0509 103.465 37.4885 105.051 37.4885 107.007C37.4885 108.963 41.0509 110.549 45.4454 110.549Z" fill="#BFC3DB"/>
</g>
<g id="Vector_38" style="mix-blend-mode:multiply" opacity="0.5">
<path d="M22.1415 97.9475C26.5359 97.9475 30.0983 96.3616 30.0983 94.4054C30.0983 92.4491 26.5359 90.8633 22.1415 90.8633C17.747 90.8633 14.1846 92.4491 14.1846 94.4054C14.1846 96.3616 17.747 97.9475 22.1415 97.9475Z" fill="#BFC3DB"/>
</g>
<g id="Vector_39" style="mix-blend-mode:multiply" opacity="0.5">
<path d="M89.0968 86.875L88.342 87.449L115.798 98.1998L135.117 90.04L89.0968 86.875Z" fill="#BBBFD9"/>
</g>
<path id="Vector_40" d="M85.7717 67.6406L89.0969 85.8359L116.352 95.6674L112.055 75.1981L85.7717 67.6406Z" fill="url(#paint32_linear_292_3070)"/>
<path id="Vector_41" d="M122.762 63.5334C122.762 63.5334 123.712 64.7476 124.486 65.206C125.261 65.6643 126.466 66.7417 126.639 67.2927C126.812 67.8438 128.016 66.7734 127.198 65.6263C126.379 64.4792 125.434 63.7921 125.691 63.3303C125.949 62.8684 128.317 60.5406 130.813 60.7693C133.309 60.998 131.33 58.8203 130.211 58.8203C129.091 58.8203 125.051 60.3525 125.051 60.3525L122.762 63.5334Z" fill="url(#paint33_linear_292_3070)"/>
<path id="Vector_42" d="M141.549 75.1992L141.937 84.545L135.646 86.6565L133.717 86.0092L140.323 83.9145C140.323 83.9145 141.229 75.314 141.549 75.1992Z" fill="url(#paint34_linear_292_3070)"/>
<path id="Vector_43" d="M116.352 95.6688L135.117 88.7118L113.249 80.8867L116.352 95.6688Z" fill="url(#paint35_linear_292_3070)"/>
<path id="Vector_44" d="M139.026 46.7676C138.487 47.7841 137.117 48.8641 137.07 49.1908C136.505 50.2346 135.242 52.5077 134.41 53.6425C133.309 55.1438 130.028 55.3901 128.832 53.9198C127.635 52.4494 124.964 50.6214 124.964 50.6214C124.964 50.6214 123.488 49.5211 123.628 48.9356C123.768 48.3501 126.821 47.3973 127.032 46.2113C127.131 45.6673 126.954 45.1374 126.82 44.582C126.663 43.9311 126.562 43.2423 127.019 42.4475C127.023 42.4412 127.027 42.4347 127.03 42.4281C127.296 41.9698 128.335 41.9495 129.701 42.1773C130.056 42.2347 130.434 42.3115 130.826 42.4007C133.799 43.0763 137.588 44.5201 138.749 45.2425C139.369 45.6346 139.33 46.1901 139.026 46.7676Z" fill="url(#paint36_linear_292_3070)"/>
<path id="Vector_45" d="M140.574 46.086L138.585 49.1415L135.708 48.4756L134.854 45.806L128.653 44.3701L126.82 44.5883C126.663 43.9374 126.562 43.2486 127.019 42.4538L129.704 42.1836L130.829 42.407L138.002 43.8314L140.574 46.086Z" fill="url(#paint37_linear_292_3070)"/>
<path id="Vector_46" d="M139.461 50.5994C138.566 50.799 137.415 51.2512 136.876 52.1599C136.45 52.9025 136.287 53.7416 136.406 54.5681C136.326 54.5407 136.281 54.5212 136.281 54.5212C136.281 54.5212 135.157 57.8929 134.102 58.6621C133.604 59.025 131.641 59.0418 129.57 58.8996C127.231 58.7424 124.753 58.3777 124.116 58.0801C122.923 57.5185 123.484 55.6445 124.116 54.8957C124.28 54.6972 124.406 54.4761 124.488 54.2413C125.411 54.5583 126.775 54.9478 127 54.5831C127.264 54.1609 125.619 53.0668 124.488 52.5246C124.449 52.4343 124.395 52.3495 124.328 52.2729C123.836 51.7104 124.96 50.6268 124.96 50.6268C124.96 50.6268 127.632 52.4522 128.828 53.9234C130.023 55.3946 133.302 55.1456 134.406 53.647C135.238 52.5122 136.501 50.2391 137.066 49.1953C137.066 49.2474 137.055 49.2748 137.055 49.2748C137.055 49.2748 138.24 50.3239 139.461 50.5994Z" fill="#1F1844"/>
<path id="Vector_47" d="M127.004 54.5819C126.776 54.9466 125.413 54.5572 124.492 54.2402C124.709 53.6529 124.709 52.9782 124.492 52.5234C125.623 53.0657 127.268 54.1598 127.004 54.5819Z" fill="url(#paint38_linear_292_3070)"/>
<path id="Vector_48" d="M140.363 53.9238C140.215 54.206 139.985 54.4481 139.697 54.625C139.637 54.9394 139.557 55.3704 139.477 55.8684L139.312 56.9414C139.113 58.3243 138.966 59.8768 139.097 60.7855C139.379 62.7 131.853 64.8239 130.38 64.1412C129.339 63.6573 129.379 61.1387 129.496 59.6966C129.522 59.3611 129.552 59.0838 129.573 58.9018C131.645 59.044 133.609 59.0255 134.106 58.6634C134.353 58.4824 134.603 58.1565 134.844 57.7671C135.627 56.4963 136.285 54.5217 136.285 54.5217C136.285 54.5217 136.264 52.9048 136.709 52.1497C137.241 51.2392 138.339 50.5999 139.24 50.4003C139.28 50.4091 139.759 50.3932 139.802 50.4003C141.068 50.6255 141.419 52.0225 140.363 53.9238Z" fill="url(#paint39_linear_292_3070)"/>
<path id="Vector_49" d="M131.723 34.2583L131.615 34.6998L130.589 34.3996L130.319 34.5912L130.021 34.5673V34.2583L127.024 33.875V34.3784L125.731 34.1629C125.731 34.1629 125.433 34.6186 125.326 34.5099C125.313 34.4957 125.297 34.4842 125.278 34.4764C125.259 34.4685 125.239 34.4644 125.218 34.4644C125.197 34.4644 125.177 34.4685 125.158 34.4764C125.139 34.4842 125.123 34.4957 125.11 34.5099V34.7139L127.432 35.1458L127.324 35.6756L128.674 35.892C128.674 35.892 129.512 35.6041 129.47 35.892C129.428 36.1799 128.458 36.02 128.269 36.02C128.08 36.02 128.08 36.4916 128.08 36.4916C128.08 36.4916 127.323 36.3477 127.216 36.3477C127.108 36.3477 127.161 36.4916 126.676 36.4916C126.19 36.4916 126.137 36.2452 126.137 36.2452L123.923 36.1975V36.4854C123.923 36.4854 122.654 36.4369 122.519 36.6771C122.385 36.9173 124.248 36.6771 124.248 36.6771V36.9888L125.142 37.1804C125.142 37.1804 123.171 38.0918 122.684 38.8583C122.732 38.8556 122.779 38.8613 122.824 38.8751C122.869 38.8889 122.91 38.9105 122.946 38.9387C122.946 38.9387 121.83 39.7617 122.181 40.6969C122.38 40.4408 122.469 40.3375 122.469 40.3375L124.35 40.553L124.215 40.945L122.352 41.3045L122.342 41.7522C122.342 41.7522 121.011 41.9041 121.091 42.3836C121.172 42.8631 122.793 42.2397 122.793 42.2397C122.766 42.4427 122.823 42.6476 122.955 42.8154C122.793 43.1113 121.74 44.5896 121.74 44.5896H122.091C122.091 44.5896 121.253 45.9566 121.469 46.7002C121.789 45.8876 122.206 45.1078 122.712 44.3741H122.874L124.413 42.8154L128.941 43.3683L133.425 39.2301L134.037 34.6009L131.723 34.2583ZM128.143 39.6301L126.552 39.7502L126.354 39.3184C126.354 39.3184 124.085 39.6186 123.977 39.495C123.869 39.3714 123.977 39.8783 123.977 39.8783L122.585 39.7944L123.436 38.7876L123.693 38.9643L125 38.3629L125.569 38.098L125.637 38.4097L124.894 38.6252L124.624 38.7329L124.692 39.0808L126.636 38.8159L126.677 38.9837H126.435C126.435 38.9837 126.597 39.3202 126.692 39.3202C126.786 39.3202 128.69 39.2318 128.69 39.2318L128.143 39.6301Z" fill="#1F1844"/>
<path id="Vector_50" d="M142.513 38.5456L142.016 38.6499L141.88 37.6979L141.569 37.5636L141.47 37.3146L141.787 37.1813L140.892 34.6124L140.38 34.8278L140.044 33.6957C140.044 33.6957 139.447 33.6533 139.516 33.5191C139.526 33.5024 139.531 33.4839 139.532 33.4651C139.532 33.4463 139.528 33.4276 139.519 33.4105C139.51 33.3934 139.497 33.3784 139.48 33.3666C139.463 33.3548 139.444 33.3466 139.423 33.3425L139.216 33.4308L139.773 35.4787L139.191 35.6182L139.55 36.7945C139.55 36.7945 140.202 37.342 139.892 37.433C139.582 37.5239 139.327 36.6761 139.246 36.5242C139.166 36.3724 138.686 36.5746 138.686 36.5746C138.686 36.5746 138.508 35.907 138.461 35.8195C138.414 35.7321 138.292 35.8381 138.083 35.4486C137.874 35.0592 138.095 34.9126 138.095 34.9126L137.194 33.1155L136.902 33.2391C136.902 33.2391 136.405 32.2006 136.106 32.1953C135.808 32.19 136.848 33.5809 136.848 33.5809L136.531 33.7151L136.719 34.5099C136.719 34.5099 134.946 33.3195 133.956 33.2586C133.98 33.2953 133.994 33.3358 134 33.3777C134.005 33.4195 134.001 33.4619 133.987 33.5023C133.987 33.5023 132.671 32.9601 131.87 33.6427C132.215 33.6922 132.359 33.7195 132.359 33.7195L132.947 35.3215L132.491 35.3815L131.326 34.041L130.867 34.2256C130.867 34.2256 130.141 33.2224 129.688 33.4935C129.234 33.7646 130.564 34.796 130.564 34.796C130.345 34.8612 130.162 34.9954 130.048 35.1731C129.678 35.1731 127.722 34.9594 127.722 34.9594L127.872 35.2411C127.872 35.2411 126.123 35.1528 125.46 35.6482C126.423 35.5565 127.395 35.5565 128.358 35.6482L128.428 35.7789L130.674 36.3441L134.144 40.9962L138.186 42.0356L143.158 40.5397L142.513 38.5456ZM135.515 37.9805L134.709 36.7539L135.061 36.4059C135.061 36.4059 133.782 34.7157 133.858 34.577C133.934 34.4384 133.468 34.7422 133.468 34.7422L132.957 33.5941L134.349 33.8441L134.277 34.1267L135.45 34.9214L135.96 35.2658L135.672 35.4531L135.134 34.9506L134.908 34.7801L134.583 34.9832L135.683 36.4209L135.529 36.5251L135.43 36.3308C135.43 36.3308 135.158 36.6046 135.198 36.6841C135.239 36.7636 136.141 38.2507 136.141 38.2507L135.515 37.9805Z" fill="#1F1844"/>
<path id="Vector_51" d="M140.293 37.9463L141.505 37.5312L141.774 37.9463C141.774 37.9463 143.255 37.5789 143.464 37.7388C143.674 37.8986 143.627 38.0417 143.627 38.0417L145.349 38.2324L145.161 38.4479C145.161 38.4479 145.699 38.8064 145.618 38.8064C145.374 38.8265 145.132 38.8584 144.891 38.9018C144.811 38.9265 144.295 38.9018 144.295 38.9018L144.161 39.1411L143.73 39.2612C143.73 39.2612 144.861 39.3089 144.995 39.6675C145.129 40.026 146.772 39.9324 146.637 40.2167C146.577 40.3706 146.464 40.5041 146.314 40.5991C146.314 40.5991 147.633 40.9338 147.579 41.1016C147.525 41.2694 147.149 41.3409 147.149 41.3409L146.368 41.2447C146.368 41.2447 146.261 41.5317 146.395 41.6995C146.529 41.8672 147.256 42.2293 147.256 42.2293L147.229 42.4686C147.229 42.4686 147.795 42.7795 147.741 42.9941L147.687 43.2095C147.687 43.2095 148.306 43.7836 148.283 43.9266C148.26 44.0697 147.879 44.0944 147.879 44.0944C147.879 44.0944 147.906 44.309 147.745 44.3328C147.584 44.3567 147.314 44.2375 147.314 44.2375L146.964 44.3364L146.56 44.0467C146.56 44.0467 147.913 45.7634 147.615 45.8588L147.317 45.9542C147.317 45.9542 148.206 47.4846 147.775 47.4846C147.344 47.4846 147.263 47.3813 147.263 47.3813L146.832 46.4099L146.429 46.5291L145.891 45.7405L144.289 45.7882L143.144 43.7323L140.293 37.9463Z" fill="#1F1844"/>
<path id="Vector_52" d="M142.842 41.0348C142.621 40.9367 142.842 40.4466 143.063 40.1517C143.158 40.0447 143.234 39.9256 143.29 39.7984C143.115 39.9874 143.002 40.1137 143.002 40.1137C143.002 40.1137 142.94 39.4072 142.903 38.7405C142.771 38.731 142.641 38.7124 142.513 38.6849C140.145 38.2636 137.985 37.6251 135.777 37.1668C135.718 37.1641 135.66 37.1522 135.606 37.1315C134.427 36.8834 133.227 36.7219 132.018 36.6484C131.743 38.9931 130.319 41.2626 128.936 43.3732C130.876 43.903 134.366 44.7596 134.366 44.7596L139.464 45.89L134.241 45.3107L133.981 46.4455L137.487 47.2023L136.379 50.4609L137.922 50.9528C137.922 50.9528 139.143 50.0979 140.033 50.7603C140.923 51.4226 140.574 53.512 139.461 54.7342C139.538 55.7056 139.239 56.9313 139.239 56.9313C139.239 56.9313 142.704 51.4482 144.112 50.1827C145.52 48.9172 145.971 47.3303 145.988 46.6707C145.999 46.2485 146.566 45.4599 147.065 44.8162C145.542 43.6681 144.497 42.181 142.842 41.0348Z" fill="#1F1844"/>
<path id="Vector_53" d="M86.1008 32.0391C86.1008 32.0391 89.3822 33.5403 92.0978 32.1989" stroke="white" stroke-miterlimit="10"/>
<path id="Vector_54" d="M85.4674 32.2716C85.4557 32.2547 85.4427 32.2385 85.4286 32.2231C85.4145 32.2056 85.3982 32.1896 85.3799 32.1754C85.3655 32.1633 85.349 32.1531 85.3312 32.1454C84.3527 31.687 83.0442 32.9092 82.5062 33.9778C81.9683 35.0463 79.6832 34.4387 79.6832 34.4387L81.4234 27.9727L85.3312 25.6484L85.1174 28.6607L85.4674 32.2716Z" fill="url(#paint40_linear_292_3070)"/>
<path id="Vector_55" d="M83.592 37.1523L86.072 37.0039" stroke="url(#paint41_linear_292_3070)" stroke-miterlimit="10"/>
<path id="Vector_56" d="M96.121 36.1172L92.9559 36.6479" stroke="url(#paint42_linear_292_3070)" stroke-miterlimit="10"/>
<path id="Vector_57" d="M116.352 95.6681V96.9804L135.117 90.0411V88.7111L116.352 95.6681Z" fill="#C8CCE0"/>
<path id="Vector_58" d="M116.352 96.9797L89.0968 86.8753V85.8359L116.352 95.6674V96.9797Z" fill="#C8CCE0"/>
<path id="Vector_59" d="M98.2141 83.0007C99.503 83.0007 100.548 82.0728 100.548 80.9281C100.548 79.7834 99.503 78.8555 98.2141 78.8555C96.9252 78.8555 95.8804 79.7834 95.8804 80.9281C95.8804 82.0728 96.9252 83.0007 98.2141 83.0007Z" fill="white"/>
<path id="Vector_60" d="M128.143 62.4258C128.143 62.4258 128.423 64.9983 130.079 65.4646C132.726 66.2099 139.239 63.1297 139.239 63.1297" stroke="white" stroke-miterlimit="10"/>
<path id="Vector_61" d="M91.537 104.61L70.2318 108.241L58.6117 98.6475L71.7741 96.6914L75.7843 103.234L88.4197 102.466L91.537 104.61Z" fill="url(#paint43_linear_292_3070)"/>
<path id="Vector_62" d="M92.1366 104.079L70.8324 107.709L59.2113 98.116L72.3737 96.16L76.3839 102.703L89.0193 101.935L92.1366 104.079Z" fill="#D5527E"/>
<path id="Vector_63" d="M53.4241 105.888C53.4241 108.462 50.3615 110.548 46.5819 110.548C42.8023 110.548 39.7377 108.462 39.7377 105.888C39.7377 105.001 40.1026 104.171 40.7321 103.465V103.476C40.7321 104.159 43.3502 104.713 46.5799 104.713C49.8096 104.713 52.4278 104.159 52.4278 103.476V103.466C53.0618 104.148 53.4135 105.003 53.4241 105.888Z" fill="url(#paint44_linear_292_3070)"/>
<path id="Vector_64" d="M52.4297 103.467V103.478C52.4297 104.16 49.8115 104.714 46.5818 104.714C43.3522 104.714 40.734 104.16 40.734 103.478V103.466C40.742 103.29 40.9239 103.122 41.2471 102.969C42.1639 102.541 44.2063 102.242 46.5789 102.242C48.9514 102.242 50.9928 102.541 51.9106 102.969C52.2388 103.12 52.4227 103.29 52.4297 103.467Z" fill="url(#paint45_linear_292_3070)"/>
<path id="Vector_65" d="M46.8016 104.004C46.5669 104.004 46.2706 103.998 45.9305 103.974H45.8699C44.1139 103.845 41.2481 103.268 39.5219 100.923C39.3414 100.679 39.1793 100.425 39.0366 100.161C38.75 99.6283 38.5305 99.0689 38.3823 98.4931C37.7857 96.2209 34.5541 94.6675 33.4503 94.4309C33.8222 93.2528 38.4738 93.7836 41.3346 95.314C42.1719 95.7617 42.856 96.296 43.2358 96.8956L43.5918 98.2485C43.6907 98.9908 43.9055 99.7172 44.2302 100.407C44.3925 100.759 44.5753 101.103 44.7781 101.438C45.1689 102.086 45.6196 102.705 46.1254 103.287C46.5222 103.743 46.8016 104.004 46.8016 104.004Z" fill="url(#paint46_linear_292_3070)"/>
<path id="Vector_66" d="M45.6701 103.474C45.6701 103.474 42.1004 101.626 41.4162 99.1065C40.7321 96.5871 38.5465 94.8889 36.2893 94.6602" stroke="white" stroke-width="0.68" stroke-miterlimit="10"/>
<path id="Vector_67" d="M46.8006 104C46.8006 104 44.797 96.7588 47.1924 94.8769C49.5878 92.995 53.0412 92.3027 56.0064 93.7289C52.4267 93.9188 51.4323 96.0859 51.666 98.056C51.8798 99.862 49.197 104.498 46.8006 104Z" fill="#D5527E"/>
<path id="Vector_68" d="M46.8007 104.003C50.4987 101.075 44.6061 96.3803 53.4241 93.543" stroke="white" stroke-width="0.65" stroke-miterlimit="10"/>
<path id="Vector_69" d="M43.5919 98.2459C42.1739 98.4852 38.4759 97.1508 38.5514 96.2271C38.621 95.3811 41.6747 96.0311 43.2359 96.8912L43.5919 98.2459Z" fill="url(#paint47_linear_292_3070)"/>
<path id="Vector_70" d="M44.7781 101.436C43.7947 101.847 40.8006 101.512 39.5219 100.918C39.1918 100.766 38.977 100.597 38.9342 100.42C38.9214 100.372 38.9239 100.322 38.9415 100.275C38.959 100.228 38.991 100.187 39.0337 100.155C39.6472 99.6454 42.7019 99.8512 44.2272 100.404C44.3904 100.756 44.5743 101.101 44.7781 101.436Z" fill="url(#paint48_linear_292_3070)"/>
<path id="Vector_71" d="M40.2399 90.3195C40.9051 89.318 45.686 93.4492 44.8497 94.3561C44.0135 95.263 39.6065 91.2732 40.2399 90.3195Z" fill="url(#paint49_linear_292_3070)"/>
<path id="Vector_72" d="M38.9313 95.9889C39.0308 94.8223 44.7981 96.4993 44.4998 97.6517C44.2014 98.8042 38.8448 97.0998 38.9313 95.9889Z" fill="url(#paint50_linear_292_3070)"/>
<path id="Vector_73" d="M49.6416 90.819C50.6648 91.5255 45.6164 95.3908 44.7165 94.5351C43.8166 93.6794 48.6681 90.1452 49.6416 90.819Z" fill="url(#paint51_linear_292_3070)"/>
<path id="Vector_74" d="M49.1593 95.7654C50.0185 96.6273 45.1451 98.7962 44.4133 97.8186C43.6814 96.841 48.341 94.9389 49.1593 95.7654Z" fill="url(#paint52_linear_292_3070)"/>
<path id="Vector_75" d="M44.7901 89.9844C44.7901 89.9844 44.9372 92.9692 44.4918 95.5752C44.0463 98.1812 45.1699 102.591 46.9976 104" stroke="url(#paint53_linear_292_3070)" stroke-width="0.98" stroke-miterlimit="10"/>
<path id="Vector_76" d="M38.9313 100.216C38.6787 99.1461 45.0416 99.7625 45.0963 100.865C45.151 101.967 39.1749 101.241 38.9313 100.216Z" fill="url(#paint54_linear_292_3070)"/>
<path id="Vector_77" d="M49.387 98.4644C50.0462 99.4552 45.4881 101.928 44.9571 100.849C44.4261 99.7696 48.7585 97.5204 49.387 98.4644Z" fill="url(#paint55_linear_292_3070)"/>
<path id="Vector_78" d="M46.4049 85.6961C47.6886 85.7844 46.027 91.5245 44.7582 91.2596C43.4894 90.9947 45.1808 85.6202 46.4049 85.6961Z" fill="url(#paint56_linear_292_3070)"/>
<path id="Vector_79" d="M139.461 54.7305L139.312 56.9383C139.309 56.9443 139.306 56.9505 139.304 56.9568L139.214 57.1652C135.655 59.7068 132.133 59.9567 129.496 59.6909C129.522 59.3553 129.552 59.078 129.573 58.8961C131.645 59.0383 133.609 59.0197 134.106 58.6576C134.353 58.4766 134.603 58.1507 134.844 57.7613C136.696 57.1932 138.307 56.1356 139.461 54.7305Z" fill="url(#paint57_linear_292_3070)"/>
<path id="Vector_80" d="M51.0674 41.5499C44.8696 36.7344 36.3598 42.433 34.8106 48.6297C34.3611 50.3076 33.9266 52.8844 33.5627 55.4295C32.982 59.4917 47.2431 58.2554 47.4241 58.3817C47.605 58.508 48.3787 60.2176 50.432 60.887C57.6252 56.5175 56.3664 46.0458 51.0674 41.5499Z" fill="url(#paint58_linear_292_3070)"/>
<g id="Vector_81" style="mix-blend-mode:multiply" opacity="0.5">
<path d="M100.546 101.876L88.6434 102.598L76.0081 103.367L71.9978 96.8239L70.4556 94.3079L89.3067 93.0469L100.546 101.876Z" fill="#BFC3DB"/>
</g>
<path id="Vector_82" d="M100.922 101.213L89.0193 101.935L76.3839 102.704L72.3737 96.1607L70.8324 93.6448L89.6835 92.3828L100.922 101.213Z" fill="url(#paint59_linear_292_3070)"/>
<path id="Vector_83" d="M57.4671 73.2143L57.9275 75.2939L65.1864 74.6758L72.5407 72.582L63.1161 71.056C63.1161 71.056 57.9454 62.6745 55.7986 59.8177C55.1204 58.9152 53.0979 58.69 52.2726 58.3633L57.4671 73.2143Z" fill="#FFC727"/>
<g id="Vector_84" style="mix-blend-mode:multiply" opacity="0.5">
<path d="M58.7021 87.433H84.5257L84.6162 86.3177L59.1934 85.6562L58.7021 87.433Z" fill="#BFC3DB"/>
</g>
<path id="Vector_85" d="M59.1089 86.876H84.9324L85.0239 85.7615H59.1864L59.1089 86.876Z" fill="#CF507A"/>
<path id="Vector_86" d="M60.0565 73.1172L59.1864 85.7631H85.0239L86.0521 73.1172H60.0565Z" fill="#D5527E"/>
<path id="Vector_87" d="M55.5173 80.5206C55.5173 80.5206 54.6761 80.8359 54.3748 81.1803L54.1073 84.0353C54.1073 84.0353 56.109 85.0191 57.6094 85.3997C58.3055 85.5764 59.3993 85.6947 60.4493 85.7662C61.6635 85.8475 63.2435 85.9428 63.1848 85.5269C63.1311 85.1463 61.0052 85.2814 60.9336 85.0271C60.862 84.7727 64.2925 84.8602 64.2925 84.3842C64.2925 83.9082 60.8262 84.2888 60.8262 84.0671C60.8262 83.8455 65.0781 83.8808 65.0791 83.4322C65.0791 82.8608 60.8033 83.2653 60.8978 82.8926C60.9555 82.6745 64.8295 82.7337 64.7937 82.2895C64.7579 81.8453 62.6489 82.036 61.3622 81.9362C60.0755 81.8365 58.7539 81.3649 58.561 80.8571C58.3681 80.3493 61.4338 79.7462 61.1126 79.3656C60.7914 78.9849 55.5173 80.5136 55.5173 80.5136" fill="url(#paint60_linear_292_3070)"/>
<path id="Vector_88" d="M48.3847 57.1165C50.5544 57.0203 52.7202 57.5528 54.4573 58.7061C55.1693 59.1726 55.7907 59.7394 56.2969 60.384C57.8878 62.4398 58.6416 69.2414 57.9276 75.2844L43.1892 77.9072C44.1597 78.2604 52.3373 80.2606 55.752 80.3799C53.8219 81.3318 54.4653 84.3785 54.4653 84.3785C46.4577 84.2266 37.2847 83.5987 35.6987 77.9999C34.4895 73.7266 33.8154 67.4284 33.7617 64.8418C33.6891 61.3404 35.7146 59.4452 37.7391 58.5454C39.7636 57.6455 44.3586 57.2931 44.3586 57.2931L48.3847 57.1165Z" fill="#EBB721"/>
<path id="Vector_89" d="M54.685 42.8944C54.6511 43.2265 54.6044 43.5568 54.5527 43.8809C54.0555 42.1924 50.8139 40.2796 47.1387 40.5781C47.1387 40.5781 47.1387 40.9728 46.4427 41.0823C45.7466 41.1918 45.4483 40.4271 45.2912 41.0823C45.1341 41.7376 45.1391 42.6233 44.2969 42.6233C43.4546 42.6233 42.9147 43.1011 42.8391 43.5753C42.7636 44.0495 44.1905 45.768 43.4745 46.1893C42.6562 46.6714 42.0645 48.4738 42.0645 48.4738C42.0645 48.4738 41.4271 44.288 38.8885 46.7403C38.7105 47.1898 38.5574 47.6437 38.4311 48.0959C38.3128 47.4397 38.5037 46.9284 38.9114 46.6026C39.0261 46.5102 39.1559 46.4337 39.2962 46.3756C38.8986 45.2613 38.6915 44.1004 38.6817 42.9315C38.6758 42.2622 38.7653 41.5948 38.9482 40.9455C39.9525 37.5014 44.975 36.4964 48.2415 36.696C51.508 36.8956 54.9972 39.6676 54.685 42.8944Z" fill="url(#paint61_linear_292_3070)"/>
<path id="Vector_90" d="M40.4496 52.4102C42.9723 55.5894 46.1911 56.491 48.5935 56.7701L48.5696 56.3824L48.5427 55.9064C46.207 55.2953 43.4128 53.8594 40.1603 50.8516C40.1822 50.8754 40.206 50.8993 40.2309 50.9222C40.2697 50.9646 40.384 51.7426 40.4298 52.2098C40.4347 52.2751 40.4437 52.3413 40.4496 52.4102Z" fill="url(#paint62_linear_292_3070)"/>
<path id="Vector_91" d="M40.5929 47.6661C40.5929 47.6661 39.8372 46.8713 39.4066 47.5433C38.9761 48.2153 39.8262 49.2521 39.8262 49.2521L40.5929 47.6661Z" fill="url(#paint63_linear_292_3070)"/>
<path id="Vector_92" d="M41.3535 60.2531C41.3535 60.2531 48.4771 64.8505 50.2202 64.5564C51.9634 64.2623 50.607 58.3633 50.607 58.3633" stroke="white" stroke-miterlimit="10"/>
<path id="Vector_93" d="M59.7323 55.353C60.4651 56.766 59.9898 58.6929 58.9806 59.7296C58.0856 60.6419 58.2656 61.744 57.5318 62.31C56.0472 60.2895 54.7048 58.4871 52.3452 57.6747C56.5603 53.5648 50.6548 46.1459 50.2212 44.6482L42.0536 49.2526C42.0536 49.2526 44.4798 54.5944 41.1895 58.4368C40.4934 59.2492 37.4586 64.4286 34.3134 63.1013C32.4341 62.3065 33.6651 60.6896 33.2196 60.2507C31.6893 58.7494 30.0238 57.1598 30.8063 55.9191C31.5889 54.6783 31.2936 55.2674 30.5557 54.5106C29.8179 53.7537 30.1451 52.6808 30.7139 51.9831C31.2826 51.2855 29.9283 49.2358 30.7546 48.4287C32.5107 46.7137 32.1209 44.9908 31.9091 44.3877C31.6973 43.7845 32.3247 43.2529 32.8209 42.9359C33.3171 42.6188 33.4583 41.8585 33.3658 40.6239C33.2733 39.3894 34.4735 38.946 34.8295 38.629C35.7543 37.7963 35.7055 37.4183 35.9581 36.5211C36.4105 34.9156 39.3688 34.9227 41.0612 34.8935C42.7337 34.8635 42.2614 32.7582 46.1921 33.6016C46.8195 33.7376 47.6687 34.9174 49.7608 34.5332C51.9663 34.1279 54.4662 35.9983 54.319 36.9299C54.1718 37.8616 57.0664 37.9225 57.2802 40.8465C57.2862 40.9233 57.2931 41.0081 57.3021 41.0981C57.3879 41.9359 57.6915 42.7446 58.189 43.4604C58.3887 43.7527 58.5552 44.0618 58.6862 44.3832C59.1695 45.571 58.3124 46.7676 58.6773 47.8026C59.0422 48.8376 59.7134 50.3971 58.9686 51.9319C58.1135 53.684 59.3992 54.7093 59.7323 55.353Z" fill="url(#paint64_linear_292_3070)"/>
<path id="Vector_94" d="M54.8659 51.3448C54.1351 54.1707 51.1868 55.4529 49.2796 55.8123C49.0966 55.845 48.9236 55.8697 48.7635 55.8856C48.686 55.8971 48.6134 55.9042 48.5438 55.9086L48.5696 56.3863L48.6184 56.9939L48.6601 57.5326L50.0184 62.5918C50.0561 62.7321 50.045 62.8792 49.9864 63.0136C49.9278 63.1481 49.8246 63.2635 49.6904 63.3447C49.5562 63.4258 49.3974 63.4688 49.2351 63.4679C49.0727 63.4671 48.9145 63.4224 48.7814 63.3398C46.0569 61.6513 41.2432 59.2944 41.1895 58.4404C41.1895 58.4404 40.9081 57.1405 40.5233 53.1869C40.4994 52.9387 40.4765 52.6818 40.4507 52.4142C40.4427 52.3453 40.4348 52.2782 40.4298 52.2146C40.4169 52.0813 40.397 51.9205 40.3761 51.7598C40.3244 51.3607 40.2598 50.9553 40.2309 50.9253C40.2058 50.9033 40.1826 50.8796 40.1613 50.8547C39.0954 49.7852 38.5604 48.8474 38.4311 48.1003C38.5037 47.8354 38.5862 47.5766 38.6767 47.3179C38.8268 46.8504 39.1623 46.447 39.6214 46.1822C41.5534 45.1225 42.0645 48.4782 42.0645 48.4782C42.0645 48.4782 48.5925 47.279 50.2073 40.5066C50.5942 40.4121 51.679 40.3573 52.6933 40.9923C53.4599 41.47 54.1848 42.3407 54.5497 43.8826C54.4026 44.8046 54.2246 45.6877 54.3101 46.5204C54.4244 47.6517 55.379 49.3737 54.8659 51.3448Z" fill="url(#paint65_linear_292_3070)"/>
<path id="Vector_95" d="M52.6963 40.9896C51.694 43.306 50.102 45.4651 46.9489 47.0582C43.4686 48.8191 42.0646 48.4712 42.0646 48.4712C42.0646 48.4712 48.5926 47.2719 50.2074 40.4995C50.5942 40.4094 51.6791 40.3547 52.6963 40.9896Z" fill="url(#paint66_linear_292_3070)"/>
<path id="Vector_96" d="M48.5696 56.3843L48.6184 56.9919C46.1504 56.727 43.1911 55.8262 40.5233 53.1849C40.4994 52.9367 40.4765 52.6798 40.4507 52.4122C40.4427 52.3433 40.4348 52.2762 40.4298 52.2126C40.4169 52.0793 40.397 51.9185 40.3761 51.7578C43.6396 54.0998 46.4158 55.322 48.7635 55.8836C48.686 55.8951 48.6134 55.9022 48.5438 55.9066L48.5696 56.3843Z" fill="url(#paint67_linear_292_3070)"/>
<path id="Vector_97" d="M23.2761 97.4589C27.5569 97.4589 31.0271 96.2815 31.0271 94.8291C31.0271 93.3766 27.5569 92.1992 23.2761 92.1992C18.9953 92.1992 15.525 93.3766 15.525 94.8291C15.525 96.2815 18.9953 97.4589 23.2761 97.4589Z" fill="#2D2E64"/>
<path id="Vector_98" d="M23.2761 96.5136C27.5569 96.5136 31.0271 95.3362 31.0271 93.8838C31.0271 92.4313 27.5569 91.2539 23.2761 91.2539C18.9953 91.2539 15.525 92.4313 15.525 93.8838C15.525 95.3362 18.9953 96.5136 23.2761 96.5136Z" fill="url(#paint68_linear_292_3070)"/>
<path id="Vector_99" d="M23.276 93.8818L17.11 84.5546L23.6837 74.6719" stroke="url(#paint69_linear_292_3070)" stroke-width="4.15" stroke-miterlimit="10"/>
<path id="Vector_100" d="M33.514 74.4818L26.6261 80.2608L21.8899 74.8739C21.2724 74.1712 20.972 73.2893 21.0476 72.4004C21.1232 71.5115 21.5692 70.6796 22.2986 70.0673C23.0285 69.4552 23.9893 69.1069 24.993 69.0906C25.9967 69.0742 26.9712 69.391 27.7258 69.9789L33.514 74.4818Z" fill="url(#paint70_linear_292_3070)"/>
</g>
</g>
</g>
<defs>
<linearGradient id="paint0_linear_292_3070" x1="0.000498131" y1="54.1947" x2="161.788" y2="54.1947" gradientUnits="userSpaceOnUse">
<stop stop-color="#F0F2F5"/>
<stop offset="0.99" stop-color="#F5F7F8"/>
</linearGradient>
<linearGradient id="paint1_linear_292_3070" x1="0.552917" y1="34.4883" x2="79.2486" y2="34.4883" gradientUnits="userSpaceOnUse">
<stop offset="0.01" stop-color="#BBBFD9"/>
<stop offset="1" stop-color="#D6DBF8"/>
</linearGradient>
<linearGradient id="paint2_linear_292_3070" x1="158.038" y1="76.6362" x2="126.519" y2="60.7699" gradientUnits="userSpaceOnUse">
<stop offset="0.01" stop-color="#BBBFD9"/>
<stop offset="0.29" stop-color="#CACDE2"/>
<stop offset="0.84" stop-color="#F2F3F8"/>
<stop offset="1" stop-color="white"/>
</linearGradient>
<linearGradient id="paint3_linear_292_3070" x1="123.327" y1="74.2469" x2="117.109" y2="69.9927" gradientUnits="userSpaceOnUse">
<stop offset="0.32" stop-color="#9C9C9C"/>
<stop offset="0.5" stop-color="#ABABAB"/>
<stop offset="0.86" stop-color="#D3D3D3"/>
<stop offset="0.91" stop-color="#D9D9D9"/>
</linearGradient>
<linearGradient id="paint4_linear_292_3070" x1="117.808" y1="75.2665" x2="150.37" y2="75.2665" gradientUnits="userSpaceOnUse">
<stop offset="0.09" stop-color="#D9D9D9"/>
<stop offset="0.12" stop-color="#D6D6D6"/>
<stop offset="0.7" stop-color="#AEAEAE"/>
<stop offset="1" stop-color="#9F9F9F"/>
</linearGradient>
<linearGradient id="paint5_linear_292_3070" x1="72.1926" y1="67.4221" x2="77.0143" y2="67.4221" gradientUnits="userSpaceOnUse">
<stop stop-color="#753200"/>
<stop offset="1" stop-color="#A04400"/>
</linearGradient>
<linearGradient id="paint6_linear_292_3070" x1="89.3355" y1="73.6788" x2="88.6961" y2="67.3414" gradientUnits="userSpaceOnUse">
<stop stop-color="#464B8B"/>
<stop offset="0.28" stop-color="#393C76"/>
<stop offset="0.74" stop-color="#27275A"/>
<stop offset="1" stop-color="#201F4F"/>
</linearGradient>
<linearGradient id="paint7_linear_292_3070" x1="83.3354" y1="47.3029" x2="96.3685" y2="47.3029" gradientUnits="userSpaceOnUse">
<stop offset="0.09" stop-color="#E6E6E6"/>
<stop offset="1" stop-color="#DEDEDE"/>
</linearGradient>
<linearGradient id="paint8_linear_292_3070" x1="65.07" y1="48.6947" x2="86.1008" y2="48.6947" gradientUnits="userSpaceOnUse">
<stop stop-color="#201F4F"/>
<stop offset="0.26" stop-color="#27275A"/>
<stop offset="0.72" stop-color="#393C76"/>
<stop offset="1" stop-color="#464B8B"/>
</linearGradient>
<linearGradient id="paint9_linear_292_3070" x1="92.8326" y1="48.6654" x2="125.433" y2="48.6654" gradientUnits="userSpaceOnUse">
<stop stop-color="#464B8B"/>
<stop offset="0.28" stop-color="#393C76"/>
<stop offset="0.74" stop-color="#27275A"/>
<stop offset="1" stop-color="#201F4F"/>
</linearGradient>
<linearGradient id="paint10_linear_292_3070" x1="19.1256" y1="70.2038" x2="47.5929" y2="58.9072" gradientUnits="userSpaceOnUse">
<stop offset="0.01" stop-color="#BBBFD9"/>
<stop offset="0.29" stop-color="#CACDE2"/>
<stop offset="0.84" stop-color="#F2F3F8"/>
<stop offset="1" stop-color="white"/>
</linearGradient>
<linearGradient id="paint11_linear_292_3070" x1="82.7806" y1="35.2921" x2="82.5514" y2="30.1003" gradientUnits="userSpaceOnUse">
<stop stop-color="#464B8B"/>
<stop offset="0.28" stop-color="#393C76"/>
<stop offset="0.74" stop-color="#27275A"/>
<stop offset="1" stop-color="#201F4F"/>
</linearGradient>
<linearGradient id="paint12_linear_292_3070" x1="92.7402" y1="30.2698" x2="100.751" y2="30.2698" gradientUnits="userSpaceOnUse">
<stop stop-color="#464B8B"/>
<stop offset="0.28" stop-color="#393C76"/>
<stop offset="0.74" stop-color="#27275A"/>
<stop offset="1" stop-color="#201F4F"/>
</linearGradient>
<linearGradient id="paint13_linear_292_3070" x1="92.7402" y1="29.9273" x2="100.547" y2="29.9273" gradientUnits="userSpaceOnUse">
<stop stop-color="#201F4F"/>
<stop offset="0.26" stop-color="#27275A"/>
<stop offset="0.72" stop-color="#393C76"/>
<stop offset="1" stop-color="#464B8B"/>
</linearGradient>
<linearGradient id="paint14_linear_292_3070" x1="108.046" y1="23.0131" x2="85.8098" y2="14.3575" gradientUnits="userSpaceOnUse">
<stop stop-color="#753200"/>
<stop offset="1" stop-color="#A04400"/>
</linearGradient>
<linearGradient id="paint15_linear_292_3070" x1="84.9552" y1="21.2496" x2="92.6411" y2="28.1824" gradientUnits="userSpaceOnUse">
<stop stop-color="#A04400"/>
<stop offset="1" stop-color="#753200"/>
</linearGradient>
<linearGradient id="paint16_linear_292_3070" x1="84.427" y1="16.4556" x2="85.4201" y2="17.3513" gradientUnits="userSpaceOnUse">
<stop stop-color="#753200"/>
<stop offset="1" stop-color="#A04400"/>
</linearGradient>
<linearGradient id="paint17_linear_292_3070" x1="83.9689" y1="38.8657" x2="85.7249" y2="38.8657" gradientUnits="userSpaceOnUse">
<stop stop-color="#464B8B"/>
<stop offset="0.28" stop-color="#393C76"/>
<stop offset="0.74" stop-color="#27275A"/>
<stop offset="1" stop-color="#201F4F"/>
</linearGradient>
<linearGradient id="paint18_linear_292_3070" x1="83.7889" y1="45.4087" x2="85.546" y2="45.4087" gradientUnits="userSpaceOnUse">
<stop stop-color="#464B8B"/>
<stop offset="0.28" stop-color="#393C76"/>
<stop offset="0.74" stop-color="#27275A"/>
<stop offset="1" stop-color="#201F4F"/>
</linearGradient>
<linearGradient id="paint19_linear_292_3070" x1="83.0929" y1="52.0571" x2="84.8499" y2="52.0571" gradientUnits="userSpaceOnUse">
<stop stop-color="#464B8B"/>
<stop offset="0.28" stop-color="#393C76"/>
<stop offset="0.74" stop-color="#27275A"/>
<stop offset="1" stop-color="#201F4F"/>
</linearGradient>
<linearGradient id="paint20_linear_292_3070" x1="82.2148" y1="59.4712" x2="83.9709" y2="59.4712" gradientUnits="userSpaceOnUse">
<stop stop-color="#464B8B"/>
<stop offset="0.28" stop-color="#393C76"/>
<stop offset="0.74" stop-color="#27275A"/>
<stop offset="1" stop-color="#201F4F"/>
</linearGradient>
<linearGradient id="paint21_linear_292_3070" x1="80.8943" y1="67.5063" x2="82.6503" y2="67.5063" gradientUnits="userSpaceOnUse">
<stop stop-color="#464B8B"/>
<stop offset="0.28" stop-color="#393C76"/>
<stop offset="0.74" stop-color="#27275A"/>
<stop offset="1" stop-color="#201F4F"/>
</linearGradient>
<linearGradient id="paint22_linear_292_3070" x1="93.7813" y1="37.9221" x2="95.7969" y2="37.9221" gradientUnits="userSpaceOnUse">
<stop stop-color="#464B8B"/>
<stop offset="0.28" stop-color="#393C76"/>
<stop offset="0.74" stop-color="#27275A"/>
<stop offset="1" stop-color="#201F4F"/>
</linearGradient>
<linearGradient id="paint23_linear_292_3070" x1="94.4634" y1="44.4846" x2="96.48" y2="44.4846" gradientUnits="userSpaceOnUse">
<stop stop-color="#464B8B"/>
<stop offset="0.28" stop-color="#393C76"/>
<stop offset="0.74" stop-color="#27275A"/>
<stop offset="1" stop-color="#201F4F"/>
</linearGradient>
<linearGradient id="paint24_linear_292_3070" x1="95.4627" y1="51.3595" x2="97.5738" y2="51.3595" gradientUnits="userSpaceOnUse">
<stop stop-color="#464B8B"/>
<stop offset="0.28" stop-color="#393C76"/>
<stop offset="0.74" stop-color="#27275A"/>
<stop offset="1" stop-color="#201F4F"/>
</linearGradient>
<linearGradient id="paint25_linear_292_3070" x1="96.112" y1="58.6915" x2="98.2221" y2="58.6915" gradientUnits="userSpaceOnUse">
<stop stop-color="#464B8B"/>
<stop offset="0.28" stop-color="#393C76"/>
<stop offset="0.74" stop-color="#27275A"/>
<stop offset="1" stop-color="#201F4F"/>
</linearGradient>
<linearGradient id="paint26_linear_292_3070" x1="97.1432" y1="67.0594" x2="99.2841" y2="67.0594" gradientUnits="userSpaceOnUse">
<stop stop-color="#464B8B"/>
<stop offset="0.28" stop-color="#393C76"/>
<stop offset="0.74" stop-color="#27275A"/>
<stop offset="1" stop-color="#201F4F"/>
</linearGradient>
<linearGradient id="paint27_linear_292_3070" x1="96.0643" y1="49.9168" x2="102.249" y2="49.9168" gradientUnits="userSpaceOnUse">
<stop stop-color="#201F4F"/>
<stop offset="0.26" stop-color="#27275A"/>
<stop offset="0.72" stop-color="#393C76"/>
<stop offset="1" stop-color="#464B8B"/>
</linearGradient>
<linearGradient id="paint28_linear_292_3070" x1="79.6603" y1="43.9005" x2="79.8423" y2="39.2447" gradientUnits="userSpaceOnUse">
<stop stop-color="#201F4F"/>
<stop offset="0.26" stop-color="#27275A"/>
<stop offset="0.72" stop-color="#393C76"/>
<stop offset="1" stop-color="#464B8B"/>
</linearGradient>
<linearGradient id="paint29_linear_292_3070" x1="79.6603" y1="43.5568" x2="79.8424" y2="38.9001" gradientUnits="userSpaceOnUse">
<stop stop-color="#464B8B"/>
<stop offset="0.28" stop-color="#393C76"/>
<stop offset="0.74" stop-color="#27275A"/>
<stop offset="1" stop-color="#201F4F"/>
</linearGradient>
<linearGradient id="paint30_linear_292_3070" x1="76.192" y1="48.2575" x2="83.6447" y2="48.2575" gradientUnits="userSpaceOnUse">
<stop stop-color="#464B8B"/>
<stop offset="0.28" stop-color="#393C76"/>
<stop offset="0.74" stop-color="#27275A"/>
<stop offset="1" stop-color="#201F4F"/>
</linearGradient>
<linearGradient id="paint31_linear_292_3070" x1="80.4767" y1="120.221" x2="80.4767" y2="72.3406" gradientUnits="userSpaceOnUse">
<stop offset="0.31" stop-color="white"/>
<stop offset="0.44" stop-color="#ECEDF4"/>
<stop offset="0.69" stop-color="#CACDE2"/>
<stop offset="0.99" stop-color="#BBBFD9"/>
</linearGradient>
<linearGradient id="paint32_linear_292_3070" x1="100.202" y1="88.4331" x2="101.835" y2="72.1065" gradientUnits="userSpaceOnUse">
<stop offset="0.01" stop-color="#BBBFD9"/>
<stop offset="0.29" stop-color="#CACDE2"/>
<stop offset="0.84" stop-color="#F2F3F8"/>
<stop offset="1" stop-color="white"/>
</linearGradient>
<linearGradient id="paint33_linear_292_3070" x1="129.824" y1="63.6879" x2="124.533" y2="60.5721" gradientUnits="userSpaceOnUse">
<stop stop-color="#A04400"/>
<stop offset="1" stop-color="#753200"/>
</linearGradient>
<linearGradient id="paint34_linear_292_3070" x1="133.719" y1="80.9278" x2="141.939" y2="80.9278" gradientUnits="userSpaceOnUse">
<stop stop-color="#C2C2C2"/>
<stop offset="1" stop-color="#BDBDBD"/>
</linearGradient>
<linearGradient id="paint35_linear_292_3070" x1="116.763" y1="96.7683" x2="122.386" y2="85.2687" gradientUnits="userSpaceOnUse">
<stop offset="0.01" stop-color="#BBBFD9"/>
<stop offset="0.29" stop-color="#CACDE2"/>
<stop offset="0.84" stop-color="#F2F3F8"/>
<stop offset="1" stop-color="white"/>
</linearGradient>
<linearGradient id="paint36_linear_292_3070" x1="141.504" y1="56.0321" x2="129.647" y2="43.4977" gradientUnits="userSpaceOnUse">
<stop stop-color="#753200"/>
<stop offset="1" stop-color="#A04400"/>
</linearGradient>
<linearGradient id="paint37_linear_292_3070" x1="129.803" y1="46.3668" x2="134.567" y2="45.2203" gradientUnits="userSpaceOnUse">
<stop stop-color="#A04400" stop-opacity="0"/>
<stop offset="0.18" stop-color="#9A4100" stop-opacity="0.14"/>
<stop offset="0.52" stop-color="#8A3B00" stop-opacity="0.52"/>
<stop offset="0.9" stop-color="#753200"/>
</linearGradient>
<linearGradient id="paint38_linear_292_3070" x1="124.492" y1="53.6264" x2="127.032" y2="53.6264" gradientUnits="userSpaceOnUse">
<stop stop-color="#753200"/>
<stop offset="1" stop-color="#A04400"/>
</linearGradient>
<linearGradient id="paint39_linear_292_3070" x1="137.579" y1="59.2277" x2="126.17" y2="47.1658" gradientUnits="userSpaceOnUse">
<stop stop-color="#753200"/>
<stop offset="1" stop-color="#A04400"/>
</linearGradient>
<linearGradient id="paint40_linear_292_3070" x1="85.4605" y1="29.4546" x2="81.2913" y2="31.1911" gradientUnits="userSpaceOnUse">
<stop stop-color="#464B8B"/>
<stop offset="0.28" stop-color="#393C76"/>
<stop offset="0.74" stop-color="#27275A"/>
<stop offset="1" stop-color="#201F4F"/>
</linearGradient>
<linearGradient id="paint41_linear_292_3070" x1="83.5881" y1="37.0781" x2="86.075" y2="37.0781" gradientUnits="userSpaceOnUse">
<stop stop-color="#201F4F"/>
<stop offset="0.26" stop-color="#27275A"/>
<stop offset="0.72" stop-color="#393C76"/>
<stop offset="1" stop-color="#464B8B"/>
</linearGradient>
<linearGradient id="paint42_linear_292_3070" x1="92.947" y1="36.3821" x2="96.1299" y2="36.3821" gradientUnits="userSpaceOnUse">
<stop stop-color="#464B8B"/>
<stop offset="0.28" stop-color="#393C76"/>
<stop offset="0.74" stop-color="#27275A"/>
<stop offset="1" stop-color="#201F4F"/>
</linearGradient>
<linearGradient id="paint43_linear_292_3070" x1="58.6117" y1="102.466" x2="91.537" y2="102.466" gradientUnits="userSpaceOnUse">
<stop offset="0.01" stop-color="#BBBFD9"/>
<stop offset="0.77" stop-color="#CACDE1"/>
<stop offset="1" stop-color="#D0D2E4"/>
</linearGradient>
<linearGradient id="paint44_linear_292_3070" x1="40.1335" y1="107.829" x2="53.1606" y2="104.458" gradientUnits="userSpaceOnUse">
<stop stop-color="#ABAAEA"/>
<stop offset="1" stop-color="#E7EEFE"/>
</linearGradient>
<linearGradient id="paint45_linear_292_3070" x1="40.734" y1="103.477" x2="52.4297" y2="103.477" gradientUnits="userSpaceOnUse">
<stop stop-color="#CDCCFF"/>
<stop offset="0.89" stop-color="#8988D5"/>
</linearGradient>
<linearGradient id="paint46_linear_292_3070" x1="33.4503" y1="98.8958" x2="46.8016" y2="98.8958" gradientUnits="userSpaceOnUse">
<stop stop-color="#201F4F"/>
<stop offset="0.26" stop-color="#27275A"/>
<stop offset="0.72" stop-color="#393C76"/>
<stop offset="1" stop-color="#464B8B"/>
</linearGradient>
<linearGradient id="paint47_linear_292_3070" x1="43.8703" y1="97.8308" x2="39.0626" y2="95.9462" gradientUnits="userSpaceOnUse">
<stop stop-color="#1F1844"/>
<stop offset="0.99" stop-color="#3D3C99"/>
</linearGradient>
<linearGradient id="paint48_linear_292_3070" x1="44.8328" y1="101.034" x2="38.9227" y2="100.238" gradientUnits="userSpaceOnUse">
<stop stop-color="#1F1844"/>
<stop offset="0.99" stop-color="#3D3C99"/>
</linearGradient>
<linearGradient id="paint49_linear_292_3070" x1="41.4408" y1="93.3271" x2="42.6261" y2="91.9751" gradientUnits="userSpaceOnUse">
<stop stop-color="#E0E4EB"/>
<stop offset="0.99" stop-color="#F3F6FD"/>
</linearGradient>
<linearGradient id="paint50_linear_292_3070" x1="41.2354" y1="98.1488" x2="41.7108" y2="96.4795" gradientUnits="userSpaceOnUse">
<stop stop-color="#E0E4EB"/>
<stop offset="0.99" stop-color="#F3F6FD"/>
</linearGradient>
<linearGradient id="paint51_linear_292_3070" x1="45.8595" y1="91.8485" x2="46.8999" y2="93.2989" gradientUnits="userSpaceOnUse">
<stop stop-color="#E0E4EB"/>
<stop offset="0.99" stop-color="#F3F6FD"/>
</linearGradient>
<linearGradient id="paint52_linear_292_3070" x1="45.8528" y1="96.3018" x2="46.6824" y2="97.9003" gradientUnits="userSpaceOnUse">
<stop stop-color="#E0E4EB"/>
<stop offset="0.99" stop-color="#F3F6FD"/>
</linearGradient>
<linearGradient id="paint53_linear_292_3070" x1="44.071" y1="97.388" x2="46.6326" y2="96.702" gradientUnits="userSpaceOnUse">
<stop stop-color="#E0E4EB"/>
<stop offset="0.99" stop-color="#F3F6FD"/>
</linearGradient>
<linearGradient id="paint54_linear_292_3070" x1="41.3906" y1="101.555" x2="41.4496" y2="99.8942" gradientUnits="userSpaceOnUse">
<stop stop-color="#E0E4EB"/>
<stop offset="0.99" stop-color="#F3F6FD"/>
</linearGradient>
<linearGradient id="paint55_linear_292_3070" x1="46.9076" y1="98.8207" x2="47.5333" y2="100.683" gradientUnits="userSpaceOnUse">
<stop stop-color="#E0E4EB"/>
<stop offset="0.99" stop-color="#F3F6FD"/>
</linearGradient>
<linearGradient id="paint56_linear_292_3070" x1="46.3174" y1="85.8454" x2="45.1593" y2="91.1775" gradientUnits="userSpaceOnUse">
<stop stop-color="#E6EAF1"/>
<stop offset="0.99" stop-color="#F3F6FD"/>
</linearGradient>
<linearGradient id="paint57_linear_292_3070" x1="133.537" y1="58.1004" x2="146.943" y2="52.963" gradientUnits="userSpaceOnUse">
<stop stop-color="#753200"/>
<stop offset="1" stop-color="#A04400"/>
</linearGradient>
<linearGradient id="paint58_linear_292_3070" x1="43.5123" y1="58.4656" x2="46.2058" y2="41.843" gradientUnits="userSpaceOnUse">
<stop offset="0.38" stop-color="#201F4F"/>
<stop offset="0.54" stop-color="#27275A"/>
<stop offset="0.83" stop-color="#393C76"/>
<stop offset="1" stop-color="#464B8B"/>
</linearGradient>
<linearGradient id="paint59_linear_292_3070" x1="70.8314" y1="97.5436" x2="100.922" y2="97.5436" gradientUnits="userSpaceOnUse">
<stop stop-color="white"/>
<stop offset="0.16" stop-color="#F2F3F8"/>
<stop offset="0.71" stop-color="#CACDE2"/>
<stop offset="0.99" stop-color="#BBBFD9"/>
</linearGradient>
<linearGradient id="paint60_linear_292_3070" x1="54.1073" y1="82.5721" x2="65.0791" y2="82.5721" gradientUnits="userSpaceOnUse">
<stop stop-color="#753200"/>
<stop offset="1" stop-color="#A04400"/>
</linearGradient>
<linearGradient id="paint61_linear_292_3070" x1="31.5124" y1="47.7117" x2="50.1677" y2="37.9881" gradientUnits="userSpaceOnUse">
<stop stop-color="#753200"/>
<stop offset="1" stop-color="#A04400"/>
</linearGradient>
<linearGradient id="paint62_linear_292_3070" x1="40.1343" y1="52.5591" x2="47.8114" y2="58.0384" gradientUnits="userSpaceOnUse">
<stop stop-color="#A04400"/>
<stop offset="1" stop-color="#753200"/>
</linearGradient>
<linearGradient id="paint63_linear_292_3070" x1="39.1278" y1="48.3196" x2="40.119" y2="49.0269" gradientUnits="userSpaceOnUse">
<stop stop-color="#753200"/>
<stop offset="1" stop-color="#A04400"/>
</linearGradient>
<linearGradient id="paint64_linear_292_3070" x1="30.1262" y1="48.3607" x2="60.0873" y2="48.3607" gradientUnits="userSpaceOnUse">
<stop stop-color="#201F4F"/>
<stop offset="0.26" stop-color="#27275A"/>
<stop offset="0.72" stop-color="#393C76"/>
<stop offset="1" stop-color="#464B8B"/>
</linearGradient>
<linearGradient id="paint65_linear_292_3070" x1="54.496" y1="52.8169" x2="38.2688" y2="48.7459" gradientUnits="userSpaceOnUse">
<stop stop-color="#753200"/>
<stop offset="1" stop-color="#A04400"/>
</linearGradient>
<linearGradient id="paint66_linear_292_3070" x1="50.0065" y1="43.2053" x2="41.2085" y2="47.9159" gradientUnits="userSpaceOnUse">
<stop offset="0.1" stop-color="#753200"/>
<stop offset="0.48" stop-color="#8A3B00" stop-opacity="0.52"/>
<stop offset="0.82" stop-color="#9A4100" stop-opacity="0.14"/>
<stop offset="1" stop-color="#A04400" stop-opacity="0"/>
</linearGradient>
<linearGradient id="paint67_linear_292_3070" x1="38.9392" y1="52.1119" x2="46.9546" y2="57.1258" gradientUnits="userSpaceOnUse">
<stop stop-color="#A04400"/>
<stop offset="1" stop-color="#753200"/>
</linearGradient>
<linearGradient id="paint68_linear_292_3070" x1="23.2761" y1="98.618" x2="23.2761" y2="92.5335" gradientUnits="userSpaceOnUse">
<stop stop-color="#201F4F"/>
<stop offset="0.26" stop-color="#27275A"/>
<stop offset="0.72" stop-color="#393C76"/>
<stop offset="1" stop-color="#464B8B"/>
</linearGradient>
<linearGradient id="paint69_linear_292_3070" x1="20.3665" y1="93.9745" x2="20.3665" y2="74.5792" gradientUnits="userSpaceOnUse">
<stop stop-color="#201F4F"/>
<stop offset="0.26" stop-color="#27275A"/>
<stop offset="0.72" stop-color="#393C76"/>
<stop offset="1" stop-color="#464B8B"/>
</linearGradient>
<linearGradient id="paint70_linear_292_3070" x1="30.5198" y1="77.5044" x2="23.6802" y2="69.3565" gradientUnits="userSpaceOnUse">
<stop stop-color="#201F4F"/>
<stop offset="0.26" stop-color="#27275A"/>
<stop offset="0.72" stop-color="#393C76"/>
<stop offset="1" stop-color="#464B8B"/>
</linearGradient>
<clipPath id="clip0_292_3070">
<rect width="163.575" height="120" fill="white"/>
</clipPath>
</defs>
</svg>
