<svg width="40" height="41" viewBox="0 0 40 41" fill="none" xmlns="http://www.w3.org/2000/svg">
<path d="M27.5076 21.803H21.1029V18.1577H31.9351C32.0661 18.781 32.1578 19.3935 32.1578 20.206C32.1578 23.5824 31.004 26.4422 29.0082 28.4563C27.0131 30.4697 24.1466 31.6684 20.6637 31.6684C14.0357 31.6684 8.67187 26.3989 8.67187 19.9255C8.67187 13.4521 14.0357 8.18252 20.6637 8.18252C23.7214 8.18252 26.2994 9.21582 28.3201 10.9265L25.4405 13.6689C24.4468 12.8561 22.8735 12.0229 20.6637 12.0229C16.2963 12.0229 12.7335 15.5778 12.7335 19.9377C12.7335 24.2976 16.2963 27.8524 20.6637 27.8524C23.1586 27.8524 24.9035 27.0025 26.0667 25.8692C27.2196 24.7459 27.7776 23.3677 27.953 22.3299L28.042 21.803H27.5076Z" fill="black" stroke="black" stroke-width="0.903305"/>
<rect x="0.541984" y="0.956261" width="38.8421" height="38.8421" rx="10.8397" stroke="black" stroke-width="0.903305"/>
</svg>
