<svg width="145" height="120" viewBox="0 0 145 120" fill="none" xmlns="http://www.w3.org/2000/svg">
<g id="Layer_1" clip-path="url(#clip0_292_3004)">
<path id="Vector" d="M69.2067 117.417C101.645 117.417 127.941 91.1321 127.941 58.7084C127.941 26.2846 101.645 0 69.2067 0C36.7689 0 10.4728 26.2846 10.4728 58.7084C10.4728 91.1321 36.7689 117.417 69.2067 117.417Z" fill="#F4F4F4"/>
<path id="Vector_2" d="M72.1068 120.001C111.93 120.001 144.214 119.124 144.214 118.042C144.214 116.959 111.93 116.082 72.1068 116.082C32.2833 116.082 0 116.959 0 118.042C0 119.124 32.2833 120.001 72.1068 120.001Z" fill="#EBF4FB"/>
<path id="Vector_3" d="M62.3888 118.863C92.2684 118.863 116.491 118.392 116.491 117.812C116.491 117.232 92.2684 116.762 62.3888 116.762C32.5091 116.762 8.28687 117.232 8.28687 117.812C8.28687 118.392 32.5091 118.863 62.3888 118.863Z" fill="#C5E1F9"/>
<path id="Vector_4" d="M107.823 117.728C107.838 117.73 107.853 117.73 107.867 117.728C107.921 117.717 107.969 117.684 107.999 117.638C108.03 117.591 108.041 117.535 108.029 117.481L101.656 86.6829C101.645 86.6285 101.613 86.5808 101.567 86.5502C101.52 86.5196 101.464 86.5087 101.409 86.5199C101.355 86.5311 101.307 86.5634 101.276 86.6097C101.246 86.6561 101.235 86.7127 101.246 86.7671L107.619 117.574C107.631 117.618 107.658 117.658 107.695 117.686C107.732 117.714 107.777 117.729 107.823 117.728Z" fill="#00152E"/>
<path id="Vector_5" d="M83.0472 117.729C83.0953 117.729 83.142 117.713 83.1793 117.682C83.2166 117.652 83.2422 117.609 83.2516 117.562L89.6261 86.7554C89.6373 86.701 89.6263 86.6444 89.5958 86.598C89.5652 86.5516 89.5174 86.5193 89.463 86.5082C89.4086 86.497 89.3519 86.5079 89.3055 86.5385C89.2592 86.5691 89.2268 86.6168 89.2157 86.6712L82.8427 117.476C82.837 117.503 82.8366 117.531 82.8417 117.558C82.8468 117.585 82.8572 117.611 82.8723 117.634C82.8874 117.657 82.9069 117.677 82.9296 117.692C82.9524 117.708 82.9781 117.719 83.0051 117.724L83.0472 117.729Z" fill="#C5E1F9"/>
<path id="Vector_6" d="M91.5414 117.729C91.5559 117.731 91.5705 117.731 91.585 117.729C91.6393 117.718 91.6869 117.685 91.7173 117.639C91.7477 117.592 91.7585 117.536 91.7474 117.481L85.3744 86.679C85.3633 86.6246 85.3309 86.5769 85.2845 86.5463C85.2382 86.5157 85.1815 86.5048 85.1271 86.516C85.0727 86.5271 85.0249 86.5595 84.9943 86.6058C84.9637 86.6522 84.9528 86.7088 84.964 86.7632L91.337 117.57C91.3484 117.615 91.3747 117.656 91.4118 117.685C91.4488 117.714 91.4945 117.729 91.5414 117.729Z" fill="#00152E"/>
<path id="Vector_7" d="M66.7652 117.729C66.8133 117.729 66.8601 117.713 66.8974 117.682C66.9347 117.652 66.9602 117.609 66.9696 117.562L73.3441 86.7554C73.3553 86.701 73.3444 86.6444 73.3138 86.598C73.2832 86.5516 73.2354 86.5193 73.181 86.5082C73.1266 86.497 73.0699 86.5079 73.0236 86.5385C72.9772 86.5691 72.9448 86.6168 72.9337 86.6712L66.5607 117.476C66.555 117.503 66.5547 117.531 66.5597 117.558C66.5648 117.585 66.5752 117.611 66.5903 117.634C66.6054 117.657 66.6249 117.677 66.6477 117.692C66.6705 117.708 66.6961 117.719 66.7231 117.724L66.7652 117.729Z" fill="#C5E1F9"/>
<path id="Vector_8" d="M90.6259 52.9466C92.6886 49.4001 101.852 46.9911 103.706 47.8687L103.724 47.8808C104.039 48.0338 104.332 48.2273 104.597 48.4563C118.828 61.4086 111.964 86.3109 102.041 86.3109C96.0532 86.3109 81.0145 86.8609 77.2981 86.8609C77.2936 86.8579 89.9974 54.4719 90.6259 52.9466Z" fill="#FFDD33"/>
<path id="Vector_9" d="M110.035 60.7257C108.947 54.1031 105.675 48.0424 105.58 51.0645C105.28 61.3118 100.631 68.4199 92.9006 71.1639C87.5229 73.0739 80.8087 83.7616 68.5453 85.099C71.6814 88.5148 99.7667 85.4642 99.7667 85.4642C99.7667 85.4642 112.484 75.6421 110.035 60.7257Z" fill="#FFC933"/>
<path id="Vector_10" d="M65.5219 117.726C65.5364 117.728 65.551 117.728 65.5655 117.726C65.6198 117.715 65.6674 117.682 65.6978 117.636C65.7282 117.589 65.739 117.533 65.7279 117.478L54.3515 62.5044C54.3471 62.4765 54.3371 62.4498 54.3221 62.4258C54.307 62.4019 54.2873 62.3813 54.2641 62.3652C54.2408 62.3492 54.2146 62.338 54.1869 62.3323C54.1592 62.3267 54.1307 62.3267 54.103 62.3324C54.0753 62.3381 54.0491 62.3494 54.0259 62.3655C54.0027 62.3816 53.983 62.4022 53.968 62.4262C53.953 62.4501 53.943 62.4768 53.9387 62.5047C53.9343 62.5326 53.9356 62.5611 53.9426 62.5885L65.3175 117.56C65.3274 117.606 65.3531 117.649 65.3903 117.679C65.4275 117.709 65.4739 117.726 65.5219 117.726Z" fill="#C5E1F9"/>
<path id="Vector_11" d="M21.2989 117.729C21.347 117.729 21.3937 117.713 21.431 117.682C21.4684 117.652 21.4939 117.61 21.5033 117.562L32.8797 62.5913C32.8908 62.5369 32.8799 62.4803 32.8493 62.4339C32.8187 62.3876 32.771 62.3553 32.7165 62.3441C32.6621 62.333 32.6055 62.3439 32.5591 62.3744C32.5127 62.405 32.4804 62.4528 32.4692 62.5072L21.0944 117.477C21.0887 117.504 21.0883 117.531 21.0934 117.558C21.0985 117.586 21.1089 117.611 21.124 117.634C21.1391 117.657 21.1586 117.677 21.1814 117.693C21.2041 117.708 21.2298 117.719 21.2568 117.725C21.2706 117.728 21.2847 117.729 21.2989 117.729Z" fill="#C5E1F9"/>
<path id="Vector_12" d="M33.6585 63.0988H53.9546C54.5571 63.0988 55.1349 62.8596 55.5609 62.4337C55.9869 62.0079 56.2263 61.4303 56.2263 60.8281H31.3868C31.3866 61.1264 31.4453 61.4217 31.5594 61.6973C31.6734 61.9729 31.8408 62.2233 32.0518 62.4342C32.2627 62.6451 32.5132 62.8123 32.7889 62.9264C33.0646 63.0404 33.3601 63.099 33.6585 63.0988Z" fill="#00152E"/>
<path id="Vector_13" d="M35.2596 57.1081H37.0637L37.1434 57.0765C37.2397 57.0361 37.3159 56.959 37.3554 56.8624C37.3949 56.7657 37.3943 56.6573 37.3539 56.5611L29.506 37.7916C29.4835 37.7376 29.4475 37.6903 29.4014 37.6543C29.3554 37.6182 29.3008 37.5946 29.2429 37.5857L27.272 37.2852L35.2596 57.1081Z" fill="#00152E"/>
<path id="Vector_14" d="M26.9202 37.8464L34.8883 56.8608C34.9087 56.9099 34.9386 56.9544 34.9762 56.9919C35.0139 57.0293 35.0586 57.059 35.1078 57.0791C35.157 57.0992 35.2097 57.1094 35.2628 57.1091C35.316 57.1087 35.3686 57.0979 35.4175 57.0772C35.5164 57.0357 35.5948 56.9568 35.6356 56.8576C35.6765 56.7585 35.6764 56.6473 35.6355 56.5482L27.6674 37.5338C27.6259 37.435 27.5469 37.3566 27.4477 37.3157C27.3486 37.2749 27.2373 37.275 27.1382 37.3159C27.0389 37.3574 26.9602 37.4366 26.9194 37.536C26.8785 37.6355 26.8788 37.7471 26.9202 37.8464Z" fill="#EBF4FB"/>
<path id="Vector_15" d="M56.1946 58.5599H58.2062C58.4208 58.5595 58.6266 58.474 58.7782 58.3221C58.9299 58.1703 59.015 57.9645 59.015 57.7499C59.015 57.5355 58.9298 57.3298 58.7781 57.1782C58.6264 57.0266 58.4207 56.9414 58.2062 56.9414H56.1946C56.0883 56.9412 55.9829 56.962 55.8846 57.0025C55.7863 57.0431 55.697 57.1026 55.6217 57.1777C55.5464 57.2528 55.4867 57.342 55.446 57.4402C55.4052 57.5383 55.3843 57.6436 55.3843 57.7499C55.3843 57.9647 55.4696 58.1707 55.6216 58.3226C55.7736 58.4745 55.9797 58.5599 56.1946 58.5599Z" fill="#00152E"/>
<path id="Vector_16" d="M36.0759 58.5599H56.1946C56.4093 58.5595 56.615 58.474 56.7667 58.3221C56.9183 58.1703 57.0035 57.9645 57.0035 57.7499C57.0035 57.5355 56.9183 57.3298 56.7666 57.1782C56.6149 57.0266 56.4091 56.9414 56.1946 56.9414H36.0759C35.8614 56.9414 35.6557 57.0266 35.504 57.1782C35.3523 57.3298 35.2671 57.5355 35.2671 57.7499C35.2671 57.9645 35.3523 58.1703 35.5039 58.3221C35.6555 58.474 35.8613 58.5595 36.0759 58.5599Z" fill="#EBF4FB"/>
<path id="Vector_17" d="M35.8655 57.7474C35.8655 57.811 35.8843 57.8732 35.9197 57.926C35.9551 57.9789 36.0053 58.0201 36.0641 58.0445C36.1229 58.0688 36.1876 58.0752 36.25 58.0628C36.3124 58.0504 36.3697 58.0197 36.4147 57.9748C36.4597 57.9298 36.4903 57.8725 36.5028 57.8101C36.5152 57.7477 36.5088 57.6831 36.4845 57.6243C36.4601 57.5655 36.4189 57.5153 36.366 57.48C36.313 57.4446 36.2508 57.4258 36.1872 57.4258C36.1019 57.4258 36.02 57.4597 35.9597 57.52C35.8994 57.5803 35.8655 57.6621 35.8655 57.7474Z" fill="#00152E"/>
<path id="Vector_18" d="M52.4647 58.0677H54.0072C54.0597 58.0633 54.1087 58.0392 54.1444 58.0004C54.1801 57.9616 54.1999 57.9108 54.1999 57.8581C54.1999 57.8054 54.1801 57.7546 54.1444 57.7157C54.1087 57.6769 54.0597 57.6529 54.0072 57.6484H52.4647C52.4121 57.6529 52.3631 57.6769 52.3275 57.7157C52.2918 57.7546 52.272 57.8054 52.272 57.8581C52.272 57.9108 52.2918 57.9616 52.3275 58.0004C52.3631 58.0392 52.4121 58.0633 52.4647 58.0677Z" fill="#00152E"/>
<path id="Vector_19" d="M49.4895 58.0677H51.032C51.0845 58.0633 51.1335 58.0392 51.1692 58.0004C51.2049 57.9616 51.2247 57.9108 51.2247 57.8581C51.2247 57.8054 51.2049 57.7546 51.1692 57.7157C51.1335 57.6769 51.0845 57.6529 51.032 57.6484H49.4895C49.4369 57.6529 49.3879 57.6769 49.3523 57.7157C49.3166 57.7546 49.2968 57.8054 49.2968 57.8581C49.2968 57.9108 49.3166 57.9616 49.3523 58.0004C49.3879 58.0392 49.4369 58.0633 49.4895 58.0677Z" fill="#00152E"/>
<path id="Vector_20" d="M31.3507 109.313C31.9987 108.058 32.6767 106.82 33.4284 105.624C39.3609 96.1713 44.5086 83.3948 46.884 70.2246C47.3816 67.458 49.4052 65.9853 51.1597 65.7344L55.682 77.5386C55.3377 85.8699 47.4508 94.353 35.9767 107.011L35.664 110C35.664 110 28.6446 116.861 26.0933 115.129C28.7348 113.721 30.4622 111.046 31.3507 109.313Z" fill="#70230A"/>
<path id="Vector_21" d="M35.9768 107.012C36.8586 107.407 37.5792 108.091 38.0198 108.951C38.4604 109.81 38.5946 110.795 38.4003 111.741L37.2141 117.513H36.542V111.37C34.7972 111.815 33.2675 112.866 32.2257 114.335L30.1841 117.212C30.1179 117.305 30.0304 117.381 29.9289 117.433C29.8274 117.486 29.7149 117.513 29.6008 117.513H23.4368C23.3573 117.513 23.2789 117.495 23.2072 117.461C23.1356 117.427 23.0726 117.377 23.0228 117.315C22.973 117.253 22.9378 117.181 22.9196 117.103C22.9015 117.026 22.901 116.946 22.9181 116.868C22.9978 116.507 23.1852 116.179 23.4555 115.926C23.7258 115.674 24.0662 115.509 24.432 115.454L24.7177 115.412C28.006 114.919 30.9886 113.207 33.0737 110.618L35.9768 107.012Z" fill="#00152E"/>
<path id="Vector_22" d="M53.6734 64.8506C54.9672 64.6063 56.2914 64.5673 57.5974 64.7349L91.4242 68.7547C91.7429 68.7953 88.482 84.8704 88.482 84.8704C80.8041 84.0333 72.7984 82.1173 64.4018 78.9089C67.7214 89.6747 65.7549 103.09 67.6717 107.011C67.7229 108.549 68.9797 108.097 69.0128 109.045L60.5591 115.369C60.1738 115.641 59.7011 115.762 59.2324 115.706C58.7637 115.651 58.3322 115.423 58.0213 115.068L58.5746 114.649C60.3075 113.336 61.8072 111.741 63.0112 109.93C63.512 109.177 63.8372 108.321 63.9626 107.426C64.0881 106.53 64.0105 105.618 63.7358 104.756C59.663 92.0445 54.4462 81.5357 49.6292 72.0894C47.8221 68.2092 49.524 65.6741 53.6734 64.8506Z" fill="#8C3012"/>
<path id="Vector_23" d="M59.2571 72.3398C62.8187 74.1973 67.8265 82.4084 68.7737 74.4512C74.4055 74.6601 74.5874 77.5003 74.5874 77.5003L73.9109 82.0462C70.7938 81.1836 67.6226 80.1382 64.3972 78.9099C62.3541 74.6105 59.2571 72.3398 59.2571 72.3398Z" fill="#70230A"/>
<path id="Vector_24" d="M67.6717 107.012C68.5539 107.406 69.2749 108.09 69.7156 108.95C70.1562 109.81 70.2902 110.795 70.0952 111.741L68.909 117.513H68.2385V111.37C66.4931 111.815 64.9628 112.866 63.9207 114.335L61.8836 117.217C61.8174 117.31 61.7299 117.386 61.6284 117.438C61.5269 117.49 61.4144 117.518 61.3003 117.517H55.1363C55.0569 117.517 54.9787 117.499 54.9072 117.465C54.8358 117.431 54.7729 117.381 54.7233 117.319C54.6737 117.257 54.6386 117.185 54.6205 117.108C54.6025 117.03 54.602 116.95 54.6191 116.873C54.6984 116.512 54.8854 116.183 55.1554 115.931C55.4255 115.678 55.7658 115.514 56.1315 115.459L56.4172 115.417C59.7046 114.921 62.6855 113.208 64.7686 110.618L67.6717 107.012Z" fill="#00152E"/>
<path id="Vector_25" d="M84.5851 32.7342C81.4385 29.7843 77.8197 23.3104 81.6986 15.6704C81.6986 15.6704 85.4165 13.4057 88.7541 11.8714C94.894 9.0522 103.467 15.7395 99.6298 25.7719C96.3734 34.2775 84.5851 32.7342 84.5851 32.7342Z" fill="#00152E"/>
<path id="Vector_26" d="M93.6897 42.17C97.8057 41.2005 100.256 36.6536 99.162 32.0143C98.0683 27.3749 93.8449 24.4 89.7289 25.3695C85.6128 26.339 83.1628 30.8859 84.2565 35.5253C85.3503 40.1646 89.5737 43.1396 93.6897 42.17Z" fill="#00152E"/>
<path id="Vector_27" d="M92.3755 50.3164C95.7475 49.9913 98.1837 46.6464 97.8169 42.8454C97.4501 39.0445 94.4191 36.2268 91.0471 36.5519C87.6751 36.877 85.2389 40.2219 85.6057 44.0229C85.9725 47.8239 89.0035 50.6416 92.3755 50.3164Z" fill="#00152E"/>
<path id="Vector_28" d="M81.3528 31.6767C78.6752 38.7878 76.2066 41.9782 74.9287 43.2345C78.372 42.7317 81.7055 41.6505 84.7881 40.0366C86.9305 38.8885 91.1115 41.5393 92.1007 43.2149C93.0734 44.8605 90.032 46.2445 87.8295 46.7705C87.8295 46.7705 76.9628 49.1839 69.5059 47.6541C68.9271 47.5354 66.8118 47.053 67.7619 45.451C69.7825 42.0428 75.0264 39.0072 79.2691 31.262L81.3528 31.6767Z" fill="#70230A"/>
<path id="Vector_29" d="M81.3529 31.676L83.5328 29.0837L80.4298 25.7371C80.227 25.5916 79.9883 25.5043 79.7394 25.4847C79.4906 25.4651 79.2411 25.5139 79.018 25.6259L78.5189 25.8768C78.1734 26.0498 77.8901 26.3257 77.708 26.6665C77.526 27.0073 77.4542 27.3961 77.5026 27.7793L78.1761 33.1307L81.3529 31.676Z" fill="#70230A"/>
<path id="Vector_30" d="M76.9563 28.0694L79.0876 31.5649C79.142 31.6542 79.2586 31.6824 79.3479 31.628L86.4588 27.2962C86.5482 27.2418 86.5764 27.1253 86.522 27.036L84.3907 23.5405C84.3363 23.4512 84.2197 23.4229 84.1304 23.4773L77.0195 27.8091C76.9302 27.8636 76.9019 27.9801 76.9563 28.0694Z" fill="white"/>
<path id="Vector_31" d="M78.2588 27.4423L80.2422 30.6953L86.0821 27.1377L84.0988 23.8847L78.2588 27.4423Z" fill="#00152E"/>
<path id="Vector_32" d="M79.436 26.4624L80.6899 25.8613C80.885 25.7664 81.0477 25.6159 81.1574 25.4287C81.2671 25.2415 81.3189 25.026 81.3063 24.8094C81.3039 24.7796 81.2943 24.7509 81.2783 24.7257C81.2623 24.7005 81.2404 24.6796 81.2144 24.6648C81.1885 24.65 81.1593 24.6417 81.1295 24.6407C81.0997 24.6397 81.07 24.646 81.0432 24.6591L79.0226 25.6194C78.9673 25.6462 78.9178 25.6836 78.8769 25.7295C78.8361 25.7755 78.8047 25.829 78.7846 25.8871C78.7645 25.9451 78.7561 26.0066 78.7597 26.0679C78.7634 26.1293 78.7792 26.1893 78.8061 26.2445C78.8327 26.3005 78.8703 26.3507 78.9165 26.392C78.9627 26.4334 79.0168 26.4651 79.0754 26.4854C79.134 26.5057 79.1961 26.5141 79.258 26.5101C79.3199 26.5062 79.3804 26.49 79.436 26.4624Z" fill="#70230A"/>
<path id="Vector_33" d="M79.03 26.7986L80.4492 26.755C80.6714 26.748 80.8866 26.6751 81.0673 26.5456C81.2479 26.4161 81.386 26.2358 81.464 26.0277C81.4751 25.9984 81.4787 25.9669 81.4744 25.9359C81.4702 25.9048 81.4583 25.8754 81.4397 25.8502C81.4212 25.8249 81.3967 25.8047 81.3684 25.7914C81.3401 25.778 81.3089 25.772 81.2776 25.7737L78.9969 25.8444C78.9341 25.8459 78.8723 25.8599 78.8149 25.8855C78.7576 25.9111 78.7059 25.9478 78.6628 25.9935C78.6198 26.0392 78.5862 26.093 78.5641 26.1517C78.5419 26.2105 78.5317 26.273 78.5339 26.3358C78.5358 26.3988 78.5502 26.4608 78.5762 26.5183C78.6023 26.5757 78.6394 26.6274 78.6855 26.6704C78.7316 26.7135 78.7858 26.7469 78.8449 26.7689C78.9041 26.7909 78.9669 26.801 79.03 26.7986Z" fill="#70230A"/>
<path id="Vector_34" d="M77.892 27.2379H79.245C79.6029 27.2379 79.9276 26.9674 80.0659 26.5511C80.1065 26.4294 80.0343 26.2942 79.9291 26.2942L78.1325 26.2852C77.9235 26.2852 77.7552 26.4955 77.7537 26.757C77.7522 27.0185 77.6845 27.2364 77.892 27.2379Z" fill="#70230A"/>
<path id="Vector_35" d="M81.2776 66.9984C81.2776 66.9984 77.7927 60.6131 80.3169 48.4047C76.6907 46.8043 76.5479 43.2442 80.1997 40.9014C83.2065 38.9704 86.5771 38.5917 88.2865 35.0241C89.2322 34.8228 90.6349 32.8121 91.334 32.6528C91.9938 32.5057 92.6775 32.5012 93.3392 32.6397C94.001 32.7781 94.6255 33.0563 95.1709 33.4556C95.7164 33.8548 96.1702 34.3659 96.5021 34.9547C96.8339 35.5435 97.0361 36.1963 97.095 36.8695C98.0407 47.0041 91.1565 51.4253 91.2588 60.0646C91.3565 68.145 98.7007 70.3495 98.6917 76.9872C98.6917 82.4633 94.6881 85.9211 88.3692 85.4237C80.8236 84.8226 74.5874 82.6451 67.4026 80.0138C69.1676 79.829 70.5086 70.6967 63.9011 65.4896C71.5926 66.3312 81.2776 66.9984 81.2776 66.9984Z" fill="#0069A3"/>
<path id="Vector_36" d="M82.5872 55.5556C85.3414 50.2599 82.7089 49.2094 80.317 48.4024C78.3881 47.5504 77.444 46.1483 77.5342 44.6621C78.343 48.4024 86.3682 48.6369 88.4715 42.6679L90.3989 45.5818C90.3989 45.5818 84.7897 55.7194 82.5872 55.5556Z" fill="#003851"/>
<path id="Vector_37" d="M81.2777 66.9987C81.2777 66.9987 80.1847 64.9955 79.666 61.0898C80.6523 66.049 83.6726 65.9483 87.0658 67.2346C88.5783 67.8087 91.8106 69.2303 93.3591 70.3904C88.9361 68.4474 84.8859 67.3639 81.2777 66.9987Z" fill="#003851"/>
<path id="Vector_38" d="M68.4536 72.625C71.1251 78.4677 83.0367 82.0503 89.7945 82.0503C95.046 82.0503 98.8616 79.2236 97.8634 73.3193C98.4093 74.465 98.6913 75.7185 98.6887 76.9875C98.6887 82.4636 94.6852 85.9214 88.3663 85.424C80.8207 84.8229 74.5845 82.6454 67.3997 80.0141C68.4731 79.9014 69.3872 76.4721 68.452 72.6325L68.4536 72.625Z" fill="#003851"/>
<path id="Vector_39" d="M62.473 51.7893C73.7095 54.317 78.7941 53.6302 82.5872 55.5552C82.5872 55.5552 86.1548 51.056 88.0611 43.4565C88.6535 41.1002 92.4721 39.1661 94.4085 39.3344C96.3134 39.4997 95.6729 42.7773 94.8205 44.8751C94.8205 44.8751 90.4606 55.1164 84.8874 60.2919C84.6744 60.4882 84.4135 60.6251 84.131 60.689C83.8484 60.7528 83.554 60.7413 83.2772 60.6556C78.767 59.2761 70.3073 56.1969 62.0039 53.1869L62.473 51.7893Z" fill="#8C3012"/>
<path id="Vector_40" d="M62.4729 51.7896L57.7402 50.7377C57.4684 50.6777 57.1875 50.6715 56.9133 50.7197L54.3079 51.1885C54.1833 51.2102 54.0606 51.2418 53.9411 51.2832C53.9411 51.2832 51.4018 52.1413 51.6288 52.3216C51.6997 52.361 51.7781 52.3851 51.8589 52.3923C51.9397 52.3996 52.0211 52.3898 52.0979 52.3637L54.0779 51.7626C54.1409 51.7436 54.2052 51.7291 54.2703 51.719L56.9599 51.3208L54.9679 51.8948C54.8133 51.9394 54.6625 51.9962 54.5169 52.0646L53.0811 52.7619C53.0469 52.7776 53.0189 52.8041 53.0013 52.8373C52.9836 52.8705 52.9774 52.9086 52.9836 52.9456C52.9897 52.9827 53.0079 53.0167 53.0353 53.0425C53.0627 53.0682 53.0978 53.0842 53.1352 53.088L53.7922 53.1647C54.3511 53.2299 54.9163 53.2167 55.4715 53.1256L56.8592 52.8987C57.1025 52.8594 57.3503 52.8568 57.5944 52.8912L59.6751 53.1917C59.9925 53.2383 60.3137 53.2549 60.6343 53.2413L62.0039 53.1872L62.4729 51.7896Z" fill="#8C3012"/>
<path id="Vector_41" d="M93.9785 32.5412C96.6351 34.2724 91.1025 37.6506 85.1941 39.1669C88.1363 36.9488 88.885 33.1995 88.885 33.1995C90.1569 32.929 91.1747 32.681 92.0256 32.4977C92.6708 32.3572 93.3402 32.3722 93.9785 32.5412Z" fill="#8C3012"/>
<path id="Vector_42" d="M88.8849 33.1995L89.9283 26.2161L93.5816 25.8555L94.634 33.3873C94.634 33.3873 91.8962 35.5212 88.8849 33.1995Z" fill="#8C3012"/>
<path id="Vector_43" d="M88.7527 33.7164C88.8459 33.3933 88.885 33.1995 88.885 33.1995L89.9284 26.2161L93.5817 25.8555L93.7801 27.2621C93.7801 27.2621 92.0437 31.9296 88.7527 33.7164Z" fill="#70230A"/>
<path id="Vector_44" d="M82.3586 16.7194C81.3167 22.0767 83.0562 29.565 85.4211 31.8071C86.8974 33.2062 95.9555 25.8096 95.5421 22.6808C95.1286 19.5521 92.8043 14.1707 91.2002 12.5627C89.5961 10.9548 83.2937 11.8985 82.3586 16.7194Z" fill="#8C3012"/>
<path id="Vector_45" d="M86.8478 22.0665C90.3667 22.0665 93.2193 19.4755 93.2193 16.2793C93.2193 13.0832 90.3667 10.4922 86.8478 10.4922C83.3289 10.4922 80.4763 13.0832 80.4763 16.2793C80.4763 19.4755 83.3289 22.0665 86.8478 22.0665Z" fill="#00152E"/>
<path id="Vector_46" d="M88.8819 20.8372C89.8847 24.02 93.3921 25.7527 96.7162 24.7068C100.04 23.6609 98.3579 20.7065 97.3566 17.5236C96.3554 14.3408 96.411 12.1347 93.0869 13.1806C89.7629 14.2266 87.8806 17.6543 88.8819 20.8372Z" fill="#00152E"/>
<path id="Vector_47" d="M87.3184 23.1435C87.3457 23.1433 87.3719 23.1331 87.3922 23.1148C87.4124 23.0965 87.4252 23.0714 87.4282 23.0443C87.4298 23.0298 87.4286 23.0151 87.4245 23.001C87.4203 22.987 87.4135 22.9739 87.4042 22.9626C87.395 22.9512 87.3835 22.9418 87.3706 22.935C87.3577 22.9281 87.3435 22.9239 87.3289 22.9226C85.6752 22.7468 82.7556 22.0209 81.7753 19.1657C81.7658 19.1376 81.7454 19.1144 81.7188 19.1013C81.6921 19.0882 81.6614 19.0862 81.6333 19.0958C81.6051 19.1054 81.582 19.1257 81.5689 19.1523C81.5558 19.179 81.5538 19.2097 81.5633 19.2378C82.5842 22.2133 85.6 22.9602 87.3064 23.145L87.3184 23.1435Z" fill="#00152E"/>
<path id="Vector_48" d="M95.5696 24.5054C95.8147 23.0444 95.1651 21.7177 94.1185 21.5423C93.072 21.3669 92.0249 22.4091 91.7798 23.8701C91.5347 25.3312 92.1843 26.6578 93.2308 26.8333C94.2774 27.0087 95.3245 25.9665 95.5696 24.5054Z" fill="#8C3012"/>
<path id="Vector_49" d="M94.6836 24.9321C94.8534 23.7479 94.3588 22.7125 93.5786 22.6194C93.4581 22.6058 93.3363 22.615 93.2192 22.6464C93.3165 22.5587 93.4307 22.4917 93.5548 22.4496C93.6789 22.4075 93.8102 22.3911 93.9409 22.4015C94.5934 22.4796 95.0068 23.3452 94.8655 24.3355C94.8313 24.577 94.7641 24.8127 94.6655 25.0358C94.6715 25.0012 94.6791 24.9622 94.6836 24.9321Z" fill="#70230A"/>
<path id="Vector_50" d="M93.1381 26.5924C93.1378 26.7007 93.1696 26.8067 93.2297 26.8968C93.2897 26.987 93.3751 27.0574 93.4752 27.099C93.5752 27.1405 93.6854 27.1515 93.7917 27.1304C93.898 27.1094 93.9956 27.0573 94.0723 26.9807C94.1489 26.9041 94.201 26.8065 94.2221 26.7002C94.2432 26.594 94.2322 26.4839 94.1906 26.3839C94.149 26.2838 94.0786 26.1984 93.9884 26.1384C93.8982 26.0784 93.7922 26.0466 93.6838 26.0469C93.5392 26.0473 93.4006 26.1049 93.2983 26.2071C93.1961 26.3093 93.1385 26.4478 93.1381 26.5924Z" fill="white"/>
<path id="Vector_51" d="M93.2283 27.6774C93.2283 27.7666 93.2547 27.8537 93.3043 27.9279C93.3538 28.002 93.4243 28.0598 93.5067 28.0939C93.5891 28.128 93.6798 28.137 93.7673 28.1196C93.8548 28.1022 93.9351 28.0592 93.9982 27.9962C94.0613 27.9331 94.1043 27.8528 94.1217 27.7653C94.1391 27.6779 94.1301 27.5872 94.096 27.5049C94.0619 27.4225 94.004 27.3521 93.9299 27.3025C93.8557 27.253 93.7685 27.2266 93.6793 27.2266C93.5597 27.2266 93.445 27.2741 93.3604 27.3586C93.2758 27.4432 93.2283 27.5578 93.2283 27.6774Z" fill="white"/>
<path id="Vector_52" d="M93.3201 28.5824C93.3198 28.6548 93.341 28.7256 93.381 28.7859C93.421 28.8461 93.4781 28.8932 93.5449 28.921C93.6117 28.9488 93.6853 28.9562 93.7563 28.9421C93.8273 28.9281 93.8925 28.8933 93.9437 28.8421C93.9949 28.791 94.0297 28.7258 94.0438 28.6548C94.0578 28.5838 94.0505 28.5103 94.0226 28.4435C93.9948 28.3767 93.9477 28.3197 93.8874 28.2797C93.8271 28.2397 93.7563 28.2185 93.6839 28.2188C93.5874 28.2188 93.4949 28.2571 93.4266 28.3253C93.3584 28.3935 93.3201 28.486 93.3201 28.5824Z" fill="white"/>
<path id="Vector_53" d="M83.1298 19.4602C83.1443 19.4602 83.1586 19.4571 83.1719 19.4512C83.1851 19.4452 83.1969 19.4365 83.2065 19.4256C83.2167 19.416 83.2248 19.4043 83.2303 19.3914C83.2359 19.3785 83.2387 19.3646 83.2387 19.3505C83.2387 19.3364 83.2359 19.3225 83.2303 19.3096C83.2248 19.2967 83.2167 19.285 83.2065 19.2754C81.9361 18.1062 81.673 15.798 82.2879 14.5131C82.2994 14.4879 82.3006 14.4593 82.2914 14.4332C82.2821 14.4071 82.2631 14.3857 82.2383 14.3734C82.2132 14.3615 82.1843 14.36 82.1581 14.3693C82.1319 14.3786 82.1105 14.3979 82.0985 14.4229C81.452 15.7754 81.6895 18.1648 83.0637 19.4286C83.0811 19.4469 83.1047 19.4581 83.1298 19.4602Z" fill="white"/>
<path id="Vector_54" d="M98.5113 19.8524C98.5249 19.852 98.5383 19.849 98.5507 19.8434C98.5632 19.8378 98.5744 19.8298 98.5837 19.8199C98.5931 19.81 98.6004 19.7984 98.6053 19.7856C98.6101 19.7729 98.6124 19.7593 98.612 19.7457C98.5113 16.6711 96.2952 13.8263 93.2222 12.833C93.1959 12.8247 93.1674 12.8271 93.1428 12.8398C93.1183 12.8524 93.0998 12.8743 93.0915 12.9007C93.0831 12.927 93.0855 12.9555 93.0982 12.98C93.1109 13.0045 93.1328 13.023 93.1591 13.0314C96.1479 14.0022 98.3038 16.7658 98.403 19.7547C98.4049 19.7818 98.4173 19.8072 98.4375 19.8254C98.4576 19.8436 98.4841 19.8533 98.5113 19.8524Z" fill="white"/>
<path id="Vector_55" d="M67.5635 85.8719C67.5256 86.1009 67.5379 86.3354 67.5998 86.5592C67.6616 86.7829 67.7715 86.9906 67.9217 87.1676C68.0719 87.3446 68.2589 87.4869 68.4696 87.5844C68.6804 87.6819 68.9099 87.7324 69.1421 87.7323H103.065C112.988 87.7323 121.735 60.2678 104.597 48.4531C106.526 50.1062 107.765 53.9983 108.38 60.7652C109.619 74.3998 95.3692 85.11 89.0909 85.11H68.4686C68.2517 85.1107 68.042 85.1882 67.8768 85.3288C67.7117 85.4694 67.6017 85.6639 67.5665 85.8779L67.5635 85.8719Z" fill="#FF9500"/>
<path id="Vector_56" d="M68.5408 85.3106H89.0955C92.642 85.3106 98.143 82.1052 102.175 77.6871C106.836 72.5777 109.116 66.5667 108.587 60.7435C108.148 55.9061 107.347 50.6434 104.737 48.2961C104.695 48.2627 104.643 48.2464 104.589 48.2507C104.536 48.2549 104.487 48.2793 104.451 48.3189C104.415 48.3585 104.396 48.4102 104.397 48.4636C104.398 48.5169 104.42 48.5677 104.457 48.6057C107.297 51.1604 107.915 57.9033 108.171 60.778C108.689 66.4885 106.449 72.3839 101.867 77.4016C97.3748 82.3171 92.0406 84.8883 89.0879 84.8883H68.5408C68.4853 84.8883 68.4322 84.9104 68.393 84.9495C68.3538 84.9887 68.3318 85.0418 68.3318 85.0972C68.3318 85.1526 68.3538 85.2058 68.393 85.2449C68.4322 85.2841 68.4853 85.3061 68.5408 85.3061V85.3106Z" fill="white"/>
<path id="Vector_57" d="M61.5829 117.726C61.5969 117.728 61.611 117.728 61.625 117.726C61.652 117.721 61.6776 117.71 61.7004 117.694C61.7232 117.679 61.7427 117.659 61.7578 117.636C61.7728 117.613 61.7832 117.587 61.7883 117.56C61.7934 117.533 61.793 117.505 61.7873 117.478L50.411 62.5044C50.4066 62.4765 50.3965 62.4498 50.3815 62.4258C50.3665 62.4019 50.3467 62.3813 50.3235 62.3652C50.3003 62.3492 50.274 62.338 50.2463 62.3323C50.2187 62.3267 50.1901 62.3267 50.1624 62.3324C50.1348 62.3381 50.1085 62.3494 50.0853 62.3655C50.0621 62.3816 50.0424 62.4022 50.0275 62.4262C50.0125 62.4501 50.0025 62.4768 49.9981 62.5047C49.9938 62.5326 49.9951 62.5611 50.0021 62.5885L61.3769 117.56C61.3866 117.607 61.4125 117.649 61.45 117.68C61.4876 117.71 61.5345 117.727 61.5829 117.726Z" fill="#00152E"/>
<path id="Vector_58" d="M17.3584 117.726C17.4064 117.726 17.4529 117.709 17.4901 117.679C17.5273 117.649 17.553 117.606 17.5629 117.56L28.9377 62.5885C28.9447 62.5611 28.9461 62.5326 28.9417 62.5047C28.9373 62.4768 28.9273 62.4501 28.9124 62.4262C28.8974 62.4022 28.8777 62.3816 28.8545 62.3655C28.8313 62.3494 28.805 62.3381 28.7774 62.3324C28.7497 62.3267 28.7211 62.3267 28.6935 62.3323C28.6658 62.338 28.6395 62.3492 28.6163 62.3652C28.5931 62.3813 28.5733 62.4019 28.5583 62.4258C28.5433 62.4498 28.5332 62.4765 28.5288 62.5044L17.1525 117.474C17.1413 117.528 17.1522 117.585 17.1826 117.631C17.213 117.678 17.2605 117.71 17.3148 117.722C17.3292 117.725 17.3438 117.726 17.3584 117.726Z" fill="#00152E"/>
<path id="Vector_59" d="M27.4464 60.8281C27.4464 60.8371 26.4617 60.8281 26.4617 60.8281C26.4617 61.4303 26.701 62.0079 27.127 62.4337C27.553 62.8596 28.1308 63.0988 28.7333 63.0988H50.0217C50.3199 63.0988 50.6153 63.0401 50.8908 62.9259C51.1663 62.8118 51.4166 62.6445 51.6275 62.4336C51.8383 62.2228 52.0055 61.9724 52.1195 61.697C52.2335 61.4215 52.2921 61.1262 52.2919 60.8281H27.4464Z" fill="#9BC7F8"/>
<path id="Vector_60" d="M60.9349 60.8278H68.1032C68.4042 60.8278 68.693 60.7082 68.9058 60.4954C69.1187 60.2827 69.2383 59.9941 69.2383 59.6932C69.2383 59.3923 69.1187 59.1037 68.9058 58.8909C68.693 58.6781 68.4042 58.5586 68.1032 58.5586H60.9349C60.7857 58.5584 60.638 58.5876 60.5001 58.6445C60.3622 58.7015 60.2369 58.785 60.1313 58.8904C60.0258 58.9957 59.942 59.1209 59.8849 59.2586C59.8278 59.3964 59.7983 59.5441 59.7983 59.6932C59.7983 59.8423 59.8278 59.99 59.8849 60.1277C59.942 60.2655 60.0258 60.3906 60.1313 60.496C60.2369 60.6014 60.3622 60.6849 60.5001 60.7418C60.638 60.7988 60.7857 60.828 60.9349 60.8278Z" fill="#00152E"/>
<path id="Vector_61" d="M16.9315 60.8278H61.0883C61.2375 60.828 61.3852 60.7988 61.5231 60.7418C61.661 60.6849 61.7863 60.6014 61.8919 60.496C61.9974 60.3906 62.0812 60.2655 62.1383 60.1277C62.1955 59.99 62.2249 59.8423 62.2249 59.6932C62.2249 59.5441 62.1955 59.3964 62.1383 59.2586C62.0812 59.1209 61.9974 58.9957 61.8919 58.8904C61.7863 58.785 61.661 58.7015 61.5231 58.6445C61.3852 58.5876 61.2375 58.5584 61.0883 58.5586H16.9315C16.6304 58.5586 16.3417 58.6781 16.1288 58.8909C15.916 59.1037 15.7964 59.3923 15.7964 59.6932C15.7964 59.9941 15.916 60.2827 16.1288 60.4954C16.3417 60.7082 16.6304 60.8278 16.9315 60.8278Z" fill="#C5E1F9"/>
</g>
<defs>
<clipPath id="clip0_292_3004">
<rect width="144.214" height="120" fill="white"/>
</clipPath>
</defs>
</svg>
