<svg width="41" height="41" viewBox="0 0 41 41" fill="none" xmlns="http://www.w3.org/2000/svg">
<path d="M33.3177 13.4078C33.9128 13.3438 34.5065 13.228 35.0987 13.0608C34.5903 13.6221 34.0277 14.1267 33.4105 14.5749L33.2075 14.7223L33.2254 14.9725C33.2355 15.114 33.2412 15.338 33.2412 15.6517C33.2412 17.0749 33.0333 18.4972 32.6159 19.9197C32.1998 21.3375 31.5669 22.7005 30.7146 24.0092C29.8628 25.3171 28.8497 26.4728 27.6746 27.4777C26.5133 28.4708 25.1059 29.2695 23.4451 29.8689C21.7927 30.4653 20.0214 30.7651 18.1278 30.7651C15.7726 30.7651 13.58 30.2672 11.5446 29.2706C13.9859 29.1746 16.1816 28.3655 18.1185 26.8468L19.1169 26.064L17.8485 26.0398C16.7568 26.019 15.7877 25.686 14.9274 25.0381C14.262 24.5371 13.7608 23.9338 13.419 23.2244C13.5345 23.2307 13.6476 23.2338 13.758 23.2338C14.2826 23.2338 14.8009 23.1667 15.3121 23.0328L15.2885 22.1535C14.1251 21.9145 13.1681 21.3397 12.4033 20.4188C11.7843 19.6734 11.4178 18.8348 11.3024 17.8928C11.9256 18.1409 12.581 18.2785 13.2665 18.3048L14.8674 18.3664L13.5343 17.4777C12.8509 17.0221 12.3074 16.4277 11.9013 15.6883C11.4985 14.955 11.2965 14.1606 11.2965 13.2975C11.2965 12.6072 11.4262 11.9586 11.6858 11.3479C13.0032 12.8362 14.5659 14.0464 16.371 14.9776C18.3881 16.0182 20.5484 16.5964 22.8474 16.7125L23.4329 16.7421L23.3121 16.1684C23.2277 15.7676 23.1863 15.381 23.1863 15.0081C23.1863 13.6145 23.6725 12.4395 24.6545 11.4574C25.6366 10.4753 26.8117 9.98913 28.2053 9.98913C29.6615 9.98913 30.8748 10.5135 31.8735 11.5746L32.0438 11.7556L32.2878 11.7085C33.132 11.5459 33.9432 11.2914 34.721 10.9453C34.3118 11.6018 33.752 12.1425 33.0371 12.5715L33.3177 13.4078Z" fill="black" stroke="black" stroke-width="0.903305"/>
<rect x="1.1455" y="0.956261" width="38.8421" height="38.8421" rx="10.8397" stroke="black" stroke-width="0.903305"/>
</svg>
