<svg width="70" height="76" viewBox="0 0 70 76" fill="none" xmlns="http://www.w3.org/2000/svg">
<g id="Vector">
<path d="M55.4642 0H57.4034C57.4602 0.0455284 57.5242 0.0812171 57.5929 0.105587C61.6906 0.771862 64.3055 5.31087 62.2768 9.4498C62.2242 9.59736 62.1867 9.74983 62.1649 9.90489C62.5289 9.90489 62.8257 9.89448 63.1196 9.90489C65.918 10.0164 68.1779 11.874 68.8029 14.5792C68.8909 14.9585 68.9431 15.3466 69.0132 15.7318V54.474C68.9387 54.8354 68.8745 55.1982 68.788 55.5567C68.0914 58.4344 65.7226 60.2191 62.5393 60.2221C55.1972 60.233 47.8556 60.233 40.5145 60.2221H39.5852C40.158 62.6299 40.6905 64.9143 41.2678 67.1852C41.3141 67.3637 41.678 67.5689 41.9018 67.5779C42.9669 67.6195 44.0349 67.5779 45.1 67.6031C47.4658 67.6597 49.2349 69.1707 49.5989 71.4461C49.6795 71.9488 49.666 72.4649 49.6989 73.0241H50.4044C51.7186 73.0241 53.0343 73.0047 54.347 73.0345C54.5403 73.0303 54.7325 73.065 54.9121 73.1365C55.0917 73.2081 55.255 73.315 55.3922 73.451C55.5293 73.5869 55.6376 73.749 55.7105 73.9276C55.7834 74.1062 55.8193 74.2977 55.8163 74.4905C55.8252 75.3084 55.2405 75.9212 54.3813 75.9866C54.1844 76.0015 53.986 75.9866 53.7846 75.9866H15.1663C14.9175 75.998 14.6683 75.992 14.4204 75.9688C14.0581 75.9262 13.7249 75.7499 13.4863 75.4747C13.2478 75.1994 13.1213 74.8451 13.1316 74.4815C13.1273 74.1187 13.2608 73.7677 13.5054 73.4989C13.7501 73.2302 14.0876 73.0638 14.4503 73.033C14.9171 72.9869 15.3915 73.0151 15.8629 73.0137H19.2684C19.2788 72.7668 19.2893 72.6195 19.2923 72.4738C19.3355 69.3967 21.1494 67.5957 24.2148 67.5868C25.1576 67.5868 26.1003 67.5645 27.049 67.5957C27.4816 67.6106 27.6681 67.447 27.7546 67.0425C27.9485 66.1248 28.1738 65.2132 28.3901 64.3C28.7063 62.9615 29.0255 61.632 29.3642 60.2117H28.3707C21.0545 60.2117 13.7377 60.2117 6.42049 60.2117C2.56447 60.2117 0.00622359 57.6834 0.00622359 53.8553C-0.00471546 41.316 -0.00123376 28.7738 0.0166665 16.2286C0.010414 15.4634 0.120559 14.7017 0.343347 13.9695C1.16378 11.3832 3.43114 9.87961 6.40408 9.87812C19.4743 9.87812 32.5449 9.88159 45.6161 9.88854C46.1471 9.88854 46.4664 9.73981 46.7602 9.29365C48.1281 7.20261 49.5407 5.14132 50.925 3.0607C51.641 1.98543 52.5435 1.12731 53.7324 0.599346C54.2903 0.367339 54.8855 0.200775 55.4642 0ZM3.04927 47.2431C3.04927 49.8279 2.99557 52.2996 3.07463 54.7595C3.10745 55.7901 3.80705 56.562 4.76024 56.9383C5.36466 57.1545 6.00373 57.2583 6.64573 57.2446C25.2004 57.2595 43.7555 57.2635 62.3111 57.2565C62.6099 57.2632 62.9087 57.2517 63.2061 57.2223C64.7724 57.029 65.8911 55.9627 65.9404 54.3966C66.0164 52.0989 65.9598 49.7981 65.9553 47.4974C65.9553 47.4349 65.8911 47.371 65.83 47.2579H19.9397C19.6413 47.2579 19.343 47.2684 19.0447 47.2416C18.682 47.2219 18.3397 47.0682 18.0845 46.8107C17.8292 46.5531 17.6793 46.21 17.6638 45.8483C17.6484 45.4865 17.7685 45.132 18.0009 44.8537C18.2333 44.5755 18.5612 44.3934 18.9208 44.343C19.2669 44.2975 19.6162 44.2806 19.965 44.2924H65.9836V16.3371C65.9869 16.1148 65.9789 15.8924 65.9598 15.6709C65.7942 14.0186 64.6172 12.9121 62.9585 12.8645C62.1157 12.8392 61.2699 12.8927 60.4301 12.8451C59.8751 12.8154 59.5246 13.0058 59.1756 13.44C55.1162 18.4044 51.0389 23.3558 46.9437 28.2944C46.3142 29.0499 45.9189 29.7325 46.3247 30.723C46.4738 31.074 46.4336 31.5038 46.4574 31.8979C46.6767 35.5193 44.3064 38.7882 40.8412 39.401C39.4987 39.6404 38.0771 39.5497 36.6943 39.5051C34.506 39.4337 32.4564 39.6538 30.7395 41.2421C29.9131 42.0051 28.6795 41.5783 28.3841 40.4851C27.6547 37.7754 27.1908 35.0345 27.4503 32.2058C27.9366 26.8607 31.5182 23.4148 36.8763 23.1337C37.0474 23.1174 37.2134 23.067 37.3646 22.9855C37.5158 22.904 37.649 22.7931 37.7564 22.6593C39.8448 19.5956 41.9108 16.5096 43.9767 13.4251C44.0856 13.2414 44.1852 13.0522 44.2751 12.8585H6.45032C4.14715 12.8585 2.97916 14.026 2.97916 16.3356C2.97916 25.3651 2.97916 34.394 2.97916 43.4224V44.2761C4.27693 44.2761 5.46431 44.2761 6.6517 44.2761C6.99807 44.2672 7.34424 44.3007 7.68246 44.3757C8.00725 44.4694 8.28876 44.6737 8.47794 44.9531C8.66712 45.2325 8.75197 45.5692 8.71769 45.9046C8.69141 46.2679 8.52642 46.6073 8.2567 46.853C7.98698 47.0987 7.63304 47.2319 7.26776 47.2252C5.88199 47.2713 4.49472 47.2431 3.04927 47.2431ZM49.2514 20.894C49.3513 20.7453 49.4005 20.659 49.4647 20.5831C52.6688 16.6822 55.8789 12.7916 59.0771 8.88168C60.4897 7.15056 60.2376 4.86619 58.5461 3.64964C56.8545 2.43309 54.6572 2.87182 53.3893 4.74423C52.1557 6.56757 50.934 8.39685 49.7078 10.2246L44.7703 17.5909C45.9532 18.4698 47.1033 19.3264 48.2549 20.1786C48.5503 20.3987 48.8516 20.6084 49.2514 20.894ZM30.7291 37.4021C32.0044 37.1285 33.2157 36.7388 34.4583 36.6347C35.9306 36.5098 37.4252 36.6451 38.9095 36.6347C40.067 36.6273 41.1694 36.4399 42.0808 35.613C43.744 34.102 43.7217 31.9217 43.1384 30.2798C43.0354 30.0839 42.8807 29.9199 42.6909 29.8054C41.1664 28.6593 39.6349 27.525 38.0965 26.4026C37.9266 26.2656 37.726 26.1717 37.5118 26.129C34.958 25.8122 32.0328 27.5032 31.0602 29.8738C30.0309 32.3828 30.2786 34.9452 30.7291 37.3962V37.4021ZM46.6409 73.0003C46.7901 71.1249 46.2948 70.5687 44.5227 70.5687H24.2924C22.6381 70.5687 22.0385 71.3257 22.3741 73.0003H46.6409ZM38.277 67.557C37.6803 65.0526 37.1075 62.6611 36.5332 60.2607H32.4251C31.8478 62.6894 31.2765 65.0942 30.6903 67.557H38.277ZM44.0946 27.118C45.1865 25.7899 46.2352 24.5154 47.333 23.1828L43.1071 20.07L40.2729 24.2997L44.0946 27.118Z" fill="#0266F4"/>
<path d="M13.2267 46.9604C13.0343 46.9661 12.8427 46.934 12.6627 46.8659C12.4828 46.7978 12.3181 46.6949 12.178 46.5633C12.038 46.4317 11.9253 46.2738 11.8465 46.0988C11.7676 45.9237 11.7242 45.7349 11.7186 45.5431C11.7099 45.3458 11.741 45.1488 11.8099 44.9637C11.8788 44.7786 11.9843 44.6091 12.12 44.4653C12.2557 44.3215 12.4189 44.2063 12.6001 44.1264C12.7812 44.0465 12.9765 44.0036 13.1745 44.0002C13.3726 43.9968 13.5692 44.033 13.753 44.1067C13.9368 44.1804 14.1038 44.29 14.2444 44.4291C14.385 44.5682 14.4962 44.7339 14.5714 44.9166C14.6467 45.0992 14.6845 45.295 14.6826 45.4925C14.6843 45.6844 14.648 45.8747 14.5757 46.0525C14.5033 46.2303 14.3964 46.3921 14.2611 46.5286C14.1258 46.665 13.9647 46.7734 13.7872 46.8475C13.6096 46.9216 13.4191 46.96 13.2267 46.9604Z" fill="#0266F4"/>
</g>
</svg>
