<svg width="73" height="76" viewBox="0 0 73 76" fill="none" xmlns="http://www.w3.org/2000/svg">
<g id="Vector">
<path d="M29.9727 0H42.4163C42.4918 0.0556621 42.5741 0.101544 42.6612 0.13656C44.9456 0.73031 46.2934 2.21468 46.8174 4.48578C47.2063 6.16807 47.5799 7.85531 47.9381 9.5475C48.0317 9.99281 48.235 10.2348 48.6521 10.4648C50.3819 11.4089 52.0845 12.3985 53.7599 13.4336C54.1606 13.68 54.4709 13.7542 54.9058 13.6102C56.5906 13.0566 58.2798 12.5133 59.9779 11.9982C62.5993 11.2055 65.0723 12.163 66.4587 14.5216C68.1806 17.4607 69.8846 20.4111 71.5709 23.373C72.9795 25.8445 72.5639 28.4941 70.4813 30.4505C69.2033 31.6513 67.8911 32.8151 66.622 34.0293C66.4009 34.2687 66.2729 34.5794 66.2613 34.9051C66.2296 36.9545 66.2296 39.0039 66.2613 41.0534C66.2687 41.379 66.3925 41.6912 66.6101 41.9336C67.8733 43.1493 69.1855 44.3086 70.4695 45.5139C72.5832 47.4985 72.984 50.1407 71.5456 52.6493C69.9 55.5191 68.2449 58.3844 66.5804 61.2453C65.0485 63.8845 62.6141 64.8286 59.7107 63.9172C58.0645 63.4006 56.4288 62.8529 54.7737 62.3675C54.4586 62.3045 54.1313 62.3572 53.8519 62.5159C52.1612 63.4763 50.512 64.5139 48.805 65.4387C48.2662 65.7355 48.0153 66.0517 47.8951 66.6262C47.5359 68.3673 47.1306 70.0981 46.7254 71.8215C46.4285 73.1248 45.7427 74.2217 44.6161 74.9387C43.9021 75.384 43.059 75.6423 42.2752 75.9777H30.1256C30.0647 75.9363 29.9989 75.9024 29.9297 75.8768C27.4671 75.3261 26.0703 73.7541 25.5404 71.3242C25.1797 69.6588 24.819 67.9933 24.4049 66.3412C24.2946 66.0147 24.0714 65.7383 23.7755 65.5619C22.0877 64.5466 20.3614 63.598 18.6796 62.5694C18.2625 62.3141 17.9374 62.2191 17.4713 62.3749C15.8118 62.9291 14.1444 63.458 12.469 63.9617C9.77338 64.7766 7.29891 63.7984 5.8843 61.3626C4.19607 58.4591 2.51825 55.5503 0.850801 52.6359C-0.586074 50.1244 -0.188274 47.4822 1.9329 45.502C3.19462 44.3145 4.49197 43.1745 5.72994 41.9692C5.97556 41.6913 6.11444 41.3351 6.12182 40.9643C6.15596 38.9886 6.10845 37.0129 6.15298 35.0387C6.17264 34.8235 6.1392 34.6067 6.05561 34.4075C5.97202 34.2082 5.84083 34.0325 5.67353 33.8957C4.4039 32.7587 3.1496 31.6048 1.91065 30.4341C-0.167478 28.4763 -0.583109 25.8326 0.828532 23.3596C2.51082 20.4225 4.20201 17.4929 5.90212 14.5706C7.32118 12.1333 9.78079 11.1759 12.4927 11.9997C14.1671 12.5083 15.8346 13.0373 17.4951 13.5865C17.9404 13.7349 18.2373 13.6607 18.641 13.4158C20.3233 12.3856 22.0254 11.396 23.7473 10.447C24.1332 10.2348 24.341 10.0255 24.439 9.59797C24.8353 7.76476 25.2316 5.93007 25.6814 4.10578C26.1401 2.24437 27.3142 0.988592 29.0955 0.295389C29.3805 0.204842 29.6774 0.106875 29.9727 0ZM67.7219 49.6642C67.5458 49.3899 67.3472 49.1307 67.1281 48.8894C65.5399 47.405 63.9471 45.9206 62.3306 44.4704C61.5884 43.8054 61.2322 43.032 61.3762 42.0375C61.7681 39.3661 61.7681 36.6517 61.3762 33.9803C61.2278 32.9902 61.5706 32.2094 62.3143 31.5415C63.9323 30.0883 65.5057 28.5861 67.1252 27.1373C67.6922 26.6297 67.7367 26.168 67.3582 25.5238C65.7323 22.753 64.1287 19.9713 62.5474 17.1787C62.1911 16.5478 61.7948 16.3786 61.1001 16.6087C58.9953 17.3093 56.8681 17.9446 54.7603 18.6334C53.7777 18.9555 52.9331 18.7922 52.136 18.1435C50.1127 16.4764 47.8296 15.1525 45.3776 14.2248C44.4766 13.8878 43.9333 13.251 43.7255 12.2951C43.2505 10.0982 42.7324 7.91172 42.2589 5.71484C42.1105 5.02016 41.772 4.7307 41.0373 4.73812C37.8533 4.76781 34.6678 4.75 31.4824 4.75C30.4685 4.75 30.3527 4.845 30.136 5.81875C29.661 7.93992 29.1652 10.0552 28.7155 12.1823C28.4958 13.2213 27.9288 13.8952 26.9342 14.2693C24.5288 15.1838 22.2902 16.4877 20.308 18.1287C19.4649 18.8189 18.5846 18.957 17.5485 18.6111C15.4704 17.9149 13.3611 17.3004 11.2785 16.6131C10.618 16.3949 10.2291 16.5389 9.88471 17.146C8.2895 19.9604 6.67201 22.7624 5.03227 25.552C4.64188 26.2141 4.7354 26.6653 5.29353 27.1611C6.91298 28.6113 8.49236 30.1076 10.1088 31.5623C10.851 32.2302 11.1702 33.0169 11.0262 34.007C10.638 36.6544 10.638 39.3442 11.0262 41.9915C11.1746 43.0127 10.8288 43.8098 10.0673 44.4941C8.44931 45.9473 6.8729 47.4466 5.25493 48.8983C4.71313 49.3837 4.66118 49.829 5.03227 50.448C6.66904 53.2406 8.28554 56.0436 9.88173 58.857C10.2202 59.4507 10.5972 59.6318 11.2696 59.4077C13.232 58.7516 15.2344 58.2068 17.1804 57.5077C18.5163 57.0267 19.5821 57.233 20.6627 58.14C22.4456 59.6316 24.4736 60.8028 26.6567 61.6016C27.8694 62.0469 28.5433 62.8173 28.7927 64.0894C29.1949 66.1497 29.707 68.1877 30.139 70.2421C30.2874 70.962 30.6229 71.2723 31.3977 71.2634C34.5832 71.2277 37.7682 71.2277 40.9527 71.2634C41.7483 71.2723 42.109 70.9888 42.2693 70.2243C42.7146 68.072 43.2401 65.9359 43.6973 63.7866C43.9125 62.7757 44.4647 62.1152 45.4295 61.753C47.8344 60.8434 50.0732 59.544 52.0558 57.907C52.896 57.2197 53.7643 57.0401 54.8063 57.3874C56.9112 58.088 59.0413 58.713 61.1491 59.4047C61.7785 59.611 62.154 59.4774 62.485 58.897C64.097 56.0619 65.7373 53.246 67.3642 50.4198C67.4933 50.2105 67.5764 49.9804 67.7219 49.6642Z" fill="#0266F4"/>
<path d="M33.798 50.6482C32.2661 50.6393 31.1885 49.2469 31.5447 47.6883C32.7708 42.3228 34.0048 36.9578 35.2467 31.5933C35.5674 30.1979 35.8835 28.8011 36.2086 27.4058C36.5545 25.9215 37.7924 25.0783 39.1551 25.4064C40.4361 25.7151 41.1546 26.9917 40.828 28.4211C39.2862 35.1602 37.7385 41.8978 36.1849 48.6339C35.8761 49.9208 34.9855 50.6556 33.798 50.6482Z" fill="#0266F4"/>
<path d="M21.5712 37.9985C23.535 39.7679 25.4172 41.4749 27.3157 43.1656C27.9852 43.7593 28.3726 44.4718 28.2702 45.3803C28.2377 45.8045 28.0858 46.2108 27.8321 46.5523C27.5783 46.8938 27.2331 47.1565 26.8363 47.31C25.9338 47.6885 25.0773 47.5297 24.3514 46.8869C22.6296 45.3654 20.9374 43.8187 19.2229 42.2854C18.3056 41.4586 17.3749 40.6451 16.4754 39.8005C15.3606 38.7525 15.3502 37.2385 16.4754 36.2083C19.0671 33.8422 21.681 31.5029 24.2891 29.1561C25.0313 28.4836 25.9041 28.3144 26.8333 28.6974C27.2301 28.8482 27.5757 29.109 27.8297 29.4492C28.0836 29.7894 28.2354 30.1949 28.2672 30.6182C28.3667 31.494 28.0149 32.202 27.3647 32.7824C25.7062 34.2668 24.0531 35.7511 22.4054 37.2355C22.1531 37.4671 21.9022 37.7016 21.5712 37.9985Z" fill="#0266F4"/>
<path d="M50.8267 37.9983C48.8644 36.2304 46.9837 34.5219 45.0852 32.8341C44.435 32.2552 44.0461 31.5769 44.1114 30.6981C44.1284 30.2611 44.2727 29.8386 44.5267 29.4826C44.7807 29.1265 45.1332 28.8525 45.5409 28.6942C45.9486 28.5042 46.404 28.4412 46.8479 28.5135C47.2919 28.5858 47.7038 28.7899 48.0302 29.0994C49.6199 30.5081 51.1934 31.9361 52.7727 33.3566C53.7821 34.2666 54.7989 35.1691 55.7979 36.0894C57.0567 37.2487 57.073 38.7449 55.8142 39.8909C53.2928 42.1857 50.7599 44.4682 48.2157 46.7383C47.0431 47.7862 45.581 47.7402 44.6681 46.6685C43.7774 45.6294 43.9392 44.2059 45.0748 43.1817C46.9614 41.4762 48.8525 39.7795 50.8267 37.9983Z" fill="#0266F4"/>
</g>
</svg>
