<svg width="76" height="76" viewBox="0 0 76 76" fill="none" xmlns="http://www.w3.org/2000/svg">
<g id="Vector">
<path d="M76 7.1655V56.9388C75.9556 56.997 75.9199 57.0614 75.894 57.1299C74.9697 61.557 71.8745 64.0893 67.3757 64.0908H45.5074V67.0771C46.1569 67.0771 46.7527 67.0547 47.3455 67.0771C51.1335 67.2443 54.3049 70.4739 54.384 74.2351C54.4079 75.3938 53.8391 75.9985 52.6759 76C42.891 76 33.1065 76 23.3226 76C22.1609 76 21.5921 75.3923 21.6145 74.2366C21.6787 71.0906 23.9631 68.1402 27.0494 67.3682C28.1618 67.092 29.3369 67.0696 30.4971 66.9323V64.0744H29.5594C22.5825 64.0744 15.6041 64.0744 8.62428 64.0744C3.51332 64.0744 0.00298625 60.576 0 55.4815C0 49.5468 0 43.6117 0 37.676C0 27.9209 0 18.1614 0 8.39733C0 5.48573 1.1288 3.09375 3.55662 1.49312C4.62122 0.791356 5.94562 0.483772 7.15206 0H68.8465C68.9806 0.0549227 69.1183 0.100812 69.2585 0.137365C71.655 0.585302 73.5468 1.83206 74.7592 3.93288C75.3281 4.92581 75.5954 6.08149 76 7.1655ZM2.98625 49.1357H73.0197V8.63324C73.0197 5.13187 70.8622 2.98774 67.3458 2.98774H8.6422C5.13187 2.98774 2.98027 5.13783 2.98027 8.64518C2.98027 21.8563 2.98027 35.067 2.98027 48.2772L2.98625 49.1357ZM3.01312 52.1981C3.01312 53.6718 2.90263 55.0933 3.03552 56.4908C3.2998 59.2457 5.57383 61.1091 8.49886 61.1106H67.4847C67.6833 61.1106 67.8819 61.1106 68.082 61.1016C70.3426 60.9941 72.4508 59.3741 72.8226 57.1657C73.0944 55.5517 73.0123 53.8809 73.0899 52.1981H3.01312ZM24.9143 72.9839H51.0738C50.8031 72.1468 50.2777 71.4151 49.571 70.8909C48.8643 70.3668 48.0116 70.0764 47.1319 70.0603C41.049 70.0345 34.966 70.0345 28.883 70.0603C27.0838 70.0663 25.507 71.2668 24.9143 72.9839ZM33.5923 64.0998V67.0159H42.4122V64.0998H33.5923Z" fill="#0266F4"/>
<path d="M59.601 41.6991H62.5872V40.9122C62.5872 37.2869 62.5872 33.6621 62.5872 30.0378C62.5872 29.0389 63.1322 28.3953 63.9773 28.3311C64.9046 28.2669 65.5616 28.9732 65.563 30.0661C65.569 33.5182 65.569 36.9699 65.563 40.421V41.7364C66.0991 41.7364 66.5664 41.72 67.0308 41.7364C67.9267 41.7767 68.5553 42.4247 68.5374 43.2519C68.5194 44.0507 67.8998 44.6555 67.0442 44.7062C66.8456 44.7182 66.6471 44.7062 66.447 44.7062H37.8492C37.6002 44.7158 37.3509 44.7103 37.1026 44.6898C36.7412 44.6514 36.4063 44.4824 36.1606 44.2147C35.9148 43.947 35.7752 43.5988 35.7678 43.2355C35.7619 42.8588 35.9005 42.4941 36.1551 42.2164C36.4098 41.9387 36.7611 41.769 37.137 41.7424C37.6297 41.7035 38.1284 41.7349 38.7421 41.7349V39.8133C38.7421 38.9682 38.7227 38.1245 38.7495 37.2749C38.7794 36.3791 39.4394 35.752 40.268 35.7729C40.6568 35.7819 41.0264 35.9436 41.2969 36.223C41.5674 36.5024 41.717 36.8771 41.7134 37.266C41.7403 38.4605 41.7208 39.655 41.7223 40.8405V41.6812H44.7086V40.9092C44.7086 38.3022 44.7086 35.6952 44.7086 33.0882C44.7086 31.9923 45.267 31.3159 46.1644 31.2965C47.0871 31.2756 47.6844 31.9744 47.6859 33.1002C47.6859 35.6813 47.6859 38.2634 47.6859 40.8465V41.6841H50.6721V40.9809C50.6721 39.2922 50.6632 37.6049 50.6721 35.9162C50.6796 34.9457 51.2768 34.2932 52.1309 34.2738C53.0104 34.2573 53.6375 34.9292 53.6449 35.9341C53.6569 37.5975 53.6449 39.2608 53.6449 40.9241V41.6841H56.6312V40.9122C56.6312 36.4179 56.6312 31.9241 56.6312 27.4308C56.6312 27.2068 56.6207 26.9828 56.6386 26.7604C56.6589 26.3846 56.8202 26.0304 57.0904 25.7685C57.3606 25.5066 57.7197 25.3564 58.0959 25.3479C58.8963 25.3344 59.5383 25.9451 59.604 26.7872C59.6204 27.0097 59.604 27.2352 59.604 27.4577C59.604 31.9271 59.604 36.396 59.604 40.8644L59.601 41.6991Z" fill="#0266F4"/>
<path d="M66.5052 7.4656C66.7543 7.45521 67.0037 7.46219 67.2518 7.48651C67.6062 7.53308 67.9318 7.70626 68.1686 7.97408C68.4053 8.2419 68.5372 8.5863 68.5399 8.94375C68.5427 9.3012 68.416 9.64758 68.1834 9.91899C67.9508 10.1904 67.6278 10.3685 67.2742 10.4205C67.0263 10.4481 66.7767 10.4561 66.5276 10.4444H40.7877C40.6637 10.4444 40.5398 10.4444 40.4159 10.4444C39.411 10.4205 38.7406 9.80831 38.757 8.92886C38.7719 8.07629 39.4244 7.47755 40.392 7.46859C41.8314 7.45515 43.2707 7.46859 44.7101 7.46859L66.5052 7.4656Z" fill="#0266F4"/>
<path d="M49.167 13.4202C52.0427 13.4202 54.9195 13.4202 57.7972 13.4202C58.923 13.4202 59.6203 14.0175 59.6009 14.9357C59.5845 15.8316 58.9051 16.3975 57.8092 16.3975C52.0557 16.3975 46.3022 16.3975 40.5487 16.3975C39.4199 16.3975 38.7271 15.8002 38.745 14.8805C38.7614 13.9846 39.4348 13.4217 40.5367 13.4202C43.4125 13.4172 46.2892 13.4172 49.167 13.4202Z" fill="#0266F4"/>
<path d="M11.064 25.3633C12.0599 26.3533 13.0245 27.3044 13.9846 28.2689C14.652 28.9364 15.3284 29.5889 15.9719 30.2832C16.5781 30.9461 16.5378 31.7389 15.9286 32.3377C15.3194 32.9364 14.5131 32.9827 13.8726 32.3541C11.8708 30.3922 9.88694 28.4103 7.92099 26.4085C7.24759 25.7232 7.267 24.9258 7.95683 24.227C9.88893 22.2651 11.8365 20.3176 13.7994 18.3845C14.4683 17.726 15.3239 17.729 15.9286 18.3158C16.5333 18.9026 16.5617 19.7969 15.8778 20.4987C14.4922 21.9217 13.0767 23.3133 11.6717 24.7183C11.4851 24.9079 11.3074 25.1065 11.064 25.3633Z" fill="#0266F4"/>
<path d="M33.77 25.4473C32.1067 23.787 30.6344 22.3118 29.1592 20.844C28.9395 20.6415 28.7395 20.4185 28.562 20.1781C28.3674 19.9007 28.2786 19.5628 28.3117 19.2256C28.3449 18.8884 28.4978 18.5742 28.7427 18.3401C28.9751 18.094 29.2871 17.9381 29.6235 17.8998C29.9598 17.8616 30.2989 17.9435 30.5807 18.131C30.746 18.2408 30.8987 18.3685 31.0361 18.5118C32.8816 20.3513 34.7231 22.1928 36.5607 24.0363C37.4939 24.9755 37.4864 25.7071 36.5412 26.6583C34.7346 28.4903 32.9025 30.3075 31.0824 32.1365C30.6225 32.5994 30.1253 32.9428 29.4325 32.7338C28.2738 32.3874 27.9394 31.0913 28.8143 30.1955C30.197 28.7695 31.611 27.3765 33.0234 25.9804C33.2584 25.784 33.5079 25.6058 33.77 25.4473Z" fill="#0266F4"/>
<path d="M20.8918 32.7847C19.884 32.8027 19.1882 31.8889 19.4465 30.8437C20.0826 28.2457 20.7395 25.6521 21.3876 23.057C21.7071 21.7834 22.0191 20.5083 22.3476 19.2376C22.6045 18.2432 23.345 17.7266 24.1812 17.9371C25.0621 18.1581 25.4727 18.9554 25.2159 19.9887C24.2683 23.8111 23.3147 27.632 22.3551 31.4514C22.1386 32.3129 21.6205 32.7713 20.8918 32.7847Z" fill="#0266F4"/>
<path d="M52.9596 55.1501C53.2314 55.1501 53.5061 55.1277 53.7749 55.1501C54.1466 55.1844 54.492 55.3568 54.7429 55.6331C54.9939 55.9095 55.1322 56.2699 55.1306 56.6432C55.1281 57.0058 54.9911 57.3545 54.7462 57.6219C54.5012 57.8892 54.1657 58.056 53.8047 58.09C53.2134 58.1378 52.6192 58.1378 52.0279 58.09C51.6541 58.0612 51.3054 57.8904 51.0534 57.6129C50.8013 57.3353 50.6649 56.9718 50.6721 56.5969C50.6804 56.2229 50.8287 55.8656 51.0878 55.5958C51.3469 55.3259 51.6978 55.1631 52.0712 55.1396C52.3653 55.1292 52.664 55.1501 52.9596 55.1501Z" fill="#0266F4"/>
<path d="M60.3133 58.1167C60.0415 58.1167 59.7668 58.1391 59.498 58.1167C59.1226 58.0928 58.7704 57.9268 58.513 57.6525C58.2556 57.3782 58.1123 57.0161 58.1123 56.64C58.1123 56.2638 58.2556 55.9017 58.513 55.6274C58.7704 55.3531 59.1226 55.1871 59.498 55.1633C60.0156 55.1312 60.5345 55.1282 61.0524 55.1543C61.9482 55.1887 62.5783 55.8188 62.5768 56.6474C62.5754 57.4761 61.9408 58.0883 61.0479 58.1316C60.8015 58.1435 60.5537 58.1316 60.3013 58.1316L60.3133 58.1167Z" fill="#0266F4"/>
<path d="M67.0263 58.1164C66.7313 58.1099 66.445 58.0155 66.2039 57.8455C65.9628 57.6755 65.7778 57.4374 65.6726 57.1618C65.5674 56.8861 65.5468 56.5853 65.6133 56.2979C65.6799 56.0104 65.8306 55.7493 66.0462 55.548C66.2618 55.3466 66.5326 55.214 66.8239 55.1672C67.1152 55.1204 67.4138 55.1615 67.6817 55.2853C67.9495 55.409 68.1744 55.6098 68.3276 55.8619C68.4808 56.1141 68.5554 56.4062 68.5418 56.7009C68.5218 57.0872 68.3526 57.4506 68.0699 57.7147C67.7872 57.9787 67.4131 58.1227 67.0263 58.1164Z" fill="#0266F4"/>
</g>
</svg>
