<svg width="77" height="77" viewBox="0 0 77 77" fill="none" xmlns="http://www.w3.org/2000/svg">
<g id="Vector">
<path d="M47.4315 60.4628V65.8025C48.5235 65.8025 49.5909 65.8685 50.6522 65.7902C52.9681 65.617 54.4711 67.0033 54.2932 69.4707C54.2103 70.6132 54.2932 71.771 54.2763 72.9119C54.2533 74.792 53.1092 75.979 51.2212 75.9943C48.7213 76.025 46.2214 76.0035 43.723 76.0035H25.2759C22.8328 76.0035 21.7684 74.9454 21.7653 72.5255C21.7653 71.2772 21.75 70.0274 21.7653 68.7775C21.7975 67.0355 22.9662 65.8531 24.7008 65.8178C25.9737 65.7918 27.2467 65.8178 28.5825 65.8178V60.4628H27.7283C20.5609 60.4628 13.394 60.4628 6.22762 60.4628C3.03603 60.4628 0.602074 58.5382 0.128167 55.5555C-0.0543411 54.4069 0.0116057 53.2153 0.0116057 52.0437C0.0116057 40.7222 0.0182524 29.3997 0.0315443 18.0761C0.0315443 15.2069 1.52841 13.037 4.04365 12.2027C4.30279 12.0966 4.57525 12.0264 4.85344 11.9942C5.56353 11.965 6.16626 11.9175 6.36411 11.0066C6.41779 10.7551 7.03279 10.568 7.42082 10.4591C7.95147 10.3058 8.52046 10.295 9.05878 10.1631C9.53729 10.0435 9.66459 9.70307 9.37779 9.29056C9.10025 8.89711 8.78763 8.52961 8.44378 8.19255C7.76436 7.53007 7.69995 7.11908 8.24594 6.32779C9.33794 4.74898 10.7485 3.41637 12.3869 2.41576C13.1353 1.9557 13.6138 2.04465 14.1951 2.68566C14.5366 3.05896 14.9097 3.4022 15.3101 3.71159C15.7242 4.02903 16.1061 3.92782 16.2441 3.40489C16.3967 2.86891 16.4928 2.31844 16.5309 1.76248C16.5861 0.68901 16.9005 0.310229 17.9725 0.172212C19.7807 -0.0608841 21.5813 -0.0961547 23.3711 0.311763C24.2913 0.521856 24.5658 0.909838 24.4447 1.82382C24.4447 1.87443 24.4247 1.9235 24.4217 1.97717C24.3787 2.66879 24.2683 3.54597 24.96 3.80514C25.3051 3.93395 26.0244 3.31901 26.4477 2.90956C27.2145 2.16426 27.7007 2.06305 28.5795 2.69333C30.0776 3.77097 31.3465 5.13568 32.3124 6.7081C32.7587 7.42272 32.679 7.87051 32.0717 8.46552C31.6858 8.83163 31.327 9.22525 30.9981 9.64327C30.6407 10.1141 30.811 10.4744 31.3754 10.5787C31.8462 10.6661 32.3493 10.6109 32.8063 10.7321C33.2143 10.8425 33.774 11.0173 33.9182 11.3271C34.1759 11.8761 34.5148 11.8975 34.9918 11.8975C46.4433 11.8894 57.8948 11.8894 69.3462 11.8975C70.2118 11.8788 71.0758 11.98 71.9136 12.1981C73.0881 12.5398 74.12 13.2536 74.854 14.232C75.588 15.2104 75.9846 16.4006 75.984 17.6237C76.0224 22.6982 76.0009 27.7726 76.0024 32.847C76.0024 39.9105 76.0024 46.9739 76.0024 54.0373C76.0024 58.049 73.5884 60.4597 69.5701 60.4612C62.506 60.4612 55.4414 60.4612 48.3762 60.4612L47.4315 60.4628ZM73.6574 50.8016V50.1422C73.6574 39.4565 73.6574 28.773 73.6574 18.0915C73.6574 15.7145 72.2065 14.2714 69.8401 14.2699C58.2362 14.2699 46.6314 14.2699 35.0255 14.2699C34.8077 14.2699 34.59 14.2991 34.4611 14.3083C34.3078 15.4599 34.2111 16.5257 34.0332 17.5762C33.8799 18.4764 33.4198 18.7309 32.5088 18.665C31.9818 18.6203 31.4511 18.6602 30.9367 18.7831C30.403 18.9211 30.199 19.3643 30.5257 19.8565C30.7977 20.2522 31.1176 20.6128 31.4781 20.93C32.1913 21.5818 32.3523 22.2074 31.702 22.9236C30.6055 24.1182 29.4736 25.3006 28.2237 26.3265C26.9154 27.4 26.69 27.2941 25.5351 26.0121C25.4508 25.917 25.3725 25.7928 25.2637 25.7468C24.8833 25.5843 24.4477 25.2776 24.1149 25.3588C23.8649 25.4202 23.7131 25.983 23.572 26.3449C23.5113 26.5664 23.49 26.7969 23.5091 27.0258C23.4999 28.3109 23.2929 28.6038 22.0353 28.9642C20.4755 29.4119 18.902 29.2709 17.3361 28.9994C15.9082 28.7525 15.7886 28.5593 15.8499 27.1439C15.8649 26.6894 15.8101 26.2353 15.6874 25.7974C15.5509 25.3067 15.1843 25.1595 14.7503 25.4907C14.4248 25.7349 14.1229 26.0091 13.8485 26.3096C13.0985 27.1331 12.5878 27.2006 11.6752 26.5351C10.2066 25.4672 8.96095 24.1227 8.00822 22.577C7.54811 21.8287 7.61866 21.3824 8.26741 20.7675C8.6112 20.4657 8.92549 20.132 9.20602 19.7707C9.68453 19.1082 9.56337 18.8061 8.75665 18.6052C8.33395 18.5107 7.90401 18.4522 7.47143 18.4304C6.51441 18.3552 6.14019 18.0332 6.03284 17.0885C5.92701 16.1684 5.85646 15.2406 5.77211 14.3205C3.61575 14.4861 2.39801 15.9139 2.39035 18.2172C2.39035 28.8251 2.39035 39.433 2.39035 50.0409C2.39035 50.2878 2.41335 50.5363 2.42562 50.8077L73.6574 50.8016ZM2.50997 53.2552C1.85049 55.9266 3.48846 58.0643 6.20461 58.0643C15.0524 58.0643 23.9002 58.0413 32.7465 58.0429C45.088 58.0429 57.428 58.0321 69.7695 58.0935C72.2234 58.1057 74.1681 56.244 73.5347 53.2552H2.50997ZM12.5464 24.152C12.801 23.9434 12.9359 23.8284 13.0755 23.721C15.2579 22.0434 17.2824 22.7212 18.0063 25.3665C18.1336 25.8342 18.1504 26.5059 18.4664 26.7053C18.859 26.9583 19.5001 26.8249 20.0338 26.8586C20.1611 26.8663 20.2899 26.8433 20.4157 26.8586C21.0966 26.9123 21.4049 26.693 21.5567 25.9293C22.1012 23.169 24.4999 22.3071 26.7483 23.9833C26.9492 24.1366 27.147 24.29 27.443 24.5169L29.7435 22.416C28.67 21.1646 28.0734 19.8627 28.67 18.3798C29.2834 16.8631 30.7159 16.5319 32.2695 16.3662V13.2379C29.3448 13.0446 27.2406 10.5802 30.0871 7.26783C29.4061 6.51947 28.7134 5.75987 28.0089 4.98902C26.782 5.98581 25.5781 6.74797 24.0843 6.08242C22.5905 5.41687 22.3313 3.96156 22.1871 2.46023H19.1197C18.6596 6.37072 15.7456 7.32151 12.9927 4.86787L10.6891 6.95193C11.6875 8.16035 12.4513 9.37337 11.7918 10.8655C11.1323 12.3576 9.67379 12.6244 8.18766 12.7747V15.8939C9.6968 16.1285 11.0541 16.4859 11.643 17.9565C12.2565 19.4732 11.4115 20.6494 10.4422 21.8348L12.5464 24.152ZM50.7795 73.6373C51.8393 73.6373 51.9282 73.553 51.9313 72.524C51.9313 71.4536 51.9313 70.3832 51.9313 69.3128C51.9313 68.273 51.8239 68.1595 50.8056 68.1626C47.4407 68.1718 44.0758 68.1979 40.7109 68.1964C35.5608 68.1964 30.4107 68.1733 25.2606 68.1626C24.3404 68.1626 24.1272 68.365 24.1241 69.2713C24.118 70.3683 24.118 71.4643 24.1241 72.5592C24.1241 73.5376 24.23 73.6327 25.2314 73.6327L50.7795 73.6373ZM31.041 65.689H44.9837V60.5257H31.041V65.689Z" fill="#0266F4"/>
<path d="M54.2764 18.068C58.3314 18.068 62.386 18.068 66.44 18.068C69.4245 18.068 71.041 19.672 71.041 22.6348C71.041 29.5183 71.041 36.4028 71.041 43.2883C71.041 46.0364 69.2482 47.8628 66.5029 47.8659C58.3171 47.8802 50.1319 47.8802 41.9471 47.8659C39.2141 47.8659 37.5577 46.1913 37.5546 43.4754C37.5485 36.4631 37.5485 29.4513 37.5546 22.44C37.5546 19.718 39.2095 18.0756 41.9533 18.068C46.0574 18.0557 50.163 18.068 54.2764 18.068ZM68.6147 28.4683C68.5411 28.4376 68.4646 28.4145 68.3862 28.3993C59.0819 28.3932 49.7776 28.3865 40.4732 28.3794C40.0285 28.3794 39.9104 28.5511 39.9104 28.9683C39.9211 33.8357 39.9104 38.7046 39.9288 43.5736C39.9288 44.8004 40.6956 45.4782 41.9348 45.4782C50.1431 45.4782 58.3514 45.4782 66.5596 45.4782C67.8863 45.4782 68.6454 44.7191 68.6469 43.388C68.6551 38.5962 68.6551 33.804 68.6469 29.0112C68.6423 28.8364 68.6209 28.6615 68.6071 28.4683H68.6147ZM39.9441 25.9748H68.6439C68.6439 24.9013 68.6439 23.8923 68.6439 22.8756C68.6439 21.0062 68.0596 20.4219 66.1716 20.4219H42.3996C42.0921 20.4143 41.7844 20.4302 41.4793 20.4695C40.6282 20.6029 40.0009 21.1779 39.9579 22.0382C39.8951 23.3341 39.9441 24.6299 39.9441 25.9748Z" fill="#0266F4"/>
<path d="M20.1105 37.6626C23.2975 37.6626 26.4845 37.6335 29.6699 37.6734C31.7373 37.6994 33.2971 38.6793 34.1789 40.5487C35.0608 42.4181 34.8538 44.2798 33.5793 45.9437C32.5854 47.2425 31.2021 47.8575 29.5917 47.8621C23.2699 47.882 16.948 47.9004 10.6262 47.8621C7.7751 47.8437 5.73224 45.8685 5.50986 43.1082C5.30435 40.541 7.04354 38.2684 9.6508 37.7623C10.1035 37.6891 10.562 37.6588 11.0204 37.6718C14.0525 37.6642 17.0861 37.6718 20.1197 37.6718L20.1105 37.6626ZM20.0323 45.4836C23.1426 45.4836 26.2534 45.4836 29.3647 45.4836C30.9858 45.4836 32.2941 44.2874 32.3263 42.8015C32.3585 41.3155 31.064 40.0411 29.4414 40.0304C23.2188 40.0089 16.9971 40.0089 10.7765 40.0304C9.13854 40.0304 7.86252 41.2787 7.86252 42.7647C7.86252 44.2982 9.16002 45.4821 10.8486 45.4851C13.9098 45.4862 16.971 45.4846 20.0323 45.4805V45.4836Z" fill="#0266F4"/>
<path d="M38.0408 56.8871C37.4273 56.8871 36.8139 56.9224 36.2004 56.8779C35.4136 56.8181 35.0363 56.3642 35.0701 55.625C35.1023 54.9396 35.5133 54.5316 36.2709 54.5178C37.4442 54.4948 38.6175 54.4933 39.7984 54.5178C40.5392 54.5347 40.9517 54.9779 40.9686 55.6557C40.9855 56.3335 40.6205 56.7737 39.8782 56.8825C39.8025 56.8941 39.7262 56.9002 39.6496 56.9009H38.0408V56.8871Z" fill="#0266F4"/>
<path d="M20.0983 22.6831C18.5235 22.6834 16.9841 22.2162 15.6751 21.3408C14.3661 20.4654 13.3465 19.2212 12.7454 17.7658C12.1443 16.3104 11.9888 14.7093 12.2987 13.1655C12.6085 11.6216 13.3697 10.2045 14.4858 9.09366C15.6019 7.98282 17.0227 7.22827 18.5681 6.92562C20.1136 6.62298 21.7141 6.78586 23.1668 7.39364C24.6196 8.00141 25.8592 9.02671 26.7286 10.3396C27.598 11.6525 28.058 13.1939 28.0504 14.7685C28.0482 15.8104 27.8408 16.8416 27.4399 17.8032C27.039 18.7648 26.4526 19.6381 25.7141 20.373C24.9757 21.108 24.0996 21.6903 23.136 22.0867C22.1725 22.483 21.1402 22.6857 20.0983 22.6831ZM20.1213 9.17885C19.0189 9.17038 17.9388 9.48901 17.0175 10.0944C16.0962 10.6998 15.3752 11.5649 14.9456 12.58C14.5161 13.5952 14.3972 14.715 14.6042 15.7977C14.8112 16.8805 15.3346 17.8775 16.1083 18.6627C16.8821 19.4479 17.8713 19.9861 18.9509 20.2091C20.0306 20.4321 21.1521 20.33 22.1737 19.9156C23.1952 19.5012 24.071 18.7932 24.6901 17.8811C25.3092 16.969 25.6438 15.8938 25.6518 14.7916C25.659 14.0594 25.5216 13.3331 25.2472 12.6542C24.9729 11.9754 24.5671 11.3574 24.0532 10.8358C23.5393 10.3143 22.9274 9.89941 22.2526 9.61505C21.5779 9.33069 20.8535 9.18245 20.1213 9.17885Z" fill="#0266F4"/>
<path d="M60.2424 36.8787C59.3468 35.9202 58.5707 35.0768 57.7793 34.2517C57.1751 33.6184 57.106 32.959 57.6137 32.4422C58.1213 31.9254 58.7639 31.953 59.3728 32.525C60.5221 33.6066 61.66 34.6995 62.7868 35.8036C63.3773 36.3818 63.3742 37.0151 62.7868 37.6101C61.6938 38.7143 60.5911 39.8077 59.4786 40.8904C58.8836 41.467 58.2302 41.4762 57.7318 40.9594C57.2333 40.4426 57.2625 39.7954 57.8499 39.205C58.6505 38.3953 59.4909 37.6132 60.2424 36.8787Z" fill="#0266F4"/>
<path d="M52.9681 42.5315C52.1169 42.5575 51.6123 41.8015 51.847 40.8906C52.2028 39.5104 52.5923 38.1395 52.965 36.7639C53.3899 35.192 53.8055 33.6186 54.2364 32.0483C54.4512 31.2647 55.0171 30.8675 55.675 31.0086C56.333 31.1496 56.698 31.8014 56.5032 32.5774C55.7594 35.5386 54.9941 38.4952 54.2288 41.4503C54.0555 42.1312 53.5754 42.4533 52.9681 42.5315Z" fill="#0266F4"/>
<path d="M48.0895 36.7252C48.9376 37.5564 49.7443 38.3323 50.5342 39.1252C51.1829 39.7769 51.2305 40.4716 50.6876 40.9915C50.1446 41.5113 49.5342 41.4515 48.8855 40.8059C47.8349 39.7662 46.7889 38.7249 45.7522 37.6714C45.0682 36.9752 45.0835 36.3955 45.7905 35.7039C46.8641 34.6539 47.9443 33.6091 49.0312 32.5693C49.6707 31.9559 50.3363 31.9268 50.844 32.4528C51.3516 32.9788 51.2949 33.6397 50.6615 34.2577C49.8486 35.0598 49.0128 35.8434 48.0895 36.7252Z" fill="#0266F4"/>
<path d="M49.1155 24.4947H43.0037C42.3734 24.4947 41.8397 24.3413 41.6388 23.6451C41.5838 23.488 41.5635 23.3209 41.5795 23.1552C41.5955 22.9896 41.6473 22.8294 41.7313 22.6857C41.8153 22.542 41.9296 22.4184 42.0661 22.3232C42.2027 22.228 42.3583 22.1637 42.5222 22.1346C42.6467 22.1085 42.7737 22.0962 42.901 22.0978C47.0767 22.0978 51.2524 22.0978 55.4281 22.0978C56.2578 22.0978 56.6964 22.4812 56.7609 23.1713C56.8391 23.9902 56.3406 24.4886 55.3805 24.4947C53.2917 24.4947 51.2089 24.4947 49.1155 24.4947Z" fill="#0266F4"/>
<path d="M59.9341 24.5238C58.609 24.4885 58.1014 24.1649 58.0845 23.3107C58.0676 22.4566 58.6075 22.0578 59.9571 22.1008C60.4417 22.1177 61.0108 22.1744 61.3834 22.4382C62.0843 22.9304 61.8083 24.1342 60.9816 24.3903C60.6503 24.4962 60.2838 24.4823 59.9341 24.5238Z" fill="#0266F4"/>
<path d="M65.0319 22.103C66.3386 22.0877 66.8447 22.4097 66.854 23.2716C66.8632 24.1334 66.3524 24.4892 65.0672 24.4892C64.8115 24.4982 64.5555 24.4931 64.3004 24.4738C63.5841 24.3926 63.1792 23.9479 63.1992 23.267C63.2191 22.5861 63.5949 22.1935 64.2728 22.1091C64.5254 22.0909 64.779 22.0889 65.0319 22.103Z" fill="#0266F4"/>
<path d="M17.5417 43.9425C15.8546 43.9425 14.1814 43.9425 12.502 43.9425C11.545 43.9425 11.0711 43.533 11.0772 42.7463C11.0833 41.9596 11.5174 41.5747 12.4499 41.5701C15.8352 41.5548 19.22 41.5548 22.6043 41.5701C23.566 41.5701 24.0153 42.0102 23.9847 42.8092C23.9586 43.5621 23.5046 43.9379 22.5783 43.9425C20.9004 43.9471 19.221 43.9425 17.5417 43.9425Z" fill="#0266F4"/>
</g>
</svg>
