<svg width="13" height="9" viewBox="0 0 13 9" fill="none" xmlns="http://www.w3.org/2000/svg">
<path d="M0.361149 1.18363C0.28134 1.26323 0.21802 1.3578 0.174817 1.46192C0.131613 1.56604 0.109375 1.67765 0.109375 1.79038C0.109375 1.9031 0.131613 2.01472 0.174817 2.11884C0.21802 2.22295 0.28134 2.31752 0.361149 2.39713L6.05844 8.09442C6.12187 8.15798 6.19721 8.2084 6.28015 8.24281C6.36309 8.27721 6.452 8.29492 6.54179 8.29492C6.63158 8.29492 6.72049 8.27721 6.80343 8.24281C6.88636 8.2084 6.9617 8.15798 7.02513 8.09442L12.7224 2.39713C13.0584 2.06119 13.0584 1.51957 12.7224 1.18363C12.3865 0.847685 11.8449 0.847685 11.5089 1.18363L6.53836 6.14733L1.5678 1.17677C1.23871 0.847687 0.690234 0.847685 0.361149 1.18363Z" fill="black"/>
</svg>
