<svg width="21" height="18" viewBox="0 0 21 18" fill="none" xmlns="http://www.w3.org/2000/svg">
<path d="M2.61307 1.6548L3.53138 0.706543L18.6433 16.3112L17.725 17.2595L2.61307 1.6548ZM10.7677 6.22775L13.2962 8.8387C13.2611 8.158 12.9834 7.51477 12.5166 7.03275C12.0498 6.55074 11.4269 6.26402 10.7677 6.22775ZM10.4888 11.7376L7.96031 9.12666C7.99543 9.80735 8.27311 10.4506 8.7399 10.9326C9.20669 11.4146 9.82961 11.7013 10.4888 11.7376Z" fill="black"/>
<path d="M10.6282 13.1209C10.0117 13.1209 9.4035 12.9741 8.85091 12.6918C8.29831 12.4095 7.81625 11.9993 7.44222 11.4932C7.0682 10.9871 6.81229 10.3987 6.69442 9.77384C6.57655 9.14896 6.5999 8.50441 6.76263 7.89036L3.87929 4.91257C2.70165 6.02644 1.57954 7.47999 0.609375 8.98268C1.71229 10.8794 3.22096 12.8295 4.79225 13.9477C6.59482 15.2297 8.55476 15.8797 10.6182 15.8797C11.7459 15.8805 12.8651 15.6792 13.9261 15.2848L11.6882 12.9743C11.3428 13.0719 10.9863 13.1212 10.6282 13.1209ZM10.6282 4.84446C11.2448 4.84443 11.853 4.99128 12.4056 5.2736C12.9582 5.55591 13.4402 5.96607 13.8143 6.47216C14.1883 6.97825 14.4442 7.56663 14.5621 8.19152C14.6799 8.8164 14.6566 9.46095 14.4939 10.075L17.4436 13.1209C18.6605 11.9894 19.7842 10.4673 20.6471 8.98268C19.5459 7.11057 18.0213 5.16517 16.4233 4.0332C14.5982 2.74087 12.645 2.08565 10.6182 2.08565C9.50298 2.0873 8.39709 2.29595 7.35333 2.70164L9.57042 4.99102C9.91511 4.8936 10.2709 4.84431 10.6282 4.84446Z" fill="black"/>
</svg>
