<svg width="72" height="76" viewBox="0 0 72 76" fill="none" xmlns="http://www.w3.org/2000/svg">
<g id="Vector">
<path d="M0 63.4661V22.6193C0.749204 20.3395 2.36248 19.4351 4.70782 19.5601C6.18565 19.6389 7.67034 19.5772 9.15332 19.5704C9.39505 19.5704 9.63679 19.531 9.90938 19.5053C9.90938 14.896 9.90938 10.3706 9.90938 5.84345C9.90938 2.26184 12.1381 0.00942078 15.7007 0.00770791C29.0732 -0.0025693 42.44 -0.0025693 55.8011 0.00770791C59.3294 0.00770791 61.5736 2.26355 61.5804 5.77322C61.5873 10.0451 61.5873 14.3165 61.5804 18.5872V19.567H67.0529C69.9983 19.567 71.4881 21.0452 71.4881 23.9605C71.4881 36.6357 71.4881 49.3109 71.4881 61.9862C71.4881 64.8895 70.0411 66.3266 67.1197 66.3283H43.4607C43.903 68.4934 44.347 70.5437 44.7276 72.6077C44.8305 73.1626 45.0705 73.2843 45.5849 73.2723C46.7849 73.2466 47.985 73.2414 49.1749 73.2723C50.1178 73.3014 50.6715 73.8769 50.639 74.6974C50.6064 75.5178 50.0458 75.9837 49.0514 75.9889C46.7747 76.0026 44.4962 75.9889 42.2177 75.9889C35.6366 75.9889 29.0549 75.9889 22.4727 75.9889C21.3789 75.9889 20.7583 75.487 20.7428 74.6477C20.7274 73.8084 21.3789 73.2774 22.4453 73.2603C23.5853 73.2466 24.7289 73.214 25.8655 73.274C26.5256 73.3082 26.7605 73.0462 26.8633 72.4449C26.9936 71.6896 27.2062 70.9479 27.3777 70.2011L28.3034 66.3214H27.1514C19.685 66.3214 12.217 66.2752 4.75068 66.3488C2.47392 66.378 0.831496 65.6688 0 63.4661ZM61.5839 22.3076V23.45C61.5839 29.6598 61.5839 35.8683 61.5839 42.0758C61.5839 45.7516 59.3654 47.9612 55.6691 47.9612C42.3869 47.9612 29.1058 47.9612 15.8259 47.9612C12.1296 47.9612 9.91452 45.7516 9.91281 42.0723C9.91281 35.8352 9.91281 29.5987 9.91281 23.3627V22.3076H4.42665C2.97796 22.3076 2.73965 22.5439 2.73965 23.9896V55.3831H68.7604V24.0204C68.7604 23.82 68.7604 23.6196 68.7604 23.4226C68.7039 22.7598 68.3404 22.3384 67.6769 22.3298C65.6813 22.2956 63.6909 22.3076 61.5839 22.3076ZM12.6473 13.1488V14.1183C12.6473 23.4295 12.6473 32.7401 12.6473 42.0501C12.6473 44.2289 13.6451 45.2275 15.831 45.2275H55.6657C57.8413 45.2275 58.8459 44.2203 58.8459 42.0449C58.8459 32.7338 58.8459 23.4232 58.8459 14.1132V13.1488H12.6473ZM2.72937 58.1939V61.7909C2.72937 63.4524 2.87681 63.6014 4.51237 63.6014H66.9894C67.274 63.6014 67.6101 63.6819 67.8312 63.562C68.1741 63.3753 68.6782 63.0584 68.6884 62.7741C68.7742 61.2565 68.7279 59.7303 68.7279 58.2024L2.72937 58.1939ZM58.8065 10.326C58.8065 8.49669 58.8322 6.71017 58.7842 4.92707C58.7739 4.56223 58.5305 4.17169 58.3093 3.8531C57.6818 2.94185 56.7492 2.72946 55.6914 2.72946C42.3897 2.74088 29.0875 2.7443 15.7847 2.73974C15.5284 2.73575 15.272 2.74547 15.0167 2.76885C13.8611 2.89047 12.769 3.79658 12.7039 4.93392C12.6027 6.71359 12.6782 8.50182 12.6782 10.326H58.8065ZM40.6765 66.4156C40.5768 66.3801 40.474 66.3538 40.3696 66.3369C37.455 66.3369 34.5542 66.3368 31.6483 66.318C31.134 66.318 31.05 66.6109 30.9625 66.9895C30.5613 68.7023 30.1482 70.4152 29.7453 72.1366C29.6647 72.4792 29.615 72.8218 29.543 73.2089H42.0583L40.6765 66.4156Z" fill="#0266F4"/>
<path d="M35.8383 33.0017H54.7295C56.2485 33.0017 56.6274 33.3871 56.6291 34.9304C56.6291 37.4072 56.6291 39.8846 56.6291 42.3625C56.6291 44.012 56.264 44.3871 54.6318 44.3889C50.4703 44.3889 46.31 44.3889 42.1508 44.3889H17.0173C15.1915 44.3889 14.864 44.0634 14.864 42.2632C14.864 39.759 14.864 37.2536 14.864 34.7471C14.864 33.4436 15.3029 33.0034 16.6024 33.0017C23.0121 32.9994 29.4241 32.9994 35.8383 33.0017ZM53.8278 41.6294V35.8057H17.6671V41.6294H53.8278Z" fill="#0266F4"/>
<path d="M25.8449 20.2021C25.8449 21.0825 25.8346 21.9647 25.8449 22.8468C25.8792 24.9673 27.3673 26.5363 29.3749 26.5825C31.4545 26.6288 33.0335 25.1403 33.1004 22.9701C33.1586 21.0945 33.1004 19.2155 33.1261 17.3382C33.1364 16.4321 33.649 15.8634 34.4136 15.824C34.6001 15.8144 34.7866 15.8436 34.9613 15.9098C35.1359 15.976 35.2949 16.0776 35.4282 16.2084C35.5615 16.3391 35.6661 16.4961 35.7356 16.6693C35.805 16.8426 35.8376 17.0284 35.8314 17.2149C35.8554 19.3183 35.9292 21.4319 35.768 23.5251C35.635 25.132 34.8866 26.6258 33.6788 27.6953C32.471 28.7648 30.8968 29.3277 29.284 29.2666C27.6731 29.2102 26.1431 28.5468 25.0017 27.4095C23.8603 26.2723 23.1919 24.7456 23.131 23.1363C23.0573 21.2041 23.0967 19.2686 23.1173 17.3348C23.1258 16.4235 23.7327 15.8052 24.5128 15.8206C25.2929 15.836 25.8278 16.4389 25.8415 17.3844C25.8552 18.3299 25.8449 19.2635 25.8449 20.2021Z" fill="#0266F4"/>
<path d="M43.0972 20.2998C44.0281 19.0905 44.8716 17.984 45.7271 16.8877C46.3752 16.0553 47.1878 15.8806 47.8513 16.4116C48.5148 16.9426 48.537 17.6979 47.9181 18.5252C46.9049 19.863 45.8745 21.1871 44.8322 22.5488C45.902 23.9413 46.9581 25.3168 48.0124 26.6939C48.4359 27.2472 48.5936 27.9049 48.081 28.4068C47.7381 28.7288 47.1484 28.9018 46.6683 28.9035C46.3614 28.9035 45.9946 28.5198 45.7562 28.2184C44.8802 27.1358 44.0418 26.0191 43.104 24.7926L41.0159 27.5058C40.8067 27.7765 40.6061 28.0539 40.3867 28.316C39.7969 29.0251 38.9877 29.1724 38.3671 28.7065C37.719 28.2167 37.6385 27.4322 38.2076 26.6682C39.0408 25.5514 39.9049 24.4569 40.7553 23.3521C40.9456 23.1037 41.1324 22.8537 41.3673 22.5419L38.5282 18.8404C38.3722 18.6383 38.2076 18.4413 38.0671 18.2272C37.6162 17.5421 37.7242 16.7816 38.3054 16.3242C38.4454 16.2132 38.6064 16.1313 38.7788 16.0836C38.9511 16.0359 39.1313 16.0233 39.3086 16.0464C39.4859 16.0696 39.6568 16.1281 39.8111 16.2185C39.9653 16.3089 40.0999 16.4293 40.2067 16.5726C40.8924 17.4067 41.537 18.2855 42.1988 19.1419L43.0972 20.2998Z" fill="#0266F4"/>
<path d="M62.664 68.5186C63.0069 68.5186 63.3498 68.5032 63.6926 68.5186C64.447 68.5614 64.8927 68.9708 65.0025 69.7176C65.0316 69.8869 65.0258 70.0603 64.9856 70.2273C64.9454 70.3943 64.8715 70.5514 64.7685 70.6889C64.6655 70.8265 64.5355 70.9416 64.3865 71.0273C64.2375 71.1129 64.0726 71.1673 63.9018 71.1872C63.058 71.2797 62.2066 71.2797 61.3627 71.1872C60.6358 71.0999 60.2364 70.5552 60.2415 69.8066C60.2415 69.0992 60.8038 68.5751 61.5685 68.5271C61.9268 68.4997 62.2954 68.5186 62.664 68.5186Z" fill="#0266F4"/>
<path d="M55.6503 71.2676C55.2525 71.2454 54.8411 71.2813 54.4605 71.1888C53.7404 71.0175 53.3186 70.5174 53.3838 69.762C53.4489 69.0066 53.8981 68.563 54.6662 68.527C55.3194 68.4945 55.976 68.4979 56.6309 68.527C57.4298 68.5562 57.9493 69.0409 58.0025 69.7654C58.0539 70.5311 57.5704 71.1358 56.7629 71.2282C56.3935 71.2514 56.0231 71.2514 55.6537 71.2282L55.6503 71.2676Z" fill="#0266F4"/>
<path d="M48.7103 71.2596C48.3121 71.2702 47.9137 71.2496 47.5188 71.198C46.7901 71.0472 46.3787 70.5642 46.377 69.8123C46.377 69.1014 46.9359 68.5585 47.7039 68.5225C48.3571 68.4917 49.0137 68.4934 49.6669 68.5225C50.4539 68.555 50.9716 69.0655 51.0042 69.79C51.0338 70.1355 50.9258 70.4788 50.7037 70.7452C50.4816 71.0117 50.1633 71.1799 49.8178 71.2134C49.4491 71.24 49.079 71.24 48.7103 71.2134V71.2596Z" fill="#0266F4"/>
<path d="M16.6968 7.91745C16.4682 7.9256 16.2393 7.92159 16.011 7.90546C15.6664 7.88154 15.3433 7.72953 15.1053 7.47938C14.8673 7.22922 14.7317 6.89908 14.7252 6.554C14.7258 6.20855 14.858 5.87628 15.0949 5.62465C15.3318 5.37302 15.6557 5.22088 16.0008 5.19913C16.4808 5.15802 16.9677 5.18371 17.4512 5.18371H36.675C36.903 5.18371 37.131 5.18371 37.3608 5.18371C38.218 5.22653 38.8129 5.77979 38.8163 6.54201C38.8197 7.30424 38.2317 7.89175 37.3711 7.91231C35.9481 7.938 34.5251 7.91231 33.1004 7.91231L16.6968 7.91745Z" fill="#0266F4"/>
<path d="M53.6479 7.91793C53.0787 7.91793 52.5061 7.94362 51.9335 7.91793C51.1071 7.8734 50.5859 7.32871 50.5859 6.56134C50.5859 5.79398 51.1003 5.22701 51.93 5.20474C53.0959 5.1722 54.2668 5.17049 55.4326 5.20474C55.7798 5.20861 56.112 5.34673 56.3594 5.59011C56.6069 5.83348 56.7503 6.16318 56.7596 6.50996C56.7675 6.87023 56.633 7.2191 56.3853 7.48103C56.1375 7.74295 55.7965 7.89684 55.436 7.90937C54.8411 7.94705 54.2359 7.91793 53.6428 7.91793H53.6479Z" fill="#0266F4"/>
<path d="M45.914 7.91949C45.3157 7.91949 44.7139 7.9486 44.1207 7.91949C43.76 7.90961 43.4176 7.75807 43.1679 7.49771C42.9183 7.23735 42.7814 6.88917 42.7869 6.52864C42.7944 6.18179 42.9357 5.85124 43.1814 5.60609C43.4271 5.36093 43.7581 5.22015 44.1053 5.21315C45.3054 5.17547 46.5055 5.17205 47.6919 5.21315C47.864 5.21599 48.0339 5.25315 48.1914 5.32246C48.349 5.39176 48.4911 5.49182 48.6094 5.61675C48.7278 5.74168 48.82 5.88897 48.8805 6.04998C48.9411 6.21098 48.9689 6.38246 48.9623 6.55433C48.9757 6.90079 48.8512 7.23845 48.616 7.49336C48.3808 7.74827 48.054 7.89965 47.7073 7.91434C47.1124 7.95031 46.5124 7.91949 45.914 7.91949Z" fill="#0266F4"/>
</g>
</svg>
